%TF.GenerationSoftware,KiCad,Pcbnew,4.0.7*%
%TF.CreationDate,2017-10-11T17:16:13+02:00*%
%TF.ProjectId,ESP12_pcb,45535031325F7063622E6B696361645F,0.1*%
%TF.FileFunction,Legend,Top*%
%FSLAX46Y46*%
G04 Gerber Fmt 4.6, Leading zero omitted, Abs format (unit mm)*
G04 Created by KiCad (PCBNEW 4.0.7) date Wednesday, 11 October 2017 'PMt' 17:16:13*
%MOMM*%
%LPD*%
G01*
G04 APERTURE LIST*
%ADD10C,0.127000*%
%ADD11C,0.150000*%
%ADD12C,0.120000*%
%ADD13C,0.100000*%
%ADD14R,1.300000X1.000000*%
%ADD15R,0.850000X1.300000*%
%ADD16R,1.300000X0.850000*%
%ADD17R,1.800000X1.800000*%
%ADD18O,1.800000X1.800000*%
%ADD19R,1.000000X0.900000*%
%ADD20R,1.000000X1.300000*%
%ADD21C,1.600000*%
%ADD22R,4.100000X1.850000*%
%ADD23R,2.500000X1.600000*%
G04 APERTURE END LIST*
D10*
X55371429Y-71600000D02*
X55085714Y-71800000D01*
X55371429Y-71942857D02*
X54771429Y-71942857D01*
X54771429Y-71714285D01*
X54800000Y-71657143D01*
X54828571Y-71628571D01*
X54885714Y-71600000D01*
X54971429Y-71600000D01*
X55028571Y-71628571D01*
X55057143Y-71657143D01*
X55085714Y-71714285D01*
X55085714Y-71942857D01*
X54828571Y-71371428D02*
X54800000Y-71342857D01*
X54771429Y-71285714D01*
X54771429Y-71142857D01*
X54800000Y-71085714D01*
X54828571Y-71057143D01*
X54885714Y-71028571D01*
X54942857Y-71028571D01*
X55028571Y-71057143D01*
X55371429Y-71400000D01*
X55371429Y-71028571D01*
X55321429Y-73000000D02*
X55035714Y-73200000D01*
X55321429Y-73342857D02*
X54721429Y-73342857D01*
X54721429Y-73114285D01*
X54750000Y-73057143D01*
X54778571Y-73028571D01*
X54835714Y-73000000D01*
X54921429Y-73000000D01*
X54978571Y-73028571D01*
X55007143Y-73057143D01*
X55035714Y-73114285D01*
X55035714Y-73342857D01*
X54721429Y-72800000D02*
X54721429Y-72428571D01*
X54950000Y-72628571D01*
X54950000Y-72542857D01*
X54978571Y-72485714D01*
X55007143Y-72457143D01*
X55064286Y-72428571D01*
X55207143Y-72428571D01*
X55264286Y-72457143D01*
X55292857Y-72485714D01*
X55321429Y-72542857D01*
X55321429Y-72714285D01*
X55292857Y-72771428D01*
X55264286Y-72800000D01*
X53214286Y-74250000D02*
X53242857Y-74278571D01*
X53271429Y-74364285D01*
X53271429Y-74421428D01*
X53242857Y-74507143D01*
X53185714Y-74564285D01*
X53128571Y-74592857D01*
X53014286Y-74621428D01*
X52928571Y-74621428D01*
X52814286Y-74592857D01*
X52757143Y-74564285D01*
X52700000Y-74507143D01*
X52671429Y-74421428D01*
X52671429Y-74364285D01*
X52700000Y-74278571D01*
X52728571Y-74250000D01*
X52871429Y-73735714D02*
X53271429Y-73735714D01*
X52642857Y-73878571D02*
X53071429Y-74021428D01*
X53071429Y-73650000D01*
X53264286Y-75450000D02*
X53292857Y-75478571D01*
X53321429Y-75564285D01*
X53321429Y-75621428D01*
X53292857Y-75707143D01*
X53235714Y-75764285D01*
X53178571Y-75792857D01*
X53064286Y-75821428D01*
X52978571Y-75821428D01*
X52864286Y-75792857D01*
X52807143Y-75764285D01*
X52750000Y-75707143D01*
X52721429Y-75621428D01*
X52721429Y-75564285D01*
X52750000Y-75478571D01*
X52778571Y-75450000D01*
X52721429Y-75250000D02*
X52721429Y-74878571D01*
X52950000Y-75078571D01*
X52950000Y-74992857D01*
X52978571Y-74935714D01*
X53007143Y-74907143D01*
X53064286Y-74878571D01*
X53207143Y-74878571D01*
X53264286Y-74907143D01*
X53292857Y-74935714D01*
X53321429Y-74992857D01*
X53321429Y-75164285D01*
X53292857Y-75221428D01*
X53264286Y-75250000D01*
X50671429Y-73600000D02*
X50385714Y-73800000D01*
X50671429Y-73942857D02*
X50071429Y-73942857D01*
X50071429Y-73714285D01*
X50100000Y-73657143D01*
X50128571Y-73628571D01*
X50185714Y-73600000D01*
X50271429Y-73600000D01*
X50328571Y-73628571D01*
X50357143Y-73657143D01*
X50385714Y-73714285D01*
X50385714Y-73942857D01*
X50671429Y-73028571D02*
X50671429Y-73371428D01*
X50671429Y-73200000D02*
X50071429Y-73200000D01*
X50157143Y-73257143D01*
X50214286Y-73314285D01*
X50242857Y-73371428D01*
X55364286Y-82900000D02*
X55392857Y-82928571D01*
X55421429Y-83014285D01*
X55421429Y-83071428D01*
X55392857Y-83157143D01*
X55335714Y-83214285D01*
X55278571Y-83242857D01*
X55164286Y-83271428D01*
X55078571Y-83271428D01*
X54964286Y-83242857D01*
X54907143Y-83214285D01*
X54850000Y-83157143D01*
X54821429Y-83071428D01*
X54821429Y-83014285D01*
X54850000Y-82928571D01*
X54878571Y-82900000D01*
X54878571Y-82671428D02*
X54850000Y-82642857D01*
X54821429Y-82585714D01*
X54821429Y-82442857D01*
X54850000Y-82385714D01*
X54878571Y-82357143D01*
X54935714Y-82328571D01*
X54992857Y-82328571D01*
X55078571Y-82357143D01*
X55421429Y-82700000D01*
X55421429Y-82328571D01*
X52635714Y-83221429D02*
X52292857Y-83221429D01*
X52464285Y-83221429D02*
X52464285Y-82621429D01*
X52407142Y-82707143D01*
X52350000Y-82764286D01*
X52292857Y-82792857D01*
X53007143Y-82621429D02*
X53064286Y-82621429D01*
X53121429Y-82650000D01*
X53150000Y-82678571D01*
X53178571Y-82735714D01*
X53207143Y-82850000D01*
X53207143Y-82992857D01*
X53178571Y-83107143D01*
X53150000Y-83164286D01*
X53121429Y-83192857D01*
X53064286Y-83221429D01*
X53007143Y-83221429D01*
X52950000Y-83192857D01*
X52921429Y-83164286D01*
X52892857Y-83107143D01*
X52864286Y-82992857D01*
X52864286Y-82850000D01*
X52892857Y-82735714D01*
X52921429Y-82678571D01*
X52950000Y-82650000D01*
X53007143Y-82621429D01*
X51285714Y-83221429D02*
X50942857Y-83221429D01*
X51114285Y-83221429D02*
X51114285Y-82621429D01*
X51057142Y-82707143D01*
X51000000Y-82764286D01*
X50942857Y-82792857D01*
X51514286Y-82678571D02*
X51542857Y-82650000D01*
X51600000Y-82621429D01*
X51742857Y-82621429D01*
X51800000Y-82650000D01*
X51828571Y-82678571D01*
X51857143Y-82735714D01*
X51857143Y-82792857D01*
X51828571Y-82878571D01*
X51485714Y-83221429D01*
X51857143Y-83221429D01*
X49885714Y-83171429D02*
X49542857Y-83171429D01*
X49714285Y-83171429D02*
X49714285Y-82571429D01*
X49657142Y-82657143D01*
X49600000Y-82714286D01*
X49542857Y-82742857D01*
X50457143Y-83171429D02*
X50114286Y-83171429D01*
X50285714Y-83171429D02*
X50285714Y-82571429D01*
X50228571Y-82657143D01*
X50171429Y-82714286D01*
X50114286Y-82742857D01*
X48550000Y-83171429D02*
X48350000Y-82885714D01*
X48207143Y-83171429D02*
X48207143Y-82571429D01*
X48435715Y-82571429D01*
X48492857Y-82600000D01*
X48521429Y-82628571D01*
X48550000Y-82685714D01*
X48550000Y-82771429D01*
X48521429Y-82828571D01*
X48492857Y-82857143D01*
X48435715Y-82885714D01*
X48207143Y-82885714D01*
X48835715Y-83171429D02*
X48950000Y-83171429D01*
X49007143Y-83142857D01*
X49035715Y-83114286D01*
X49092857Y-83028571D01*
X49121429Y-82914286D01*
X49121429Y-82685714D01*
X49092857Y-82628571D01*
X49064286Y-82600000D01*
X49007143Y-82571429D01*
X48892857Y-82571429D01*
X48835715Y-82600000D01*
X48807143Y-82628571D01*
X48778572Y-82685714D01*
X48778572Y-82828571D01*
X48807143Y-82885714D01*
X48835715Y-82914286D01*
X48892857Y-82942857D01*
X49007143Y-82942857D01*
X49064286Y-82914286D01*
X49092857Y-82885714D01*
X49121429Y-82828571D01*
X45714286Y-79350000D02*
X45742857Y-79378571D01*
X45771429Y-79464285D01*
X45771429Y-79521428D01*
X45742857Y-79607143D01*
X45685714Y-79664285D01*
X45628571Y-79692857D01*
X45514286Y-79721428D01*
X45428571Y-79721428D01*
X45314286Y-79692857D01*
X45257143Y-79664285D01*
X45200000Y-79607143D01*
X45171429Y-79521428D01*
X45171429Y-79464285D01*
X45200000Y-79378571D01*
X45228571Y-79350000D01*
X45171429Y-78835714D02*
X45171429Y-78950000D01*
X45200000Y-79007143D01*
X45228571Y-79035714D01*
X45314286Y-79092857D01*
X45428571Y-79121428D01*
X45657143Y-79121428D01*
X45714286Y-79092857D01*
X45742857Y-79064285D01*
X45771429Y-79007143D01*
X45771429Y-78892857D01*
X45742857Y-78835714D01*
X45714286Y-78807143D01*
X45657143Y-78778571D01*
X45514286Y-78778571D01*
X45457143Y-78807143D01*
X45428571Y-78835714D01*
X45400000Y-78892857D01*
X45400000Y-79007143D01*
X45428571Y-79064285D01*
X45457143Y-79092857D01*
X45514286Y-79121428D01*
X44564286Y-75750000D02*
X44592857Y-75778571D01*
X44621429Y-75864285D01*
X44621429Y-75921428D01*
X44592857Y-76007143D01*
X44535714Y-76064285D01*
X44478571Y-76092857D01*
X44364286Y-76121428D01*
X44278571Y-76121428D01*
X44164286Y-76092857D01*
X44107143Y-76064285D01*
X44050000Y-76007143D01*
X44021429Y-75921428D01*
X44021429Y-75864285D01*
X44050000Y-75778571D01*
X44078571Y-75750000D01*
X44021429Y-75207143D02*
X44021429Y-75492857D01*
X44307143Y-75521428D01*
X44278571Y-75492857D01*
X44250000Y-75435714D01*
X44250000Y-75292857D01*
X44278571Y-75235714D01*
X44307143Y-75207143D01*
X44364286Y-75178571D01*
X44507143Y-75178571D01*
X44564286Y-75207143D01*
X44592857Y-75235714D01*
X44621429Y-75292857D01*
X44621429Y-75435714D01*
X44592857Y-75492857D01*
X44564286Y-75521428D01*
X44571429Y-74450000D02*
X44285714Y-74650000D01*
X44571429Y-74792857D02*
X43971429Y-74792857D01*
X43971429Y-74564285D01*
X44000000Y-74507143D01*
X44028571Y-74478571D01*
X44085714Y-74450000D01*
X44171429Y-74450000D01*
X44228571Y-74478571D01*
X44257143Y-74507143D01*
X44285714Y-74564285D01*
X44285714Y-74792857D01*
X44228571Y-74107143D02*
X44200000Y-74164285D01*
X44171429Y-74192857D01*
X44114286Y-74221428D01*
X44085714Y-74221428D01*
X44028571Y-74192857D01*
X44000000Y-74164285D01*
X43971429Y-74107143D01*
X43971429Y-73992857D01*
X44000000Y-73935714D01*
X44028571Y-73907143D01*
X44085714Y-73878571D01*
X44114286Y-73878571D01*
X44171429Y-73907143D01*
X44200000Y-73935714D01*
X44228571Y-73992857D01*
X44228571Y-74107143D01*
X44257143Y-74164285D01*
X44285714Y-74192857D01*
X44342857Y-74221428D01*
X44457143Y-74221428D01*
X44514286Y-74192857D01*
X44542857Y-74164285D01*
X44571429Y-74107143D01*
X44571429Y-73992857D01*
X44542857Y-73935714D01*
X44514286Y-73907143D01*
X44457143Y-73878571D01*
X44342857Y-73878571D01*
X44285714Y-73907143D01*
X44257143Y-73935714D01*
X44228571Y-73992857D01*
X44571429Y-72850000D02*
X44285714Y-73050000D01*
X44571429Y-73192857D02*
X43971429Y-73192857D01*
X43971429Y-72964285D01*
X44000000Y-72907143D01*
X44028571Y-72878571D01*
X44085714Y-72850000D01*
X44171429Y-72850000D01*
X44228571Y-72878571D01*
X44257143Y-72907143D01*
X44285714Y-72964285D01*
X44285714Y-73192857D01*
X43971429Y-72335714D02*
X43971429Y-72450000D01*
X44000000Y-72507143D01*
X44028571Y-72535714D01*
X44114286Y-72592857D01*
X44228571Y-72621428D01*
X44457143Y-72621428D01*
X44514286Y-72592857D01*
X44542857Y-72564285D01*
X44571429Y-72507143D01*
X44571429Y-72392857D01*
X44542857Y-72335714D01*
X44514286Y-72307143D01*
X44457143Y-72278571D01*
X44314286Y-72278571D01*
X44257143Y-72307143D01*
X44228571Y-72335714D01*
X44200000Y-72392857D01*
X44200000Y-72507143D01*
X44228571Y-72564285D01*
X44257143Y-72592857D01*
X44314286Y-72621428D01*
X44571429Y-71250000D02*
X44285714Y-71450000D01*
X44571429Y-71592857D02*
X43971429Y-71592857D01*
X43971429Y-71364285D01*
X44000000Y-71307143D01*
X44028571Y-71278571D01*
X44085714Y-71250000D01*
X44171429Y-71250000D01*
X44228571Y-71278571D01*
X44257143Y-71307143D01*
X44285714Y-71364285D01*
X44285714Y-71592857D01*
X43971429Y-71050000D02*
X43971429Y-70650000D01*
X44571429Y-70907143D01*
X44571429Y-69650000D02*
X44285714Y-69850000D01*
X44571429Y-69992857D02*
X43971429Y-69992857D01*
X43971429Y-69764285D01*
X44000000Y-69707143D01*
X44028571Y-69678571D01*
X44085714Y-69650000D01*
X44171429Y-69650000D01*
X44228571Y-69678571D01*
X44257143Y-69707143D01*
X44285714Y-69764285D01*
X44285714Y-69992857D01*
X43971429Y-69107143D02*
X43971429Y-69392857D01*
X44257143Y-69421428D01*
X44228571Y-69392857D01*
X44200000Y-69335714D01*
X44200000Y-69192857D01*
X44228571Y-69135714D01*
X44257143Y-69107143D01*
X44314286Y-69078571D01*
X44457143Y-69078571D01*
X44514286Y-69107143D01*
X44542857Y-69135714D01*
X44571429Y-69192857D01*
X44571429Y-69335714D01*
X44542857Y-69392857D01*
X44514286Y-69421428D01*
X44571429Y-68050000D02*
X44285714Y-68250000D01*
X44571429Y-68392857D02*
X43971429Y-68392857D01*
X43971429Y-68164285D01*
X44000000Y-68107143D01*
X44028571Y-68078571D01*
X44085714Y-68050000D01*
X44171429Y-68050000D01*
X44228571Y-68078571D01*
X44257143Y-68107143D01*
X44285714Y-68164285D01*
X44285714Y-68392857D01*
X44171429Y-67535714D02*
X44571429Y-67535714D01*
X43942857Y-67678571D02*
X44371429Y-67821428D01*
X44371429Y-67450000D01*
X55221429Y-88950000D02*
X55821429Y-88750000D01*
X55221429Y-88550000D01*
X55764286Y-88007143D02*
X55792857Y-88035714D01*
X55821429Y-88121428D01*
X55821429Y-88178571D01*
X55792857Y-88264286D01*
X55735714Y-88321428D01*
X55678571Y-88350000D01*
X55564286Y-88378571D01*
X55478571Y-88378571D01*
X55364286Y-88350000D01*
X55307143Y-88321428D01*
X55250000Y-88264286D01*
X55221429Y-88178571D01*
X55221429Y-88121428D01*
X55250000Y-88035714D01*
X55278571Y-88007143D01*
X55764286Y-87407143D02*
X55792857Y-87435714D01*
X55821429Y-87521428D01*
X55821429Y-87578571D01*
X55792857Y-87664286D01*
X55735714Y-87721428D01*
X55678571Y-87750000D01*
X55564286Y-87778571D01*
X55478571Y-87778571D01*
X55364286Y-87750000D01*
X55307143Y-87721428D01*
X55250000Y-87664286D01*
X55221429Y-87578571D01*
X55221429Y-87521428D01*
X55250000Y-87435714D01*
X55278571Y-87407143D01*
X43500000Y-86807142D02*
X43471429Y-86864285D01*
X43471429Y-86949999D01*
X43500000Y-87035714D01*
X43557143Y-87092856D01*
X43614286Y-87121428D01*
X43728571Y-87149999D01*
X43814286Y-87149999D01*
X43928571Y-87121428D01*
X43985714Y-87092856D01*
X44042857Y-87035714D01*
X44071429Y-86949999D01*
X44071429Y-86892856D01*
X44042857Y-86807142D01*
X44014286Y-86778571D01*
X43814286Y-86778571D01*
X43814286Y-86892856D01*
X44071429Y-86521428D02*
X43471429Y-86521428D01*
X44071429Y-86178571D01*
X43471429Y-86178571D01*
X44071429Y-85892857D02*
X43471429Y-85892857D01*
X43471429Y-85750000D01*
X43500000Y-85664285D01*
X43557143Y-85607143D01*
X43614286Y-85578571D01*
X43728571Y-85550000D01*
X43814286Y-85550000D01*
X43928571Y-85578571D01*
X43985714Y-85607143D01*
X44042857Y-85664285D01*
X44071429Y-85750000D01*
X44071429Y-85892857D01*
D11*
X55600000Y-72200000D02*
X54600000Y-72200000D01*
X54600000Y-70850000D02*
X55600000Y-70850000D01*
X54600000Y-82400000D02*
X54600000Y-83100000D01*
X53400000Y-83100000D02*
X53400000Y-82400000D01*
X54725000Y-74775000D02*
X55425000Y-74775000D01*
X55425000Y-75975000D02*
X54725000Y-75975000D01*
X54725000Y-73550000D02*
X55425000Y-73550000D01*
X55425000Y-74750000D02*
X54725000Y-74750000D01*
X44700000Y-76250000D02*
X44000000Y-76250000D01*
X44000000Y-75050000D02*
X44700000Y-75050000D01*
D12*
X56840000Y-78895000D02*
X56840000Y-76235000D01*
X56840000Y-76235000D02*
X54060000Y-76235000D01*
X54060000Y-76235000D02*
X54060000Y-78895000D01*
X54060000Y-78895000D02*
X56840000Y-78895000D01*
X56840000Y-80165000D02*
X56840000Y-81555000D01*
X56840000Y-81555000D02*
X55450000Y-81555000D01*
X51715000Y-77320000D02*
X51715000Y-78250000D01*
X51715000Y-80480000D02*
X51715000Y-79550000D01*
X51715000Y-80480000D02*
X53875000Y-80480000D01*
X51715000Y-77320000D02*
X53175000Y-77320000D01*
D11*
X49900000Y-72825000D02*
X50900000Y-72825000D01*
X50900000Y-74175000D02*
X49900000Y-74175000D01*
X55575000Y-73550000D02*
X54575000Y-73550000D01*
X54575000Y-72200000D02*
X55575000Y-72200000D01*
X44800000Y-70225000D02*
X43800000Y-70225000D01*
X43800000Y-68875000D02*
X44800000Y-68875000D01*
X43800000Y-72075000D02*
X44800000Y-72075000D01*
X44800000Y-73425000D02*
X43800000Y-73425000D01*
X43800000Y-70475000D02*
X44800000Y-70475000D01*
X44800000Y-71825000D02*
X43800000Y-71825000D01*
X44800000Y-75025000D02*
X43800000Y-75025000D01*
X43800000Y-73675000D02*
X44800000Y-73675000D01*
X47987944Y-83386326D02*
X47987944Y-82386326D01*
X49337944Y-82386326D02*
X49337944Y-83386326D01*
X52062944Y-83411326D02*
X52062944Y-82411326D01*
X53412944Y-82411326D02*
X53412944Y-83411326D01*
X49325000Y-83375000D02*
X49325000Y-82375000D01*
X50675000Y-82375000D02*
X50675000Y-83375000D01*
X50725000Y-83450000D02*
X50725000Y-82450000D01*
X52075000Y-82450000D02*
X52075000Y-83450000D01*
X43800000Y-67275000D02*
X44800000Y-67275000D01*
X44800000Y-68625000D02*
X43800000Y-68625000D01*
D13*
X55900000Y-69000000D02*
X55900000Y-67600000D01*
X51900000Y-69000000D02*
X51900000Y-67600000D01*
X47275000Y-77550000D02*
X47275000Y-78350000D01*
X47775000Y-77950000D02*
X46775000Y-77950000D01*
X47275000Y-81850000D02*
X48075000Y-81050000D01*
X47275000Y-76650000D02*
X48075000Y-77450000D01*
X48075000Y-78850000D02*
X48075000Y-77450000D01*
X48075000Y-79650000D02*
X48075000Y-81050000D01*
X42775000Y-76650000D02*
X47275000Y-76650000D01*
X42775000Y-78850000D02*
X42775000Y-76650000D01*
X42775000Y-81850000D02*
X42775000Y-79650000D01*
X47275000Y-81850000D02*
X42775000Y-81850000D01*
%LPC*%
D14*
X54000000Y-71525000D03*
X56200000Y-71525000D03*
D15*
X54000000Y-81800000D03*
X54000000Y-83700000D03*
D16*
X54125000Y-75375000D03*
X56025000Y-75375000D03*
X54125000Y-74150000D03*
X56025000Y-74150000D03*
X45300000Y-75650000D03*
X43400000Y-75650000D03*
D17*
X55450000Y-80165000D03*
D18*
X55450000Y-77625000D03*
D19*
X53475000Y-79850000D03*
X53475000Y-77950000D03*
X51475000Y-78900000D03*
D14*
X51500000Y-73500000D03*
X49300000Y-73500000D03*
X53975000Y-72875000D03*
X56175000Y-72875000D03*
X43200000Y-69550000D03*
X45400000Y-69550000D03*
X45400000Y-72750000D03*
X43200000Y-72750000D03*
X45400000Y-71150000D03*
X43200000Y-71150000D03*
X43200000Y-74350000D03*
X45400000Y-74350000D03*
D20*
X48662944Y-81786326D03*
X48662944Y-83986326D03*
X52737944Y-81811326D03*
X52737944Y-84011326D03*
X50000000Y-81775000D03*
X50000000Y-83975000D03*
X51400000Y-81850000D03*
X51400000Y-84050000D03*
D21*
X49700000Y-78050000D03*
X43475000Y-83725000D03*
X45825000Y-83750000D03*
D17*
X45820000Y-86310000D03*
D18*
X45820000Y-88850000D03*
X48360000Y-86310000D03*
X48360000Y-88850000D03*
X50900000Y-86310000D03*
X50900000Y-88850000D03*
X53440000Y-86310000D03*
X53440000Y-88850000D03*
D14*
X45400000Y-67950000D03*
X43200000Y-67950000D03*
D22*
X53900000Y-69925000D03*
X53900000Y-66675000D03*
D23*
X47275000Y-79250000D03*
X43675000Y-79250000D03*
M02*
