%TF.GenerationSoftware,KiCad,Pcbnew,4.0.6*%
%TF.CreationDate,2017-08-17T14:53:17+02:00*%
%TF.ProjectId,ESP12_pcb,45535031325F7063622E6B696361645F,rev?*%
%TF.FileFunction,Copper,L1,Top,Signal*%
%FSLAX46Y46*%
G04 Gerber Fmt 4.6, Leading zero omitted, Abs format (unit mm)*
G04 Created by KiCad (PCBNEW 4.0.6) date Thursday, 17 '17e' August '17e' 2017, 14:53:17*
%MOMM*%
%LPD*%
G01*
G04 APERTURE LIST*
%ADD10C,0.127000*%
%ADD11C,4.000000*%
%ADD12R,2.500000X1.200000*%
%ADD13R,1.200000X0.750000*%
%ADD14R,0.750000X1.200000*%
%ADD15R,1.250000X1.500000*%
%ADD16R,1.900000X1.600000*%
%ADD17R,2.000000X2.100000*%
%ADD18R,1.350000X0.400000*%
%ADD19R,1.100000X1.100000*%
%ADD20R,0.900000X1.200000*%
%ADD21R,1.700000X1.700000*%
%ADD22O,1.700000X1.700000*%
%ADD23R,2.540000X2.540000*%
%ADD24C,2.540000*%
%ADD25R,3.700000X4.000000*%
%ADD26R,0.800000X0.900000*%
%ADD27R,0.900000X0.800000*%
%ADD28R,1.200000X0.900000*%
%ADD29R,1.651000X3.048000*%
%ADD30R,6.096000X6.096000*%
%ADD31R,0.800000X0.350000*%
%ADD32R,0.350000X0.800000*%
%ADD33R,2.800000X2.800000*%
%ADD34C,1.500000*%
%ADD35C,0.685800*%
%ADD36C,0.300000*%
%ADD37C,0.152400*%
%ADD38C,0.200000*%
G04 APERTURE END LIST*
D10*
D11*
X107950000Y-111760000D03*
X129032000Y-83312000D03*
D12*
X115570000Y-85520000D03*
X115570000Y-82120000D03*
X128270000Y-90600000D03*
X128270000Y-87200000D03*
D13*
X117160000Y-95758000D03*
X119060000Y-95758000D03*
X117160000Y-97790000D03*
X119060000Y-97790000D03*
D14*
X115570000Y-110810000D03*
X115570000Y-112710000D03*
D15*
X118110000Y-110510000D03*
X118110000Y-113010000D03*
D16*
X100330000Y-100290000D03*
X100330000Y-107990000D03*
D17*
X102680000Y-101040000D03*
X102680000Y-107240000D03*
D18*
X103010000Y-104140000D03*
X103010000Y-104790000D03*
X103010000Y-105440000D03*
X103010000Y-103490000D03*
X103010000Y-102840000D03*
D19*
X115570000Y-88770000D03*
X115570000Y-91570000D03*
X130680000Y-96520000D03*
X133480000Y-96520000D03*
D20*
X110490000Y-90340000D03*
X110490000Y-92540000D03*
D21*
X133096000Y-85852000D03*
D22*
X133096000Y-88392000D03*
D23*
X104140000Y-93980000D03*
D24*
X104140000Y-88900000D03*
D25*
X128270000Y-100960000D03*
X128270000Y-109860000D03*
D26*
X109540000Y-84820000D03*
X111440000Y-84820000D03*
X110490000Y-82820000D03*
D27*
X131080000Y-91760000D03*
X131080000Y-93660000D03*
X133080000Y-92710000D03*
D20*
X123190000Y-95420000D03*
X123190000Y-97620000D03*
X111760000Y-100500000D03*
X111760000Y-102700000D03*
X109220000Y-100500000D03*
X109220000Y-102700000D03*
D28*
X116670000Y-107950000D03*
X114470000Y-107950000D03*
X111590000Y-107950000D03*
X109390000Y-107950000D03*
D20*
X120650000Y-110660000D03*
X120650000Y-112860000D03*
D29*
X124206000Y-83820000D03*
D30*
X121920000Y-90170000D03*
D29*
X119634000Y-83820000D03*
D31*
X118840000Y-103845000D03*
X118840000Y-103195000D03*
X118840000Y-102545000D03*
X118840000Y-101895000D03*
D32*
X117815000Y-100870000D03*
X117165000Y-100870000D03*
X116515000Y-100870000D03*
X115865000Y-100870000D03*
D31*
X114840000Y-101895000D03*
X114840000Y-102545000D03*
X114840000Y-103195000D03*
X114840000Y-103845000D03*
D32*
X115865000Y-104870000D03*
X116515000Y-104870000D03*
X117165000Y-104870000D03*
X117815000Y-104870000D03*
D33*
X116840000Y-102870000D03*
D34*
X127000000Y-95250000D03*
X113030000Y-93980000D03*
X113030000Y-87630000D03*
X124968000Y-114300000D03*
X120650000Y-106680000D03*
D11*
X102616000Y-83312000D03*
D35*
X113538000Y-104521000D03*
X123063000Y-99314000D03*
X114681000Y-104902000D03*
X122174000Y-112395000D03*
D36*
X115570000Y-85520000D02*
X116918000Y-85520000D01*
X117856000Y-83820000D02*
X119634000Y-83820000D01*
X117602000Y-84074000D02*
X117856000Y-83820000D01*
X117602000Y-84836000D02*
X117602000Y-84074000D01*
X116918000Y-85520000D02*
X117602000Y-84836000D01*
X116410000Y-85520000D02*
X115570000Y-85520000D01*
X115570000Y-85520000D02*
X115570000Y-88770000D01*
X113030000Y-87630000D02*
X114300000Y-88900000D01*
X114300000Y-88900000D02*
X115440000Y-88900000D01*
X115440000Y-88900000D02*
X115570000Y-88770000D01*
X111440000Y-84820000D02*
X111440000Y-86040000D01*
X111440000Y-86040000D02*
X113030000Y-87630000D01*
X115865000Y-104870000D02*
X115865000Y-103845000D01*
X115865000Y-103845000D02*
X116840000Y-102870000D01*
X117815000Y-101895000D02*
X116840000Y-102870000D01*
X117165000Y-100870000D02*
X117165000Y-102545000D01*
X117165000Y-102545000D02*
X116840000Y-102870000D01*
X116515000Y-100870000D02*
X116515000Y-102545000D01*
X116515000Y-102545000D02*
X116840000Y-102870000D01*
X114840000Y-102545000D02*
X116515000Y-102545000D01*
X116515000Y-102545000D02*
X116840000Y-102870000D01*
X117815000Y-100870000D02*
X117815000Y-101895000D01*
X127000000Y-95250000D02*
X128651000Y-96901000D01*
X128270000Y-100960000D02*
X128270000Y-97282000D01*
X128270000Y-97282000D02*
X128651000Y-96901000D01*
X129032000Y-96520000D02*
X130680000Y-96520000D01*
X128651000Y-96901000D02*
X129032000Y-96520000D01*
X115865000Y-100870000D02*
X113824000Y-100870000D01*
X113454000Y-100500000D02*
X111760000Y-100500000D01*
X113824000Y-100870000D02*
X113454000Y-100500000D01*
X115865000Y-100870000D02*
X115865000Y-100289000D01*
X117160000Y-98994000D02*
X117160000Y-97790000D01*
X115865000Y-100289000D02*
X117160000Y-98994000D01*
X117160000Y-95758000D02*
X117160000Y-97790000D01*
X117160000Y-95758000D02*
X117160000Y-94676000D01*
X123190000Y-94742000D02*
X123190000Y-95420000D01*
X122682000Y-94234000D02*
X123190000Y-94742000D01*
X117602000Y-94234000D02*
X122682000Y-94234000D01*
X117160000Y-94676000D02*
X117602000Y-94234000D01*
X127000000Y-95250000D02*
X123360000Y-95250000D01*
X123360000Y-95250000D02*
X123190000Y-95420000D01*
X127000000Y-95250000D02*
X127000000Y-93726000D01*
X128270000Y-92456000D02*
X128270000Y-90600000D01*
X127000000Y-93726000D02*
X128270000Y-92456000D01*
X127254000Y-94996000D02*
X127000000Y-95250000D01*
X121920000Y-90170000D02*
X125476000Y-90170000D01*
X125476000Y-90170000D02*
X125906000Y-90600000D01*
X125906000Y-90600000D02*
X128270000Y-90600000D01*
X120650000Y-110660000D02*
X120650000Y-106680000D01*
X118110000Y-110510000D02*
X119146000Y-110510000D01*
X119296000Y-110660000D02*
X120650000Y-110660000D01*
X119146000Y-110510000D02*
X119296000Y-110660000D01*
X115570000Y-110810000D02*
X116012000Y-110810000D01*
X116312000Y-110510000D02*
X118110000Y-110510000D01*
X116012000Y-110810000D02*
X116312000Y-110510000D01*
X117165000Y-104870000D02*
X117165000Y-106101000D01*
X116670000Y-106596000D02*
X116670000Y-107950000D01*
X117165000Y-106101000D02*
X116670000Y-106596000D01*
X115570000Y-110810000D02*
X115570000Y-109982000D01*
X115570000Y-109982000D02*
X116670000Y-108882000D01*
X116670000Y-108882000D02*
X116670000Y-107950000D01*
X117815000Y-104870000D02*
X118396000Y-104870000D01*
X118840000Y-104426000D02*
X118840000Y-103845000D01*
X118396000Y-104870000D02*
X118840000Y-104426000D01*
X117165000Y-104870000D02*
X117815000Y-104870000D01*
X103010000Y-102840000D02*
X104678000Y-102840000D01*
X110490000Y-93980000D02*
X110490000Y-92540000D01*
X106426000Y-98044000D02*
X110490000Y-93980000D01*
X106426000Y-101092000D02*
X106426000Y-98044000D01*
X104678000Y-102840000D02*
X106426000Y-101092000D01*
X115570000Y-91570000D02*
X113154000Y-91570000D01*
X113154000Y-91570000D02*
X113030000Y-91694000D01*
X110490000Y-90340000D02*
X111676000Y-90340000D01*
X113030000Y-91694000D02*
X113030000Y-93980000D01*
X111676000Y-90340000D02*
X113030000Y-91694000D01*
X131080000Y-93660000D02*
X131760000Y-93660000D01*
X133480000Y-95380000D02*
X133480000Y-96520000D01*
X131760000Y-93660000D02*
X133480000Y-95380000D01*
X133080000Y-92710000D02*
X133080000Y-88408000D01*
X133080000Y-88408000D02*
X133096000Y-88392000D01*
X110490000Y-82820000D02*
X108950000Y-82820000D01*
X106680000Y-87630000D02*
X105410000Y-88900000D01*
X106680000Y-85090000D02*
X106680000Y-87630000D01*
X108950000Y-82820000D02*
X106680000Y-85090000D01*
X105410000Y-88900000D02*
X104140000Y-88900000D01*
X118840000Y-102545000D02*
X121595000Y-102545000D01*
X125354000Y-109860000D02*
X128270000Y-109860000D01*
X124968000Y-109474000D02*
X125354000Y-109860000D01*
X124968000Y-105918000D02*
X124968000Y-109474000D01*
X121595000Y-102545000D02*
X124968000Y-105918000D01*
X118840000Y-102545000D02*
X118840000Y-101895000D01*
D37*
X114229000Y-103195000D02*
X113538000Y-103886000D01*
X113538000Y-103886000D02*
X113538000Y-104521000D01*
X114840000Y-103195000D02*
X114229000Y-103195000D01*
X123190000Y-99187000D02*
X123190000Y-97620000D01*
X123063000Y-99314000D02*
X123190000Y-99187000D01*
X109220000Y-100500000D02*
X110025000Y-100500000D01*
X110701000Y-102700000D02*
X111760000Y-102700000D01*
X110617000Y-102616000D02*
X110701000Y-102700000D01*
X110617000Y-101092000D02*
X110617000Y-102616000D01*
X110025000Y-100500000D02*
X110617000Y-101092000D01*
X114840000Y-101895000D02*
X114132000Y-101895000D01*
X113327000Y-102700000D02*
X111760000Y-102700000D01*
X114132000Y-101895000D02*
X113327000Y-102700000D01*
X114470000Y-107950000D02*
X111590000Y-107950000D01*
X116515000Y-104870000D02*
X116515000Y-105989000D01*
X114470000Y-107018000D02*
X114470000Y-107950000D01*
X114681000Y-106807000D02*
X114470000Y-107018000D01*
X115697000Y-106807000D02*
X114681000Y-106807000D01*
X116515000Y-105989000D02*
X115697000Y-106807000D01*
X120650000Y-112860000D02*
X121709000Y-112860000D01*
X114840000Y-104743000D02*
X114681000Y-104902000D01*
X114840000Y-104743000D02*
X114840000Y-103845000D01*
X121709000Y-112860000D02*
X122174000Y-112395000D01*
X120650000Y-112860000D02*
X120650000Y-113538000D01*
X121412000Y-114300000D02*
X124968000Y-114300000D01*
X120650000Y-113538000D02*
X121412000Y-114300000D01*
D38*
G36*
X135536000Y-116486000D02*
X99414000Y-116486000D01*
X99414000Y-112226185D01*
X105595592Y-112226185D01*
X105953212Y-113091692D01*
X106614825Y-113754461D01*
X107479706Y-114113591D01*
X108416185Y-114114408D01*
X109281692Y-113756788D01*
X109944461Y-113095175D01*
X110052495Y-112835000D01*
X114895000Y-112835000D01*
X114895000Y-113369674D01*
X114940672Y-113479937D01*
X115025064Y-113564328D01*
X115135327Y-113610000D01*
X115445000Y-113610000D01*
X115520000Y-113535000D01*
X115520000Y-112760000D01*
X115620000Y-112760000D01*
X115620000Y-113535000D01*
X115695000Y-113610000D01*
X116004673Y-113610000D01*
X116114936Y-113564328D01*
X116199328Y-113479937D01*
X116245000Y-113369674D01*
X116245000Y-113135000D01*
X117185000Y-113135000D01*
X117185000Y-113819674D01*
X117230672Y-113929937D01*
X117315064Y-114014328D01*
X117425327Y-114060000D01*
X117985000Y-114060000D01*
X118060000Y-113985000D01*
X118060000Y-113060000D01*
X118160000Y-113060000D01*
X118160000Y-113985000D01*
X118235000Y-114060000D01*
X118794673Y-114060000D01*
X118904936Y-114014328D01*
X118989328Y-113929937D01*
X119035000Y-113819674D01*
X119035000Y-113135000D01*
X118960000Y-113060000D01*
X118160000Y-113060000D01*
X118060000Y-113060000D01*
X117260000Y-113060000D01*
X117185000Y-113135000D01*
X116245000Y-113135000D01*
X116245000Y-112835000D01*
X116170000Y-112760000D01*
X115620000Y-112760000D01*
X115520000Y-112760000D01*
X114970000Y-112760000D01*
X114895000Y-112835000D01*
X110052495Y-112835000D01*
X110303591Y-112230294D01*
X110303748Y-112050326D01*
X114895000Y-112050326D01*
X114895000Y-112585000D01*
X114970000Y-112660000D01*
X115520000Y-112660000D01*
X115520000Y-111885000D01*
X115620000Y-111885000D01*
X115620000Y-112660000D01*
X116170000Y-112660000D01*
X116245000Y-112585000D01*
X116245000Y-112200326D01*
X117185000Y-112200326D01*
X117185000Y-112885000D01*
X117260000Y-112960000D01*
X118060000Y-112960000D01*
X118060000Y-112035000D01*
X118160000Y-112035000D01*
X118160000Y-112960000D01*
X118960000Y-112960000D01*
X119035000Y-112885000D01*
X119035000Y-112260000D01*
X119839065Y-112260000D01*
X119839065Y-113460000D01*
X119863749Y-113591184D01*
X119941279Y-113711669D01*
X120059576Y-113792498D01*
X120200000Y-113820935D01*
X120331596Y-113820935D01*
X120345803Y-113842197D01*
X121107803Y-114604198D01*
X121247369Y-114697453D01*
X121412000Y-114730200D01*
X123951225Y-114730200D01*
X124031528Y-114924549D01*
X124341818Y-115235380D01*
X124747437Y-115403808D01*
X125186636Y-115404192D01*
X125592549Y-115236472D01*
X125903380Y-114926182D01*
X126071808Y-114520563D01*
X126072192Y-114081364D01*
X125904472Y-113675451D01*
X125594182Y-113364620D01*
X125188563Y-113196192D01*
X124749364Y-113195808D01*
X124343451Y-113363528D01*
X124032620Y-113673818D01*
X123951241Y-113869800D01*
X121590195Y-113869800D01*
X121387165Y-113666771D01*
X121432498Y-113600424D01*
X121460935Y-113460000D01*
X121460935Y-113290200D01*
X121709000Y-113290200D01*
X121873631Y-113257453D01*
X122013197Y-113164197D01*
X122085571Y-113091823D01*
X122312014Y-113092021D01*
X122568246Y-112986147D01*
X122764459Y-112790278D01*
X122870779Y-112534230D01*
X122871021Y-112256986D01*
X122765147Y-112000754D01*
X122569278Y-111804541D01*
X122313230Y-111698221D01*
X122035986Y-111697979D01*
X121779754Y-111803853D01*
X121583541Y-111999722D01*
X121477221Y-112255770D01*
X121477069Y-112429800D01*
X121460935Y-112429800D01*
X121460935Y-112260000D01*
X121436251Y-112128816D01*
X121358721Y-112008331D01*
X121240424Y-111927502D01*
X121100000Y-111899065D01*
X120200000Y-111899065D01*
X120068816Y-111923749D01*
X119948331Y-112001279D01*
X119867502Y-112119576D01*
X119839065Y-112260000D01*
X119035000Y-112260000D01*
X119035000Y-112200326D01*
X118989328Y-112090063D01*
X118904936Y-112005672D01*
X118794673Y-111960000D01*
X118235000Y-111960000D01*
X118160000Y-112035000D01*
X118060000Y-112035000D01*
X117985000Y-111960000D01*
X117425327Y-111960000D01*
X117315064Y-112005672D01*
X117230672Y-112090063D01*
X117185000Y-112200326D01*
X116245000Y-112200326D01*
X116245000Y-112050326D01*
X116199328Y-111940063D01*
X116114936Y-111855672D01*
X116004673Y-111810000D01*
X115695000Y-111810000D01*
X115620000Y-111885000D01*
X115520000Y-111885000D01*
X115445000Y-111810000D01*
X115135327Y-111810000D01*
X115025064Y-111855672D01*
X114940672Y-111940063D01*
X114895000Y-112050326D01*
X110303748Y-112050326D01*
X110304408Y-111293815D01*
X109946788Y-110428308D01*
X109285175Y-109765539D01*
X108420294Y-109406409D01*
X107483815Y-109405592D01*
X106618308Y-109763212D01*
X105955539Y-110424825D01*
X105596409Y-111289706D01*
X105595592Y-112226185D01*
X99414000Y-112226185D01*
X99414000Y-109150935D01*
X101280000Y-109150935D01*
X101411184Y-109126251D01*
X101531669Y-109048721D01*
X101612498Y-108930424D01*
X101640935Y-108790000D01*
X101640935Y-108590000D01*
X102555000Y-108590000D01*
X102630000Y-108515000D01*
X102630000Y-107290000D01*
X102730000Y-107290000D01*
X102730000Y-108515000D01*
X102805000Y-108590000D01*
X103739673Y-108590000D01*
X103849936Y-108544328D01*
X103934328Y-108459937D01*
X103980000Y-108349674D01*
X103980000Y-108075000D01*
X108490000Y-108075000D01*
X108490000Y-108459673D01*
X108535672Y-108569936D01*
X108620063Y-108654328D01*
X108730326Y-108700000D01*
X109265000Y-108700000D01*
X109340000Y-108625000D01*
X109340000Y-108000000D01*
X109440000Y-108000000D01*
X109440000Y-108625000D01*
X109515000Y-108700000D01*
X110049674Y-108700000D01*
X110159937Y-108654328D01*
X110244328Y-108569936D01*
X110290000Y-108459673D01*
X110290000Y-108075000D01*
X110215000Y-108000000D01*
X109440000Y-108000000D01*
X109340000Y-108000000D01*
X108565000Y-108000000D01*
X108490000Y-108075000D01*
X103980000Y-108075000D01*
X103980000Y-107440327D01*
X108490000Y-107440327D01*
X108490000Y-107825000D01*
X108565000Y-107900000D01*
X109340000Y-107900000D01*
X109340000Y-107275000D01*
X109440000Y-107275000D01*
X109440000Y-107900000D01*
X110215000Y-107900000D01*
X110290000Y-107825000D01*
X110290000Y-107440327D01*
X110244328Y-107330064D01*
X110159937Y-107245672D01*
X110049674Y-107200000D01*
X109515000Y-107200000D01*
X109440000Y-107275000D01*
X109340000Y-107275000D01*
X109265000Y-107200000D01*
X108730326Y-107200000D01*
X108620063Y-107245672D01*
X108535672Y-107330064D01*
X108490000Y-107440327D01*
X103980000Y-107440327D01*
X103980000Y-107365000D01*
X103905000Y-107290000D01*
X102730000Y-107290000D01*
X102630000Y-107290000D01*
X102610000Y-107290000D01*
X102610000Y-107190000D01*
X102630000Y-107190000D01*
X102630000Y-107170000D01*
X102730000Y-107170000D01*
X102730000Y-107190000D01*
X103905000Y-107190000D01*
X103980000Y-107115000D01*
X103980000Y-106130326D01*
X103934328Y-106020063D01*
X103849936Y-105935672D01*
X103802529Y-105916036D01*
X103854936Y-105894328D01*
X103939328Y-105809937D01*
X103985000Y-105699674D01*
X103985000Y-105565000D01*
X103910000Y-105490000D01*
X103060000Y-105490000D01*
X103060000Y-105510000D01*
X102960000Y-105510000D01*
X102960000Y-105490000D01*
X102110000Y-105490000D01*
X102035000Y-105565000D01*
X102035000Y-105699674D01*
X102080672Y-105809937D01*
X102160736Y-105890000D01*
X101620327Y-105890000D01*
X101510064Y-105935672D01*
X101425672Y-106020063D01*
X101380000Y-106130326D01*
X101380000Y-106849316D01*
X101280000Y-106829065D01*
X99414000Y-106829065D01*
X99414000Y-101450935D01*
X101280000Y-101450935D01*
X101380000Y-101432119D01*
X101380000Y-102149674D01*
X101425672Y-102259937D01*
X101510064Y-102344328D01*
X101620327Y-102390000D01*
X102077372Y-102390000D01*
X102002502Y-102499576D01*
X101974065Y-102640000D01*
X101974065Y-103040000D01*
X101998449Y-103169590D01*
X101974065Y-103290000D01*
X101974065Y-103690000D01*
X101998449Y-103819590D01*
X101974065Y-103940000D01*
X101974065Y-104340000D01*
X101998449Y-104469590D01*
X101974065Y-104590000D01*
X101974065Y-104990000D01*
X101998749Y-105121184D01*
X102035707Y-105178619D01*
X102035000Y-105180326D01*
X102035000Y-105315000D01*
X102110000Y-105390000D01*
X102960000Y-105390000D01*
X102960000Y-105370000D01*
X103060000Y-105370000D01*
X103060000Y-105390000D01*
X103910000Y-105390000D01*
X103985000Y-105315000D01*
X103985000Y-105180326D01*
X103984397Y-105178869D01*
X104017498Y-105130424D01*
X104045935Y-104990000D01*
X104045935Y-104590000D01*
X104021551Y-104460410D01*
X104045935Y-104340000D01*
X104045935Y-103940000D01*
X104021551Y-103810410D01*
X104045935Y-103690000D01*
X104045935Y-103344000D01*
X104678000Y-103344000D01*
X104870873Y-103305635D01*
X105034382Y-103196382D01*
X105405764Y-102825000D01*
X108470000Y-102825000D01*
X108470000Y-103359674D01*
X108515672Y-103469937D01*
X108600064Y-103554328D01*
X108710327Y-103600000D01*
X109095000Y-103600000D01*
X109170000Y-103525000D01*
X109170000Y-102750000D01*
X109270000Y-102750000D01*
X109270000Y-103525000D01*
X109345000Y-103600000D01*
X109729673Y-103600000D01*
X109839936Y-103554328D01*
X109924328Y-103469937D01*
X109970000Y-103359674D01*
X109970000Y-102825000D01*
X109895000Y-102750000D01*
X109270000Y-102750000D01*
X109170000Y-102750000D01*
X108545000Y-102750000D01*
X108470000Y-102825000D01*
X105405764Y-102825000D01*
X106190438Y-102040326D01*
X108470000Y-102040326D01*
X108470000Y-102575000D01*
X108545000Y-102650000D01*
X109170000Y-102650000D01*
X109170000Y-101875000D01*
X109270000Y-101875000D01*
X109270000Y-102650000D01*
X109895000Y-102650000D01*
X109970000Y-102575000D01*
X109970000Y-102040326D01*
X109924328Y-101930063D01*
X109839936Y-101845672D01*
X109729673Y-101800000D01*
X109345000Y-101800000D01*
X109270000Y-101875000D01*
X109170000Y-101875000D01*
X109095000Y-101800000D01*
X108710327Y-101800000D01*
X108600064Y-101845672D01*
X108515672Y-101930063D01*
X108470000Y-102040326D01*
X106190438Y-102040326D01*
X106782382Y-101448382D01*
X106891635Y-101284873D01*
X106930000Y-101092000D01*
X106930000Y-99900000D01*
X108409065Y-99900000D01*
X108409065Y-101100000D01*
X108433749Y-101231184D01*
X108511279Y-101351669D01*
X108629576Y-101432498D01*
X108770000Y-101460935D01*
X109670000Y-101460935D01*
X109801184Y-101436251D01*
X109921669Y-101358721D01*
X110002498Y-101240424D01*
X110028522Y-101111916D01*
X110186800Y-101270195D01*
X110186800Y-102616000D01*
X110219547Y-102780631D01*
X110312803Y-102920197D01*
X110396803Y-103004197D01*
X110536369Y-103097453D01*
X110701000Y-103130200D01*
X110949065Y-103130200D01*
X110949065Y-103300000D01*
X110973749Y-103431184D01*
X111051279Y-103551669D01*
X111169576Y-103632498D01*
X111310000Y-103660935D01*
X112210000Y-103660935D01*
X112341184Y-103636251D01*
X112461669Y-103558721D01*
X112542498Y-103440424D01*
X112570935Y-103300000D01*
X112570935Y-103130200D01*
X113327000Y-103130200D01*
X113491631Y-103097453D01*
X113631197Y-103004197D01*
X114177697Y-102457697D01*
X114215000Y-102495000D01*
X114790000Y-102495000D01*
X114790000Y-102475000D01*
X114890000Y-102475000D01*
X114890000Y-102495000D01*
X114910000Y-102495000D01*
X114910000Y-102595000D01*
X114890000Y-102595000D01*
X114890000Y-102615000D01*
X114790000Y-102615000D01*
X114790000Y-102595000D01*
X114215000Y-102595000D01*
X114140000Y-102670000D01*
X114140000Y-102779673D01*
X114141083Y-102782288D01*
X114064370Y-102797547D01*
X113924803Y-102890802D01*
X113233803Y-103581803D01*
X113140547Y-103721369D01*
X113140547Y-103721370D01*
X113107800Y-103886000D01*
X113107800Y-103965744D01*
X112947541Y-104125722D01*
X112841221Y-104381770D01*
X112840979Y-104659014D01*
X112946853Y-104915246D01*
X113142722Y-105111459D01*
X113398770Y-105217779D01*
X113676014Y-105218021D01*
X113932246Y-105112147D01*
X113989973Y-105054521D01*
X114089853Y-105296246D01*
X114285722Y-105492459D01*
X114541770Y-105598779D01*
X114819014Y-105599021D01*
X115075246Y-105493147D01*
X115271459Y-105297278D01*
X115377779Y-105041230D01*
X115377819Y-104995000D01*
X115390000Y-104995000D01*
X115390000Y-105329674D01*
X115435672Y-105439937D01*
X115520064Y-105524328D01*
X115630327Y-105570000D01*
X115740000Y-105570000D01*
X115815000Y-105495000D01*
X115815000Y-104920000D01*
X115465000Y-104920000D01*
X115390000Y-104995000D01*
X115377819Y-104995000D01*
X115378021Y-104763986D01*
X115280840Y-104528792D01*
X115380326Y-104570000D01*
X115390000Y-104570000D01*
X115390000Y-104745000D01*
X115465000Y-104820000D01*
X115815000Y-104820000D01*
X115815000Y-104800000D01*
X115915000Y-104800000D01*
X115915000Y-104820000D01*
X115935000Y-104820000D01*
X115935000Y-104920000D01*
X115915000Y-104920000D01*
X115915000Y-105495000D01*
X115990000Y-105570000D01*
X116084800Y-105570000D01*
X116084800Y-105810805D01*
X115518806Y-106376800D01*
X114681000Y-106376800D01*
X114543683Y-106404114D01*
X114516369Y-106409547D01*
X114376803Y-106502803D01*
X114165803Y-106713803D01*
X114072547Y-106853369D01*
X114071725Y-106857502D01*
X114039800Y-107018000D01*
X114039800Y-107139065D01*
X113870000Y-107139065D01*
X113738816Y-107163749D01*
X113618331Y-107241279D01*
X113537502Y-107359576D01*
X113509065Y-107500000D01*
X113509065Y-107519800D01*
X112550935Y-107519800D01*
X112550935Y-107500000D01*
X112526251Y-107368816D01*
X112448721Y-107248331D01*
X112330424Y-107167502D01*
X112190000Y-107139065D01*
X110990000Y-107139065D01*
X110858816Y-107163749D01*
X110738331Y-107241279D01*
X110657502Y-107359576D01*
X110629065Y-107500000D01*
X110629065Y-108400000D01*
X110653749Y-108531184D01*
X110731279Y-108651669D01*
X110849576Y-108732498D01*
X110990000Y-108760935D01*
X112190000Y-108760935D01*
X112321184Y-108736251D01*
X112441669Y-108658721D01*
X112522498Y-108540424D01*
X112550935Y-108400000D01*
X112550935Y-108380200D01*
X113509065Y-108380200D01*
X113509065Y-108400000D01*
X113533749Y-108531184D01*
X113611279Y-108651669D01*
X113729576Y-108732498D01*
X113870000Y-108760935D01*
X115070000Y-108760935D01*
X115201184Y-108736251D01*
X115321669Y-108658721D01*
X115402498Y-108540424D01*
X115430935Y-108400000D01*
X115430935Y-107500000D01*
X115406251Y-107368816D01*
X115328721Y-107248331D01*
X115312430Y-107237200D01*
X115697000Y-107237200D01*
X115861631Y-107204453D01*
X116001197Y-107111197D01*
X116166000Y-106946394D01*
X116166000Y-107139065D01*
X116070000Y-107139065D01*
X115938816Y-107163749D01*
X115818331Y-107241279D01*
X115737502Y-107359576D01*
X115709065Y-107500000D01*
X115709065Y-108400000D01*
X115733749Y-108531184D01*
X115811279Y-108651669D01*
X115929576Y-108732498D01*
X116070000Y-108760935D01*
X116078301Y-108760935D01*
X115213618Y-109625618D01*
X115104365Y-109789127D01*
X115088455Y-109869113D01*
X115063816Y-109873749D01*
X114943331Y-109951279D01*
X114862502Y-110069576D01*
X114834065Y-110210000D01*
X114834065Y-111410000D01*
X114858749Y-111541184D01*
X114936279Y-111661669D01*
X115054576Y-111742498D01*
X115195000Y-111770935D01*
X115945000Y-111770935D01*
X116076184Y-111746251D01*
X116196669Y-111668721D01*
X116277498Y-111550424D01*
X116305935Y-111410000D01*
X116305935Y-111208108D01*
X116368382Y-111166382D01*
X116520764Y-111014000D01*
X117124065Y-111014000D01*
X117124065Y-111260000D01*
X117148749Y-111391184D01*
X117226279Y-111511669D01*
X117344576Y-111592498D01*
X117485000Y-111620935D01*
X118735000Y-111620935D01*
X118866184Y-111596251D01*
X118986669Y-111518721D01*
X119067498Y-111400424D01*
X119095935Y-111260000D01*
X119095935Y-111120829D01*
X119103127Y-111125635D01*
X119296000Y-111164000D01*
X119839065Y-111164000D01*
X119839065Y-111260000D01*
X119863749Y-111391184D01*
X119941279Y-111511669D01*
X120059576Y-111592498D01*
X120200000Y-111620935D01*
X121100000Y-111620935D01*
X121231184Y-111596251D01*
X121351669Y-111518721D01*
X121432498Y-111400424D01*
X121460935Y-111260000D01*
X121460935Y-110060000D01*
X121436251Y-109928816D01*
X121358721Y-109808331D01*
X121240424Y-109727502D01*
X121154000Y-109710000D01*
X121154000Y-107666282D01*
X121274549Y-107616472D01*
X121585380Y-107306182D01*
X121753808Y-106900563D01*
X121754192Y-106461364D01*
X121586472Y-106055451D01*
X121276182Y-105744620D01*
X120870563Y-105576192D01*
X120431364Y-105575808D01*
X120025451Y-105743528D01*
X119714620Y-106053818D01*
X119546192Y-106459437D01*
X119545808Y-106898636D01*
X119713528Y-107304549D01*
X120023818Y-107615380D01*
X120146000Y-107666114D01*
X120146000Y-109709226D01*
X120068816Y-109723749D01*
X119948331Y-109801279D01*
X119867502Y-109919576D01*
X119839065Y-110060000D01*
X119839065Y-110156000D01*
X119504764Y-110156000D01*
X119502382Y-110153618D01*
X119338873Y-110044365D01*
X119146000Y-110006000D01*
X119095935Y-110006000D01*
X119095935Y-109760000D01*
X119071251Y-109628816D01*
X118993721Y-109508331D01*
X118875424Y-109427502D01*
X118735000Y-109399065D01*
X117485000Y-109399065D01*
X117353816Y-109423749D01*
X117233331Y-109501279D01*
X117152502Y-109619576D01*
X117124065Y-109760000D01*
X117124065Y-110006000D01*
X116312000Y-110006000D01*
X116245545Y-110019219D01*
X117026382Y-109238382D01*
X117135635Y-109074873D01*
X117174000Y-108882000D01*
X117174000Y-108760935D01*
X117270000Y-108760935D01*
X117401184Y-108736251D01*
X117521669Y-108658721D01*
X117602498Y-108540424D01*
X117630935Y-108400000D01*
X117630935Y-107500000D01*
X117606251Y-107368816D01*
X117528721Y-107248331D01*
X117410424Y-107167502D01*
X117270000Y-107139065D01*
X117174000Y-107139065D01*
X117174000Y-106804764D01*
X117521382Y-106457382D01*
X117630635Y-106293872D01*
X117669000Y-106101000D01*
X117669000Y-105630935D01*
X117990000Y-105630935D01*
X118121184Y-105606251D01*
X118241669Y-105528721D01*
X118322498Y-105410424D01*
X118329874Y-105374000D01*
X118396000Y-105374000D01*
X118588873Y-105335635D01*
X118752382Y-105226382D01*
X119196382Y-104782382D01*
X119305635Y-104618872D01*
X119344000Y-104426000D01*
X119344000Y-104361366D01*
X119371184Y-104356251D01*
X119491669Y-104278721D01*
X119572498Y-104160424D01*
X119600935Y-104020000D01*
X119600935Y-103670000D01*
X119576251Y-103538816D01*
X119565022Y-103521366D01*
X119572498Y-103510424D01*
X119600935Y-103370000D01*
X119600935Y-103049000D01*
X121386236Y-103049000D01*
X124464000Y-106126764D01*
X124464000Y-109474000D01*
X124502365Y-109666873D01*
X124611618Y-109830382D01*
X124997618Y-110216382D01*
X125161128Y-110325635D01*
X125354000Y-110364000D01*
X126059065Y-110364000D01*
X126059065Y-111860000D01*
X126083749Y-111991184D01*
X126161279Y-112111669D01*
X126279576Y-112192498D01*
X126420000Y-112220935D01*
X130120000Y-112220935D01*
X130251184Y-112196251D01*
X130371669Y-112118721D01*
X130452498Y-112000424D01*
X130480935Y-111860000D01*
X130480935Y-107860000D01*
X130456251Y-107728816D01*
X130378721Y-107608331D01*
X130260424Y-107527502D01*
X130120000Y-107499065D01*
X126420000Y-107499065D01*
X126288816Y-107523749D01*
X126168331Y-107601279D01*
X126087502Y-107719576D01*
X126059065Y-107860000D01*
X126059065Y-109356000D01*
X125562764Y-109356000D01*
X125472000Y-109265236D01*
X125472000Y-105918000D01*
X125461458Y-105865000D01*
X125433635Y-105725127D01*
X125324382Y-105561618D01*
X121951382Y-102188618D01*
X121787873Y-102079365D01*
X121595000Y-102041000D01*
X119600935Y-102041000D01*
X119600935Y-101720000D01*
X119576251Y-101588816D01*
X119498721Y-101468331D01*
X119380424Y-101387502D01*
X119240000Y-101359065D01*
X118518767Y-101359065D01*
X118494328Y-101300064D01*
X118409937Y-101215672D01*
X118299674Y-101170000D01*
X118290000Y-101170000D01*
X118290000Y-100995000D01*
X118215000Y-100920000D01*
X117865000Y-100920000D01*
X117865000Y-100940000D01*
X117765000Y-100940000D01*
X117765000Y-100920000D01*
X117215000Y-100920000D01*
X117215000Y-100940000D01*
X117115000Y-100940000D01*
X117115000Y-100920000D01*
X116565000Y-100920000D01*
X116565000Y-100940000D01*
X116465000Y-100940000D01*
X116465000Y-100920000D01*
X116445000Y-100920000D01*
X116445000Y-100820000D01*
X116465000Y-100820000D01*
X116465000Y-100800000D01*
X116565000Y-100800000D01*
X116565000Y-100820000D01*
X117115000Y-100820000D01*
X117115000Y-100245000D01*
X117215000Y-100245000D01*
X117215000Y-100820000D01*
X117765000Y-100820000D01*
X117765000Y-100245000D01*
X117865000Y-100245000D01*
X117865000Y-100820000D01*
X118215000Y-100820000D01*
X118290000Y-100745000D01*
X118290000Y-100410326D01*
X118244328Y-100300063D01*
X118159936Y-100215672D01*
X118049673Y-100170000D01*
X117940000Y-100170000D01*
X117865000Y-100245000D01*
X117765000Y-100245000D01*
X117690000Y-100170000D01*
X117580327Y-100170000D01*
X117490000Y-100207414D01*
X117399673Y-100170000D01*
X117290000Y-100170000D01*
X117215000Y-100245000D01*
X117115000Y-100245000D01*
X117040000Y-100170000D01*
X116930327Y-100170000D01*
X116840000Y-100207414D01*
X116749673Y-100170000D01*
X116696764Y-100170000D01*
X117414750Y-99452014D01*
X122365979Y-99452014D01*
X122471853Y-99708246D01*
X122667722Y-99904459D01*
X122923770Y-100010779D01*
X123201014Y-100011021D01*
X123457246Y-99905147D01*
X123653459Y-99709278D01*
X123759779Y-99453230D01*
X123760021Y-99175986D01*
X123654147Y-98919754D01*
X123620200Y-98885747D01*
X123620200Y-98580935D01*
X123640000Y-98580935D01*
X123771184Y-98556251D01*
X123891669Y-98478721D01*
X123972498Y-98360424D01*
X124000935Y-98220000D01*
X124000935Y-97020000D01*
X123976251Y-96888816D01*
X123898721Y-96768331D01*
X123780424Y-96687502D01*
X123640000Y-96659065D01*
X122740000Y-96659065D01*
X122608816Y-96683749D01*
X122488331Y-96761279D01*
X122407502Y-96879576D01*
X122379065Y-97020000D01*
X122379065Y-98220000D01*
X122403749Y-98351184D01*
X122481279Y-98471669D01*
X122599576Y-98552498D01*
X122740000Y-98580935D01*
X122759800Y-98580935D01*
X122759800Y-98685233D01*
X122668754Y-98722853D01*
X122472541Y-98918722D01*
X122366221Y-99174770D01*
X122365979Y-99452014D01*
X117414750Y-99452014D01*
X117516382Y-99350382D01*
X117625635Y-99186872D01*
X117664001Y-98994000D01*
X117664000Y-98993995D01*
X117664000Y-98525935D01*
X117760000Y-98525935D01*
X117891184Y-98501251D01*
X118011669Y-98423721D01*
X118092498Y-98305424D01*
X118120935Y-98165000D01*
X118120935Y-97915000D01*
X118160000Y-97915000D01*
X118160000Y-98224673D01*
X118205672Y-98334936D01*
X118290063Y-98419328D01*
X118400326Y-98465000D01*
X118935000Y-98465000D01*
X119010000Y-98390000D01*
X119010000Y-97840000D01*
X119110000Y-97840000D01*
X119110000Y-98390000D01*
X119185000Y-98465000D01*
X119719674Y-98465000D01*
X119829937Y-98419328D01*
X119914328Y-98334936D01*
X119960000Y-98224673D01*
X119960000Y-97915000D01*
X119885000Y-97840000D01*
X119110000Y-97840000D01*
X119010000Y-97840000D01*
X118235000Y-97840000D01*
X118160000Y-97915000D01*
X118120935Y-97915000D01*
X118120935Y-97415000D01*
X118109707Y-97355327D01*
X118160000Y-97355327D01*
X118160000Y-97665000D01*
X118235000Y-97740000D01*
X119010000Y-97740000D01*
X119010000Y-97190000D01*
X119110000Y-97190000D01*
X119110000Y-97740000D01*
X119885000Y-97740000D01*
X119960000Y-97665000D01*
X119960000Y-97355327D01*
X119914328Y-97245064D01*
X119829937Y-97160672D01*
X119719674Y-97115000D01*
X119185000Y-97115000D01*
X119110000Y-97190000D01*
X119010000Y-97190000D01*
X118935000Y-97115000D01*
X118400326Y-97115000D01*
X118290063Y-97160672D01*
X118205672Y-97245064D01*
X118160000Y-97355327D01*
X118109707Y-97355327D01*
X118096251Y-97283816D01*
X118018721Y-97163331D01*
X117900424Y-97082502D01*
X117760000Y-97054065D01*
X117664000Y-97054065D01*
X117664000Y-96493935D01*
X117760000Y-96493935D01*
X117891184Y-96469251D01*
X118011669Y-96391721D01*
X118092498Y-96273424D01*
X118120935Y-96133000D01*
X118120935Y-95883000D01*
X118160000Y-95883000D01*
X118160000Y-96192673D01*
X118205672Y-96302936D01*
X118290063Y-96387328D01*
X118400326Y-96433000D01*
X118935000Y-96433000D01*
X119010000Y-96358000D01*
X119010000Y-95808000D01*
X119110000Y-95808000D01*
X119110000Y-96358000D01*
X119185000Y-96433000D01*
X119719674Y-96433000D01*
X119829937Y-96387328D01*
X119914328Y-96302936D01*
X119960000Y-96192673D01*
X119960000Y-95883000D01*
X119885000Y-95808000D01*
X119110000Y-95808000D01*
X119010000Y-95808000D01*
X118235000Y-95808000D01*
X118160000Y-95883000D01*
X118120935Y-95883000D01*
X118120935Y-95383000D01*
X118109707Y-95323327D01*
X118160000Y-95323327D01*
X118160000Y-95633000D01*
X118235000Y-95708000D01*
X119010000Y-95708000D01*
X119010000Y-95158000D01*
X119110000Y-95158000D01*
X119110000Y-95708000D01*
X119885000Y-95708000D01*
X119960000Y-95633000D01*
X119960000Y-95323327D01*
X119914328Y-95213064D01*
X119829937Y-95128672D01*
X119719674Y-95083000D01*
X119185000Y-95083000D01*
X119110000Y-95158000D01*
X119010000Y-95158000D01*
X118935000Y-95083000D01*
X118400326Y-95083000D01*
X118290063Y-95128672D01*
X118205672Y-95213064D01*
X118160000Y-95323327D01*
X118109707Y-95323327D01*
X118096251Y-95251816D01*
X118018721Y-95131331D01*
X117900424Y-95050502D01*
X117760000Y-95022065D01*
X117664000Y-95022065D01*
X117664000Y-94884764D01*
X117810764Y-94738000D01*
X122395671Y-94738000D01*
X122379065Y-94820000D01*
X122379065Y-96020000D01*
X122403749Y-96151184D01*
X122481279Y-96271669D01*
X122599576Y-96352498D01*
X122740000Y-96380935D01*
X123640000Y-96380935D01*
X123771184Y-96356251D01*
X123891669Y-96278721D01*
X123972498Y-96160424D01*
X124000935Y-96020000D01*
X124000935Y-95754000D01*
X126013718Y-95754000D01*
X126063528Y-95874549D01*
X126373818Y-96185380D01*
X126779437Y-96353808D01*
X127218636Y-96354192D01*
X127340907Y-96303671D01*
X127938236Y-96901000D01*
X127913618Y-96925618D01*
X127804365Y-97089127D01*
X127804365Y-97089128D01*
X127766000Y-97282000D01*
X127766000Y-98599065D01*
X126420000Y-98599065D01*
X126288816Y-98623749D01*
X126168331Y-98701279D01*
X126087502Y-98819576D01*
X126059065Y-98960000D01*
X126059065Y-102960000D01*
X126083749Y-103091184D01*
X126161279Y-103211669D01*
X126279576Y-103292498D01*
X126420000Y-103320935D01*
X130120000Y-103320935D01*
X130251184Y-103296251D01*
X130371669Y-103218721D01*
X130452498Y-103100424D01*
X130480935Y-102960000D01*
X130480935Y-98960000D01*
X130456251Y-98828816D01*
X130378721Y-98708331D01*
X130260424Y-98627502D01*
X130120000Y-98599065D01*
X128774000Y-98599065D01*
X128774000Y-97490764D01*
X129240764Y-97024000D01*
X129769065Y-97024000D01*
X129769065Y-97070000D01*
X129793749Y-97201184D01*
X129871279Y-97321669D01*
X129989576Y-97402498D01*
X130130000Y-97430935D01*
X131230000Y-97430935D01*
X131361184Y-97406251D01*
X131481669Y-97328721D01*
X131562498Y-97210424D01*
X131590935Y-97070000D01*
X131590935Y-95970000D01*
X131566251Y-95838816D01*
X131488721Y-95718331D01*
X131370424Y-95637502D01*
X131230000Y-95609065D01*
X130130000Y-95609065D01*
X129998816Y-95633749D01*
X129878331Y-95711279D01*
X129797502Y-95829576D01*
X129769065Y-95970000D01*
X129769065Y-96016000D01*
X129032000Y-96016000D01*
X128839127Y-96054365D01*
X128675618Y-96163618D01*
X128651000Y-96188236D01*
X128053788Y-95591024D01*
X128103808Y-95470563D01*
X128104192Y-95031364D01*
X127936472Y-94625451D01*
X127626182Y-94314620D01*
X127504000Y-94263886D01*
X127504000Y-93934764D01*
X128178764Y-93260000D01*
X130269065Y-93260000D01*
X130269065Y-94060000D01*
X130293749Y-94191184D01*
X130371279Y-94311669D01*
X130489576Y-94392498D01*
X130630000Y-94420935D01*
X131530000Y-94420935D01*
X131661184Y-94396251D01*
X131735601Y-94348365D01*
X132976000Y-95588764D01*
X132976000Y-95609065D01*
X132930000Y-95609065D01*
X132798816Y-95633749D01*
X132678331Y-95711279D01*
X132597502Y-95829576D01*
X132569065Y-95970000D01*
X132569065Y-97070000D01*
X132593749Y-97201184D01*
X132671279Y-97321669D01*
X132789576Y-97402498D01*
X132930000Y-97430935D01*
X134030000Y-97430935D01*
X134161184Y-97406251D01*
X134281669Y-97328721D01*
X134362498Y-97210424D01*
X134390935Y-97070000D01*
X134390935Y-95970000D01*
X134366251Y-95838816D01*
X134288721Y-95718331D01*
X134170424Y-95637502D01*
X134030000Y-95609065D01*
X133984000Y-95609065D01*
X133984000Y-95380000D01*
X133958937Y-95254000D01*
X133945635Y-95187127D01*
X133836382Y-95023618D01*
X132116382Y-93303618D01*
X131952873Y-93194365D01*
X131875696Y-93179014D01*
X131866251Y-93128816D01*
X131788721Y-93008331D01*
X131670424Y-92927502D01*
X131530000Y-92899065D01*
X130630000Y-92899065D01*
X130498816Y-92923749D01*
X130378331Y-93001279D01*
X130297502Y-93119576D01*
X130269065Y-93260000D01*
X128178764Y-93260000D01*
X128626382Y-92812382D01*
X128735635Y-92648873D01*
X128774000Y-92456000D01*
X128774000Y-91885000D01*
X130330000Y-91885000D01*
X130330000Y-92219673D01*
X130375672Y-92329936D01*
X130460063Y-92414328D01*
X130570326Y-92460000D01*
X130955000Y-92460000D01*
X131030000Y-92385000D01*
X131030000Y-91810000D01*
X131130000Y-91810000D01*
X131130000Y-92385000D01*
X131205000Y-92460000D01*
X131589674Y-92460000D01*
X131699937Y-92414328D01*
X131784328Y-92329936D01*
X131830000Y-92219673D01*
X131830000Y-91885000D01*
X131755000Y-91810000D01*
X131130000Y-91810000D01*
X131030000Y-91810000D01*
X130405000Y-91810000D01*
X130330000Y-91885000D01*
X128774000Y-91885000D01*
X128774000Y-91560935D01*
X129520000Y-91560935D01*
X129651184Y-91536251D01*
X129771669Y-91458721D01*
X129852498Y-91340424D01*
X129860617Y-91300327D01*
X130330000Y-91300327D01*
X130330000Y-91635000D01*
X130405000Y-91710000D01*
X131030000Y-91710000D01*
X131030000Y-91135000D01*
X131130000Y-91135000D01*
X131130000Y-91710000D01*
X131755000Y-91710000D01*
X131830000Y-91635000D01*
X131830000Y-91300327D01*
X131784328Y-91190064D01*
X131699937Y-91105672D01*
X131589674Y-91060000D01*
X131205000Y-91060000D01*
X131130000Y-91135000D01*
X131030000Y-91135000D01*
X130955000Y-91060000D01*
X130570326Y-91060000D01*
X130460063Y-91105672D01*
X130375672Y-91190064D01*
X130330000Y-91300327D01*
X129860617Y-91300327D01*
X129880935Y-91200000D01*
X129880935Y-90000000D01*
X129856251Y-89868816D01*
X129778721Y-89748331D01*
X129660424Y-89667502D01*
X129520000Y-89639065D01*
X127020000Y-89639065D01*
X126888816Y-89663749D01*
X126768331Y-89741279D01*
X126687502Y-89859576D01*
X126659065Y-90000000D01*
X126659065Y-90096000D01*
X126114764Y-90096000D01*
X125832382Y-89813618D01*
X125668873Y-89704365D01*
X125476000Y-89666000D01*
X125328935Y-89666000D01*
X125328935Y-88392000D01*
X131868412Y-88392000D01*
X131960061Y-88852751D01*
X132221055Y-89243357D01*
X132576000Y-89480523D01*
X132576000Y-91959226D01*
X132498816Y-91973749D01*
X132378331Y-92051279D01*
X132297502Y-92169576D01*
X132269065Y-92310000D01*
X132269065Y-93110000D01*
X132293749Y-93241184D01*
X132371279Y-93361669D01*
X132489576Y-93442498D01*
X132630000Y-93470935D01*
X133530000Y-93470935D01*
X133661184Y-93446251D01*
X133781669Y-93368721D01*
X133862498Y-93250424D01*
X133890935Y-93110000D01*
X133890935Y-92310000D01*
X133866251Y-92178816D01*
X133788721Y-92058331D01*
X133670424Y-91977502D01*
X133584000Y-91960000D01*
X133584000Y-89501905D01*
X133970945Y-89243357D01*
X134231939Y-88852751D01*
X134323588Y-88392000D01*
X134231939Y-87931249D01*
X133970945Y-87540643D01*
X133580339Y-87279649D01*
X133119588Y-87188000D01*
X133072412Y-87188000D01*
X132611661Y-87279649D01*
X132221055Y-87540643D01*
X131960061Y-87931249D01*
X131868412Y-88392000D01*
X125328935Y-88392000D01*
X125328935Y-87325000D01*
X126720000Y-87325000D01*
X126720000Y-87859674D01*
X126765672Y-87969937D01*
X126850064Y-88054328D01*
X126960327Y-88100000D01*
X128145000Y-88100000D01*
X128220000Y-88025000D01*
X128220000Y-87250000D01*
X128320000Y-87250000D01*
X128320000Y-88025000D01*
X128395000Y-88100000D01*
X129579673Y-88100000D01*
X129689936Y-88054328D01*
X129774328Y-87969937D01*
X129820000Y-87859674D01*
X129820000Y-87325000D01*
X129745000Y-87250000D01*
X128320000Y-87250000D01*
X128220000Y-87250000D01*
X126795000Y-87250000D01*
X126720000Y-87325000D01*
X125328935Y-87325000D01*
X125328935Y-87122000D01*
X125304251Y-86990816D01*
X125226721Y-86870331D01*
X125108424Y-86789502D01*
X124968000Y-86761065D01*
X118872000Y-86761065D01*
X118740816Y-86785749D01*
X118620331Y-86863279D01*
X118539502Y-86981576D01*
X118511065Y-87122000D01*
X118511065Y-93218000D01*
X118535749Y-93349184D01*
X118613279Y-93469669D01*
X118731576Y-93550498D01*
X118872000Y-93578935D01*
X124968000Y-93578935D01*
X125099184Y-93554251D01*
X125219669Y-93476721D01*
X125300498Y-93358424D01*
X125328935Y-93218000D01*
X125328935Y-90735699D01*
X125549618Y-90956382D01*
X125713128Y-91065635D01*
X125906000Y-91104000D01*
X126659065Y-91104000D01*
X126659065Y-91200000D01*
X126683749Y-91331184D01*
X126761279Y-91451669D01*
X126879576Y-91532498D01*
X127020000Y-91560935D01*
X127766000Y-91560935D01*
X127766000Y-92247236D01*
X126643618Y-93369618D01*
X126534365Y-93533127D01*
X126534365Y-93533128D01*
X126496000Y-93726000D01*
X126496000Y-94263718D01*
X126375451Y-94313528D01*
X126064620Y-94623818D01*
X126013886Y-94746000D01*
X123987011Y-94746000D01*
X123976251Y-94688816D01*
X123898721Y-94568331D01*
X123780424Y-94487502D01*
X123640000Y-94459065D01*
X123595457Y-94459065D01*
X123546382Y-94385618D01*
X123546379Y-94385616D01*
X123038382Y-93877618D01*
X122874873Y-93768365D01*
X122682000Y-93730000D01*
X117602000Y-93730000D01*
X117409128Y-93768365D01*
X117282653Y-93852872D01*
X117245618Y-93877618D01*
X116803618Y-94319618D01*
X116694365Y-94483127D01*
X116693495Y-94487502D01*
X116656000Y-94676000D01*
X116656000Y-95022065D01*
X116560000Y-95022065D01*
X116428816Y-95046749D01*
X116308331Y-95124279D01*
X116227502Y-95242576D01*
X116199065Y-95383000D01*
X116199065Y-96133000D01*
X116223749Y-96264184D01*
X116301279Y-96384669D01*
X116419576Y-96465498D01*
X116560000Y-96493935D01*
X116656000Y-96493935D01*
X116656000Y-97054065D01*
X116560000Y-97054065D01*
X116428816Y-97078749D01*
X116308331Y-97156279D01*
X116227502Y-97274576D01*
X116199065Y-97415000D01*
X116199065Y-98165000D01*
X116223749Y-98296184D01*
X116301279Y-98416669D01*
X116419576Y-98497498D01*
X116560000Y-98525935D01*
X116656000Y-98525935D01*
X116656000Y-98785236D01*
X115508618Y-99932618D01*
X115399365Y-100096127D01*
X115384671Y-100170000D01*
X115361000Y-100289000D01*
X115361000Y-100324457D01*
X115357502Y-100329576D01*
X115350126Y-100366000D01*
X114032764Y-100366000D01*
X113810382Y-100143618D01*
X113646873Y-100034365D01*
X113454000Y-99996000D01*
X112570935Y-99996000D01*
X112570935Y-99900000D01*
X112546251Y-99768816D01*
X112468721Y-99648331D01*
X112350424Y-99567502D01*
X112210000Y-99539065D01*
X111310000Y-99539065D01*
X111178816Y-99563749D01*
X111058331Y-99641279D01*
X110977502Y-99759576D01*
X110949065Y-99900000D01*
X110949065Y-100829510D01*
X110921197Y-100787802D01*
X110329197Y-100195803D01*
X110189631Y-100102547D01*
X110030935Y-100070981D01*
X110030935Y-99900000D01*
X110006251Y-99768816D01*
X109928721Y-99648331D01*
X109810424Y-99567502D01*
X109670000Y-99539065D01*
X108770000Y-99539065D01*
X108638816Y-99563749D01*
X108518331Y-99641279D01*
X108437502Y-99759576D01*
X108409065Y-99900000D01*
X106930000Y-99900000D01*
X106930000Y-98252764D01*
X110846382Y-94336382D01*
X110955635Y-94172873D01*
X110994000Y-93980000D01*
X110994000Y-93490774D01*
X111071184Y-93476251D01*
X111191669Y-93398721D01*
X111272498Y-93280424D01*
X111300935Y-93140000D01*
X111300935Y-91940000D01*
X111276251Y-91808816D01*
X111198721Y-91688331D01*
X111080424Y-91607502D01*
X110940000Y-91579065D01*
X110040000Y-91579065D01*
X109908816Y-91603749D01*
X109788331Y-91681279D01*
X109707502Y-91799576D01*
X109679065Y-91940000D01*
X109679065Y-93140000D01*
X109703749Y-93271184D01*
X109781279Y-93391669D01*
X109899576Y-93472498D01*
X109986000Y-93490000D01*
X109986000Y-93771236D01*
X106069618Y-97687618D01*
X105960365Y-97851127D01*
X105960365Y-97851128D01*
X105922000Y-98044000D01*
X105922000Y-100883236D01*
X104469236Y-102336000D01*
X103867132Y-102336000D01*
X103861864Y-102332400D01*
X103934328Y-102259937D01*
X103980000Y-102149674D01*
X103980000Y-101165000D01*
X103905000Y-101090000D01*
X102730000Y-101090000D01*
X102730000Y-101110000D01*
X102630000Y-101110000D01*
X102630000Y-101090000D01*
X102610000Y-101090000D01*
X102610000Y-100990000D01*
X102630000Y-100990000D01*
X102630000Y-99765000D01*
X102730000Y-99765000D01*
X102730000Y-100990000D01*
X103905000Y-100990000D01*
X103980000Y-100915000D01*
X103980000Y-99930326D01*
X103934328Y-99820063D01*
X103849936Y-99735672D01*
X103739673Y-99690000D01*
X102805000Y-99690000D01*
X102730000Y-99765000D01*
X102630000Y-99765000D01*
X102555000Y-99690000D01*
X101640935Y-99690000D01*
X101640935Y-99490000D01*
X101616251Y-99358816D01*
X101538721Y-99238331D01*
X101420424Y-99157502D01*
X101280000Y-99129065D01*
X99414000Y-99129065D01*
X99414000Y-94105000D01*
X102570000Y-94105000D01*
X102570000Y-95309674D01*
X102615672Y-95419937D01*
X102700064Y-95504328D01*
X102810327Y-95550000D01*
X104015000Y-95550000D01*
X104090000Y-95475000D01*
X104090000Y-94030000D01*
X104190000Y-94030000D01*
X104190000Y-95475000D01*
X104265000Y-95550000D01*
X105469673Y-95550000D01*
X105579936Y-95504328D01*
X105664328Y-95419937D01*
X105710000Y-95309674D01*
X105710000Y-94105000D01*
X105635000Y-94030000D01*
X104190000Y-94030000D01*
X104090000Y-94030000D01*
X102645000Y-94030000D01*
X102570000Y-94105000D01*
X99414000Y-94105000D01*
X99414000Y-92650326D01*
X102570000Y-92650326D01*
X102570000Y-93855000D01*
X102645000Y-93930000D01*
X104090000Y-93930000D01*
X104090000Y-92485000D01*
X104190000Y-92485000D01*
X104190000Y-93930000D01*
X105635000Y-93930000D01*
X105710000Y-93855000D01*
X105710000Y-92650326D01*
X105664328Y-92540063D01*
X105579936Y-92455672D01*
X105469673Y-92410000D01*
X104265000Y-92410000D01*
X104190000Y-92485000D01*
X104090000Y-92485000D01*
X104015000Y-92410000D01*
X102810327Y-92410000D01*
X102700064Y-92455672D01*
X102615672Y-92540063D01*
X102570000Y-92650326D01*
X99414000Y-92650326D01*
X99414000Y-89221616D01*
X102515719Y-89221616D01*
X102762437Y-89818720D01*
X103218877Y-90275957D01*
X103815549Y-90523717D01*
X104461616Y-90524281D01*
X105058720Y-90277563D01*
X105515957Y-89821123D01*
X105549642Y-89740000D01*
X109679065Y-89740000D01*
X109679065Y-90940000D01*
X109703749Y-91071184D01*
X109781279Y-91191669D01*
X109899576Y-91272498D01*
X110040000Y-91300935D01*
X110940000Y-91300935D01*
X111071184Y-91276251D01*
X111191669Y-91198721D01*
X111272498Y-91080424D01*
X111300935Y-90940000D01*
X111300935Y-90844000D01*
X111467236Y-90844000D01*
X112526000Y-91902764D01*
X112526000Y-92993718D01*
X112405451Y-93043528D01*
X112094620Y-93353818D01*
X111926192Y-93759437D01*
X111925808Y-94198636D01*
X112093528Y-94604549D01*
X112403818Y-94915380D01*
X112809437Y-95083808D01*
X113248636Y-95084192D01*
X113654549Y-94916472D01*
X113965380Y-94606182D01*
X114133808Y-94200563D01*
X114134192Y-93761364D01*
X113966472Y-93355451D01*
X113656182Y-93044620D01*
X113534000Y-92993886D01*
X113534000Y-92074000D01*
X114659065Y-92074000D01*
X114659065Y-92120000D01*
X114683749Y-92251184D01*
X114761279Y-92371669D01*
X114879576Y-92452498D01*
X115020000Y-92480935D01*
X116120000Y-92480935D01*
X116251184Y-92456251D01*
X116371669Y-92378721D01*
X116452498Y-92260424D01*
X116480935Y-92120000D01*
X116480935Y-91020000D01*
X116456251Y-90888816D01*
X116378721Y-90768331D01*
X116260424Y-90687502D01*
X116120000Y-90659065D01*
X115020000Y-90659065D01*
X114888816Y-90683749D01*
X114768331Y-90761279D01*
X114687502Y-90879576D01*
X114659065Y-91020000D01*
X114659065Y-91066000D01*
X113154000Y-91066000D01*
X113121274Y-91072510D01*
X112032382Y-89983618D01*
X111868873Y-89874365D01*
X111676000Y-89836000D01*
X111300935Y-89836000D01*
X111300935Y-89740000D01*
X111276251Y-89608816D01*
X111198721Y-89488331D01*
X111080424Y-89407502D01*
X110940000Y-89379065D01*
X110040000Y-89379065D01*
X109908816Y-89403749D01*
X109788331Y-89481279D01*
X109707502Y-89599576D01*
X109679065Y-89740000D01*
X105549642Y-89740000D01*
X105744343Y-89271108D01*
X105766382Y-89256382D01*
X107036382Y-87986382D01*
X107145635Y-87822873D01*
X107184000Y-87630000D01*
X107184000Y-85298764D01*
X107537764Y-84945000D01*
X108840000Y-84945000D01*
X108840000Y-85329674D01*
X108885672Y-85439937D01*
X108970064Y-85524328D01*
X109080327Y-85570000D01*
X109415000Y-85570000D01*
X109490000Y-85495000D01*
X109490000Y-84870000D01*
X109590000Y-84870000D01*
X109590000Y-85495000D01*
X109665000Y-85570000D01*
X109999673Y-85570000D01*
X110109936Y-85524328D01*
X110194328Y-85439937D01*
X110240000Y-85329674D01*
X110240000Y-84945000D01*
X110165000Y-84870000D01*
X109590000Y-84870000D01*
X109490000Y-84870000D01*
X108915000Y-84870000D01*
X108840000Y-84945000D01*
X107537764Y-84945000D01*
X108172438Y-84310326D01*
X108840000Y-84310326D01*
X108840000Y-84695000D01*
X108915000Y-84770000D01*
X109490000Y-84770000D01*
X109490000Y-84145000D01*
X109590000Y-84145000D01*
X109590000Y-84770000D01*
X110165000Y-84770000D01*
X110240000Y-84695000D01*
X110240000Y-84370000D01*
X110679065Y-84370000D01*
X110679065Y-85270000D01*
X110703749Y-85401184D01*
X110781279Y-85521669D01*
X110899576Y-85602498D01*
X110936000Y-85609874D01*
X110936000Y-86040000D01*
X110974365Y-86232873D01*
X111083618Y-86396382D01*
X111976212Y-87288976D01*
X111926192Y-87409437D01*
X111925808Y-87848636D01*
X112093528Y-88254549D01*
X112403818Y-88565380D01*
X112809437Y-88733808D01*
X113248636Y-88734192D01*
X113370907Y-88683671D01*
X113943618Y-89256382D01*
X114107127Y-89365635D01*
X114300000Y-89404000D01*
X114674871Y-89404000D01*
X114683749Y-89451184D01*
X114761279Y-89571669D01*
X114879576Y-89652498D01*
X115020000Y-89680935D01*
X116120000Y-89680935D01*
X116251184Y-89656251D01*
X116371669Y-89578721D01*
X116452498Y-89460424D01*
X116480935Y-89320000D01*
X116480935Y-88220000D01*
X116456251Y-88088816D01*
X116378721Y-87968331D01*
X116260424Y-87887502D01*
X116120000Y-87859065D01*
X116074000Y-87859065D01*
X116074000Y-86540326D01*
X126720000Y-86540326D01*
X126720000Y-87075000D01*
X126795000Y-87150000D01*
X128220000Y-87150000D01*
X128220000Y-86375000D01*
X128320000Y-86375000D01*
X128320000Y-87150000D01*
X129745000Y-87150000D01*
X129820000Y-87075000D01*
X129820000Y-86540326D01*
X129774328Y-86430063D01*
X129689936Y-86345672D01*
X129579673Y-86300000D01*
X128395000Y-86300000D01*
X128320000Y-86375000D01*
X128220000Y-86375000D01*
X128145000Y-86300000D01*
X126960327Y-86300000D01*
X126850064Y-86345672D01*
X126765672Y-86430063D01*
X126720000Y-86540326D01*
X116074000Y-86540326D01*
X116074000Y-86480935D01*
X116820000Y-86480935D01*
X116951184Y-86456251D01*
X117071669Y-86378721D01*
X117152498Y-86260424D01*
X117180935Y-86120000D01*
X117180935Y-85977000D01*
X131946000Y-85977000D01*
X131946000Y-86761673D01*
X131991672Y-86871936D01*
X132076063Y-86956328D01*
X132186326Y-87002000D01*
X132971000Y-87002000D01*
X133046000Y-86927000D01*
X133046000Y-85902000D01*
X133146000Y-85902000D01*
X133146000Y-86927000D01*
X133221000Y-87002000D01*
X134005674Y-87002000D01*
X134115937Y-86956328D01*
X134200328Y-86871936D01*
X134246000Y-86761673D01*
X134246000Y-85977000D01*
X134171000Y-85902000D01*
X133146000Y-85902000D01*
X133046000Y-85902000D01*
X132021000Y-85902000D01*
X131946000Y-85977000D01*
X117180935Y-85977000D01*
X117180935Y-85938821D01*
X117274382Y-85876382D01*
X117958382Y-85192382D01*
X118067635Y-85028873D01*
X118106000Y-84836000D01*
X118106000Y-84324000D01*
X118447565Y-84324000D01*
X118447565Y-85344000D01*
X118472249Y-85475184D01*
X118549779Y-85595669D01*
X118668076Y-85676498D01*
X118808500Y-85704935D01*
X120459500Y-85704935D01*
X120590684Y-85680251D01*
X120711169Y-85602721D01*
X120791998Y-85484424D01*
X120820435Y-85344000D01*
X120820435Y-83945000D01*
X123080500Y-83945000D01*
X123080500Y-85403673D01*
X123126172Y-85513936D01*
X123210563Y-85598328D01*
X123320826Y-85644000D01*
X124081000Y-85644000D01*
X124156000Y-85569000D01*
X124156000Y-83870000D01*
X124256000Y-83870000D01*
X124256000Y-85569000D01*
X124331000Y-85644000D01*
X125091174Y-85644000D01*
X125201437Y-85598328D01*
X125285828Y-85513936D01*
X125331500Y-85403673D01*
X125331500Y-83945000D01*
X125256500Y-83870000D01*
X124256000Y-83870000D01*
X124156000Y-83870000D01*
X123155500Y-83870000D01*
X123080500Y-83945000D01*
X120820435Y-83945000D01*
X120820435Y-83778185D01*
X126677592Y-83778185D01*
X127035212Y-84643692D01*
X127696825Y-85306461D01*
X128561706Y-85665591D01*
X129498185Y-85666408D01*
X130363692Y-85308788D01*
X130730793Y-84942327D01*
X131946000Y-84942327D01*
X131946000Y-85727000D01*
X132021000Y-85802000D01*
X133046000Y-85802000D01*
X133046000Y-84777000D01*
X133146000Y-84777000D01*
X133146000Y-85802000D01*
X134171000Y-85802000D01*
X134246000Y-85727000D01*
X134246000Y-84942327D01*
X134200328Y-84832064D01*
X134115937Y-84747672D01*
X134005674Y-84702000D01*
X133221000Y-84702000D01*
X133146000Y-84777000D01*
X133046000Y-84777000D01*
X132971000Y-84702000D01*
X132186326Y-84702000D01*
X132076063Y-84747672D01*
X131991672Y-84832064D01*
X131946000Y-84942327D01*
X130730793Y-84942327D01*
X131026461Y-84647175D01*
X131385591Y-83782294D01*
X131386408Y-82845815D01*
X131028788Y-81980308D01*
X130367175Y-81317539D01*
X129502294Y-80958409D01*
X128565815Y-80957592D01*
X127700308Y-81315212D01*
X127037539Y-81976825D01*
X126678409Y-82841706D01*
X126677592Y-83778185D01*
X120820435Y-83778185D01*
X120820435Y-82296000D01*
X120809207Y-82236327D01*
X123080500Y-82236327D01*
X123080500Y-83695000D01*
X123155500Y-83770000D01*
X124156000Y-83770000D01*
X124156000Y-82071000D01*
X124256000Y-82071000D01*
X124256000Y-83770000D01*
X125256500Y-83770000D01*
X125331500Y-83695000D01*
X125331500Y-82236327D01*
X125285828Y-82126064D01*
X125201437Y-82041672D01*
X125091174Y-81996000D01*
X124331000Y-81996000D01*
X124256000Y-82071000D01*
X124156000Y-82071000D01*
X124081000Y-81996000D01*
X123320826Y-81996000D01*
X123210563Y-82041672D01*
X123126172Y-82126064D01*
X123080500Y-82236327D01*
X120809207Y-82236327D01*
X120795751Y-82164816D01*
X120718221Y-82044331D01*
X120599924Y-81963502D01*
X120459500Y-81935065D01*
X118808500Y-81935065D01*
X118677316Y-81959749D01*
X118556831Y-82037279D01*
X118476002Y-82155576D01*
X118447565Y-82296000D01*
X118447565Y-83316000D01*
X117856000Y-83316000D01*
X117663127Y-83354365D01*
X117499618Y-83463618D01*
X117245618Y-83717618D01*
X117136365Y-83881127D01*
X117110159Y-84012872D01*
X117098000Y-84074000D01*
X117098000Y-84627236D01*
X117065761Y-84659475D01*
X116960424Y-84587502D01*
X116820000Y-84559065D01*
X114320000Y-84559065D01*
X114188816Y-84583749D01*
X114068331Y-84661279D01*
X113987502Y-84779576D01*
X113959065Y-84920000D01*
X113959065Y-86120000D01*
X113983749Y-86251184D01*
X114061279Y-86371669D01*
X114179576Y-86452498D01*
X114320000Y-86480935D01*
X115066000Y-86480935D01*
X115066000Y-87859065D01*
X115020000Y-87859065D01*
X114888816Y-87883749D01*
X114768331Y-87961279D01*
X114687502Y-88079576D01*
X114659065Y-88220000D01*
X114659065Y-88396000D01*
X114508764Y-88396000D01*
X114083788Y-87971024D01*
X114133808Y-87850563D01*
X114134192Y-87411364D01*
X113966472Y-87005451D01*
X113656182Y-86694620D01*
X113250563Y-86526192D01*
X112811364Y-86525808D01*
X112689093Y-86576329D01*
X111944000Y-85831236D01*
X111944000Y-85611366D01*
X111971184Y-85606251D01*
X112091669Y-85528721D01*
X112172498Y-85410424D01*
X112200935Y-85270000D01*
X112200935Y-84370000D01*
X112176251Y-84238816D01*
X112098721Y-84118331D01*
X111980424Y-84037502D01*
X111840000Y-84009065D01*
X111040000Y-84009065D01*
X110908816Y-84033749D01*
X110788331Y-84111279D01*
X110707502Y-84229576D01*
X110679065Y-84370000D01*
X110240000Y-84370000D01*
X110240000Y-84310326D01*
X110194328Y-84200063D01*
X110109936Y-84115672D01*
X109999673Y-84070000D01*
X109665000Y-84070000D01*
X109590000Y-84145000D01*
X109490000Y-84145000D01*
X109415000Y-84070000D01*
X109080327Y-84070000D01*
X108970064Y-84115672D01*
X108885672Y-84200063D01*
X108840000Y-84310326D01*
X108172438Y-84310326D01*
X109158764Y-83324000D01*
X109739226Y-83324000D01*
X109753749Y-83401184D01*
X109831279Y-83521669D01*
X109949576Y-83602498D01*
X110090000Y-83630935D01*
X110890000Y-83630935D01*
X111021184Y-83606251D01*
X111141669Y-83528721D01*
X111222498Y-83410424D01*
X111250935Y-83270000D01*
X111250935Y-82370000D01*
X111227415Y-82245000D01*
X114020000Y-82245000D01*
X114020000Y-82779674D01*
X114065672Y-82889937D01*
X114150064Y-82974328D01*
X114260327Y-83020000D01*
X115445000Y-83020000D01*
X115520000Y-82945000D01*
X115520000Y-82170000D01*
X115620000Y-82170000D01*
X115620000Y-82945000D01*
X115695000Y-83020000D01*
X116879673Y-83020000D01*
X116989936Y-82974328D01*
X117074328Y-82889937D01*
X117120000Y-82779674D01*
X117120000Y-82245000D01*
X117045000Y-82170000D01*
X115620000Y-82170000D01*
X115520000Y-82170000D01*
X114095000Y-82170000D01*
X114020000Y-82245000D01*
X111227415Y-82245000D01*
X111226251Y-82238816D01*
X111148721Y-82118331D01*
X111030424Y-82037502D01*
X110890000Y-82009065D01*
X110090000Y-82009065D01*
X109958816Y-82033749D01*
X109838331Y-82111279D01*
X109757502Y-82229576D01*
X109740000Y-82316000D01*
X108950000Y-82316000D01*
X108757128Y-82354365D01*
X108593618Y-82463618D01*
X106323618Y-84733618D01*
X106214365Y-84897127D01*
X106190720Y-85016000D01*
X106176000Y-85090000D01*
X106176000Y-87421236D01*
X105546331Y-88050905D01*
X105517563Y-87981280D01*
X105061123Y-87524043D01*
X104464451Y-87276283D01*
X103818384Y-87275719D01*
X103221280Y-87522437D01*
X102764043Y-87978877D01*
X102516283Y-88575549D01*
X102515719Y-89221616D01*
X99414000Y-89221616D01*
X99414000Y-83778185D01*
X100261592Y-83778185D01*
X100619212Y-84643692D01*
X101280825Y-85306461D01*
X102145706Y-85665591D01*
X103082185Y-85666408D01*
X103947692Y-85308788D01*
X104610461Y-84647175D01*
X104969591Y-83782294D01*
X104970408Y-82845815D01*
X104612788Y-81980308D01*
X104093713Y-81460326D01*
X114020000Y-81460326D01*
X114020000Y-81995000D01*
X114095000Y-82070000D01*
X115520000Y-82070000D01*
X115520000Y-81295000D01*
X115620000Y-81295000D01*
X115620000Y-82070000D01*
X117045000Y-82070000D01*
X117120000Y-81995000D01*
X117120000Y-81460326D01*
X117074328Y-81350063D01*
X116989936Y-81265672D01*
X116879673Y-81220000D01*
X115695000Y-81220000D01*
X115620000Y-81295000D01*
X115520000Y-81295000D01*
X115445000Y-81220000D01*
X114260327Y-81220000D01*
X114150064Y-81265672D01*
X114065672Y-81350063D01*
X114020000Y-81460326D01*
X104093713Y-81460326D01*
X103951175Y-81317539D01*
X103086294Y-80958409D01*
X102149815Y-80957592D01*
X101284308Y-81315212D01*
X100621539Y-81976825D01*
X100262409Y-82841706D01*
X100261592Y-83778185D01*
X99414000Y-83778185D01*
X99414000Y-80364000D01*
X135536000Y-80364000D01*
X135536000Y-116486000D01*
X135536000Y-116486000D01*
G37*
X135536000Y-116486000D02*
X99414000Y-116486000D01*
X99414000Y-112226185D01*
X105595592Y-112226185D01*
X105953212Y-113091692D01*
X106614825Y-113754461D01*
X107479706Y-114113591D01*
X108416185Y-114114408D01*
X109281692Y-113756788D01*
X109944461Y-113095175D01*
X110052495Y-112835000D01*
X114895000Y-112835000D01*
X114895000Y-113369674D01*
X114940672Y-113479937D01*
X115025064Y-113564328D01*
X115135327Y-113610000D01*
X115445000Y-113610000D01*
X115520000Y-113535000D01*
X115520000Y-112760000D01*
X115620000Y-112760000D01*
X115620000Y-113535000D01*
X115695000Y-113610000D01*
X116004673Y-113610000D01*
X116114936Y-113564328D01*
X116199328Y-113479937D01*
X116245000Y-113369674D01*
X116245000Y-113135000D01*
X117185000Y-113135000D01*
X117185000Y-113819674D01*
X117230672Y-113929937D01*
X117315064Y-114014328D01*
X117425327Y-114060000D01*
X117985000Y-114060000D01*
X118060000Y-113985000D01*
X118060000Y-113060000D01*
X118160000Y-113060000D01*
X118160000Y-113985000D01*
X118235000Y-114060000D01*
X118794673Y-114060000D01*
X118904936Y-114014328D01*
X118989328Y-113929937D01*
X119035000Y-113819674D01*
X119035000Y-113135000D01*
X118960000Y-113060000D01*
X118160000Y-113060000D01*
X118060000Y-113060000D01*
X117260000Y-113060000D01*
X117185000Y-113135000D01*
X116245000Y-113135000D01*
X116245000Y-112835000D01*
X116170000Y-112760000D01*
X115620000Y-112760000D01*
X115520000Y-112760000D01*
X114970000Y-112760000D01*
X114895000Y-112835000D01*
X110052495Y-112835000D01*
X110303591Y-112230294D01*
X110303748Y-112050326D01*
X114895000Y-112050326D01*
X114895000Y-112585000D01*
X114970000Y-112660000D01*
X115520000Y-112660000D01*
X115520000Y-111885000D01*
X115620000Y-111885000D01*
X115620000Y-112660000D01*
X116170000Y-112660000D01*
X116245000Y-112585000D01*
X116245000Y-112200326D01*
X117185000Y-112200326D01*
X117185000Y-112885000D01*
X117260000Y-112960000D01*
X118060000Y-112960000D01*
X118060000Y-112035000D01*
X118160000Y-112035000D01*
X118160000Y-112960000D01*
X118960000Y-112960000D01*
X119035000Y-112885000D01*
X119035000Y-112260000D01*
X119839065Y-112260000D01*
X119839065Y-113460000D01*
X119863749Y-113591184D01*
X119941279Y-113711669D01*
X120059576Y-113792498D01*
X120200000Y-113820935D01*
X120331596Y-113820935D01*
X120345803Y-113842197D01*
X121107803Y-114604198D01*
X121247369Y-114697453D01*
X121412000Y-114730200D01*
X123951225Y-114730200D01*
X124031528Y-114924549D01*
X124341818Y-115235380D01*
X124747437Y-115403808D01*
X125186636Y-115404192D01*
X125592549Y-115236472D01*
X125903380Y-114926182D01*
X126071808Y-114520563D01*
X126072192Y-114081364D01*
X125904472Y-113675451D01*
X125594182Y-113364620D01*
X125188563Y-113196192D01*
X124749364Y-113195808D01*
X124343451Y-113363528D01*
X124032620Y-113673818D01*
X123951241Y-113869800D01*
X121590195Y-113869800D01*
X121387165Y-113666771D01*
X121432498Y-113600424D01*
X121460935Y-113460000D01*
X121460935Y-113290200D01*
X121709000Y-113290200D01*
X121873631Y-113257453D01*
X122013197Y-113164197D01*
X122085571Y-113091823D01*
X122312014Y-113092021D01*
X122568246Y-112986147D01*
X122764459Y-112790278D01*
X122870779Y-112534230D01*
X122871021Y-112256986D01*
X122765147Y-112000754D01*
X122569278Y-111804541D01*
X122313230Y-111698221D01*
X122035986Y-111697979D01*
X121779754Y-111803853D01*
X121583541Y-111999722D01*
X121477221Y-112255770D01*
X121477069Y-112429800D01*
X121460935Y-112429800D01*
X121460935Y-112260000D01*
X121436251Y-112128816D01*
X121358721Y-112008331D01*
X121240424Y-111927502D01*
X121100000Y-111899065D01*
X120200000Y-111899065D01*
X120068816Y-111923749D01*
X119948331Y-112001279D01*
X119867502Y-112119576D01*
X119839065Y-112260000D01*
X119035000Y-112260000D01*
X119035000Y-112200326D01*
X118989328Y-112090063D01*
X118904936Y-112005672D01*
X118794673Y-111960000D01*
X118235000Y-111960000D01*
X118160000Y-112035000D01*
X118060000Y-112035000D01*
X117985000Y-111960000D01*
X117425327Y-111960000D01*
X117315064Y-112005672D01*
X117230672Y-112090063D01*
X117185000Y-112200326D01*
X116245000Y-112200326D01*
X116245000Y-112050326D01*
X116199328Y-111940063D01*
X116114936Y-111855672D01*
X116004673Y-111810000D01*
X115695000Y-111810000D01*
X115620000Y-111885000D01*
X115520000Y-111885000D01*
X115445000Y-111810000D01*
X115135327Y-111810000D01*
X115025064Y-111855672D01*
X114940672Y-111940063D01*
X114895000Y-112050326D01*
X110303748Y-112050326D01*
X110304408Y-111293815D01*
X109946788Y-110428308D01*
X109285175Y-109765539D01*
X108420294Y-109406409D01*
X107483815Y-109405592D01*
X106618308Y-109763212D01*
X105955539Y-110424825D01*
X105596409Y-111289706D01*
X105595592Y-112226185D01*
X99414000Y-112226185D01*
X99414000Y-109150935D01*
X101280000Y-109150935D01*
X101411184Y-109126251D01*
X101531669Y-109048721D01*
X101612498Y-108930424D01*
X101640935Y-108790000D01*
X101640935Y-108590000D01*
X102555000Y-108590000D01*
X102630000Y-108515000D01*
X102630000Y-107290000D01*
X102730000Y-107290000D01*
X102730000Y-108515000D01*
X102805000Y-108590000D01*
X103739673Y-108590000D01*
X103849936Y-108544328D01*
X103934328Y-108459937D01*
X103980000Y-108349674D01*
X103980000Y-108075000D01*
X108490000Y-108075000D01*
X108490000Y-108459673D01*
X108535672Y-108569936D01*
X108620063Y-108654328D01*
X108730326Y-108700000D01*
X109265000Y-108700000D01*
X109340000Y-108625000D01*
X109340000Y-108000000D01*
X109440000Y-108000000D01*
X109440000Y-108625000D01*
X109515000Y-108700000D01*
X110049674Y-108700000D01*
X110159937Y-108654328D01*
X110244328Y-108569936D01*
X110290000Y-108459673D01*
X110290000Y-108075000D01*
X110215000Y-108000000D01*
X109440000Y-108000000D01*
X109340000Y-108000000D01*
X108565000Y-108000000D01*
X108490000Y-108075000D01*
X103980000Y-108075000D01*
X103980000Y-107440327D01*
X108490000Y-107440327D01*
X108490000Y-107825000D01*
X108565000Y-107900000D01*
X109340000Y-107900000D01*
X109340000Y-107275000D01*
X109440000Y-107275000D01*
X109440000Y-107900000D01*
X110215000Y-107900000D01*
X110290000Y-107825000D01*
X110290000Y-107440327D01*
X110244328Y-107330064D01*
X110159937Y-107245672D01*
X110049674Y-107200000D01*
X109515000Y-107200000D01*
X109440000Y-107275000D01*
X109340000Y-107275000D01*
X109265000Y-107200000D01*
X108730326Y-107200000D01*
X108620063Y-107245672D01*
X108535672Y-107330064D01*
X108490000Y-107440327D01*
X103980000Y-107440327D01*
X103980000Y-107365000D01*
X103905000Y-107290000D01*
X102730000Y-107290000D01*
X102630000Y-107290000D01*
X102610000Y-107290000D01*
X102610000Y-107190000D01*
X102630000Y-107190000D01*
X102630000Y-107170000D01*
X102730000Y-107170000D01*
X102730000Y-107190000D01*
X103905000Y-107190000D01*
X103980000Y-107115000D01*
X103980000Y-106130326D01*
X103934328Y-106020063D01*
X103849936Y-105935672D01*
X103802529Y-105916036D01*
X103854936Y-105894328D01*
X103939328Y-105809937D01*
X103985000Y-105699674D01*
X103985000Y-105565000D01*
X103910000Y-105490000D01*
X103060000Y-105490000D01*
X103060000Y-105510000D01*
X102960000Y-105510000D01*
X102960000Y-105490000D01*
X102110000Y-105490000D01*
X102035000Y-105565000D01*
X102035000Y-105699674D01*
X102080672Y-105809937D01*
X102160736Y-105890000D01*
X101620327Y-105890000D01*
X101510064Y-105935672D01*
X101425672Y-106020063D01*
X101380000Y-106130326D01*
X101380000Y-106849316D01*
X101280000Y-106829065D01*
X99414000Y-106829065D01*
X99414000Y-101450935D01*
X101280000Y-101450935D01*
X101380000Y-101432119D01*
X101380000Y-102149674D01*
X101425672Y-102259937D01*
X101510064Y-102344328D01*
X101620327Y-102390000D01*
X102077372Y-102390000D01*
X102002502Y-102499576D01*
X101974065Y-102640000D01*
X101974065Y-103040000D01*
X101998449Y-103169590D01*
X101974065Y-103290000D01*
X101974065Y-103690000D01*
X101998449Y-103819590D01*
X101974065Y-103940000D01*
X101974065Y-104340000D01*
X101998449Y-104469590D01*
X101974065Y-104590000D01*
X101974065Y-104990000D01*
X101998749Y-105121184D01*
X102035707Y-105178619D01*
X102035000Y-105180326D01*
X102035000Y-105315000D01*
X102110000Y-105390000D01*
X102960000Y-105390000D01*
X102960000Y-105370000D01*
X103060000Y-105370000D01*
X103060000Y-105390000D01*
X103910000Y-105390000D01*
X103985000Y-105315000D01*
X103985000Y-105180326D01*
X103984397Y-105178869D01*
X104017498Y-105130424D01*
X104045935Y-104990000D01*
X104045935Y-104590000D01*
X104021551Y-104460410D01*
X104045935Y-104340000D01*
X104045935Y-103940000D01*
X104021551Y-103810410D01*
X104045935Y-103690000D01*
X104045935Y-103344000D01*
X104678000Y-103344000D01*
X104870873Y-103305635D01*
X105034382Y-103196382D01*
X105405764Y-102825000D01*
X108470000Y-102825000D01*
X108470000Y-103359674D01*
X108515672Y-103469937D01*
X108600064Y-103554328D01*
X108710327Y-103600000D01*
X109095000Y-103600000D01*
X109170000Y-103525000D01*
X109170000Y-102750000D01*
X109270000Y-102750000D01*
X109270000Y-103525000D01*
X109345000Y-103600000D01*
X109729673Y-103600000D01*
X109839936Y-103554328D01*
X109924328Y-103469937D01*
X109970000Y-103359674D01*
X109970000Y-102825000D01*
X109895000Y-102750000D01*
X109270000Y-102750000D01*
X109170000Y-102750000D01*
X108545000Y-102750000D01*
X108470000Y-102825000D01*
X105405764Y-102825000D01*
X106190438Y-102040326D01*
X108470000Y-102040326D01*
X108470000Y-102575000D01*
X108545000Y-102650000D01*
X109170000Y-102650000D01*
X109170000Y-101875000D01*
X109270000Y-101875000D01*
X109270000Y-102650000D01*
X109895000Y-102650000D01*
X109970000Y-102575000D01*
X109970000Y-102040326D01*
X109924328Y-101930063D01*
X109839936Y-101845672D01*
X109729673Y-101800000D01*
X109345000Y-101800000D01*
X109270000Y-101875000D01*
X109170000Y-101875000D01*
X109095000Y-101800000D01*
X108710327Y-101800000D01*
X108600064Y-101845672D01*
X108515672Y-101930063D01*
X108470000Y-102040326D01*
X106190438Y-102040326D01*
X106782382Y-101448382D01*
X106891635Y-101284873D01*
X106930000Y-101092000D01*
X106930000Y-99900000D01*
X108409065Y-99900000D01*
X108409065Y-101100000D01*
X108433749Y-101231184D01*
X108511279Y-101351669D01*
X108629576Y-101432498D01*
X108770000Y-101460935D01*
X109670000Y-101460935D01*
X109801184Y-101436251D01*
X109921669Y-101358721D01*
X110002498Y-101240424D01*
X110028522Y-101111916D01*
X110186800Y-101270195D01*
X110186800Y-102616000D01*
X110219547Y-102780631D01*
X110312803Y-102920197D01*
X110396803Y-103004197D01*
X110536369Y-103097453D01*
X110701000Y-103130200D01*
X110949065Y-103130200D01*
X110949065Y-103300000D01*
X110973749Y-103431184D01*
X111051279Y-103551669D01*
X111169576Y-103632498D01*
X111310000Y-103660935D01*
X112210000Y-103660935D01*
X112341184Y-103636251D01*
X112461669Y-103558721D01*
X112542498Y-103440424D01*
X112570935Y-103300000D01*
X112570935Y-103130200D01*
X113327000Y-103130200D01*
X113491631Y-103097453D01*
X113631197Y-103004197D01*
X114177697Y-102457697D01*
X114215000Y-102495000D01*
X114790000Y-102495000D01*
X114790000Y-102475000D01*
X114890000Y-102475000D01*
X114890000Y-102495000D01*
X114910000Y-102495000D01*
X114910000Y-102595000D01*
X114890000Y-102595000D01*
X114890000Y-102615000D01*
X114790000Y-102615000D01*
X114790000Y-102595000D01*
X114215000Y-102595000D01*
X114140000Y-102670000D01*
X114140000Y-102779673D01*
X114141083Y-102782288D01*
X114064370Y-102797547D01*
X113924803Y-102890802D01*
X113233803Y-103581803D01*
X113140547Y-103721369D01*
X113140547Y-103721370D01*
X113107800Y-103886000D01*
X113107800Y-103965744D01*
X112947541Y-104125722D01*
X112841221Y-104381770D01*
X112840979Y-104659014D01*
X112946853Y-104915246D01*
X113142722Y-105111459D01*
X113398770Y-105217779D01*
X113676014Y-105218021D01*
X113932246Y-105112147D01*
X113989973Y-105054521D01*
X114089853Y-105296246D01*
X114285722Y-105492459D01*
X114541770Y-105598779D01*
X114819014Y-105599021D01*
X115075246Y-105493147D01*
X115271459Y-105297278D01*
X115377779Y-105041230D01*
X115377819Y-104995000D01*
X115390000Y-104995000D01*
X115390000Y-105329674D01*
X115435672Y-105439937D01*
X115520064Y-105524328D01*
X115630327Y-105570000D01*
X115740000Y-105570000D01*
X115815000Y-105495000D01*
X115815000Y-104920000D01*
X115465000Y-104920000D01*
X115390000Y-104995000D01*
X115377819Y-104995000D01*
X115378021Y-104763986D01*
X115280840Y-104528792D01*
X115380326Y-104570000D01*
X115390000Y-104570000D01*
X115390000Y-104745000D01*
X115465000Y-104820000D01*
X115815000Y-104820000D01*
X115815000Y-104800000D01*
X115915000Y-104800000D01*
X115915000Y-104820000D01*
X115935000Y-104820000D01*
X115935000Y-104920000D01*
X115915000Y-104920000D01*
X115915000Y-105495000D01*
X115990000Y-105570000D01*
X116084800Y-105570000D01*
X116084800Y-105810805D01*
X115518806Y-106376800D01*
X114681000Y-106376800D01*
X114543683Y-106404114D01*
X114516369Y-106409547D01*
X114376803Y-106502803D01*
X114165803Y-106713803D01*
X114072547Y-106853369D01*
X114071725Y-106857502D01*
X114039800Y-107018000D01*
X114039800Y-107139065D01*
X113870000Y-107139065D01*
X113738816Y-107163749D01*
X113618331Y-107241279D01*
X113537502Y-107359576D01*
X113509065Y-107500000D01*
X113509065Y-107519800D01*
X112550935Y-107519800D01*
X112550935Y-107500000D01*
X112526251Y-107368816D01*
X112448721Y-107248331D01*
X112330424Y-107167502D01*
X112190000Y-107139065D01*
X110990000Y-107139065D01*
X110858816Y-107163749D01*
X110738331Y-107241279D01*
X110657502Y-107359576D01*
X110629065Y-107500000D01*
X110629065Y-108400000D01*
X110653749Y-108531184D01*
X110731279Y-108651669D01*
X110849576Y-108732498D01*
X110990000Y-108760935D01*
X112190000Y-108760935D01*
X112321184Y-108736251D01*
X112441669Y-108658721D01*
X112522498Y-108540424D01*
X112550935Y-108400000D01*
X112550935Y-108380200D01*
X113509065Y-108380200D01*
X113509065Y-108400000D01*
X113533749Y-108531184D01*
X113611279Y-108651669D01*
X113729576Y-108732498D01*
X113870000Y-108760935D01*
X115070000Y-108760935D01*
X115201184Y-108736251D01*
X115321669Y-108658721D01*
X115402498Y-108540424D01*
X115430935Y-108400000D01*
X115430935Y-107500000D01*
X115406251Y-107368816D01*
X115328721Y-107248331D01*
X115312430Y-107237200D01*
X115697000Y-107237200D01*
X115861631Y-107204453D01*
X116001197Y-107111197D01*
X116166000Y-106946394D01*
X116166000Y-107139065D01*
X116070000Y-107139065D01*
X115938816Y-107163749D01*
X115818331Y-107241279D01*
X115737502Y-107359576D01*
X115709065Y-107500000D01*
X115709065Y-108400000D01*
X115733749Y-108531184D01*
X115811279Y-108651669D01*
X115929576Y-108732498D01*
X116070000Y-108760935D01*
X116078301Y-108760935D01*
X115213618Y-109625618D01*
X115104365Y-109789127D01*
X115088455Y-109869113D01*
X115063816Y-109873749D01*
X114943331Y-109951279D01*
X114862502Y-110069576D01*
X114834065Y-110210000D01*
X114834065Y-111410000D01*
X114858749Y-111541184D01*
X114936279Y-111661669D01*
X115054576Y-111742498D01*
X115195000Y-111770935D01*
X115945000Y-111770935D01*
X116076184Y-111746251D01*
X116196669Y-111668721D01*
X116277498Y-111550424D01*
X116305935Y-111410000D01*
X116305935Y-111208108D01*
X116368382Y-111166382D01*
X116520764Y-111014000D01*
X117124065Y-111014000D01*
X117124065Y-111260000D01*
X117148749Y-111391184D01*
X117226279Y-111511669D01*
X117344576Y-111592498D01*
X117485000Y-111620935D01*
X118735000Y-111620935D01*
X118866184Y-111596251D01*
X118986669Y-111518721D01*
X119067498Y-111400424D01*
X119095935Y-111260000D01*
X119095935Y-111120829D01*
X119103127Y-111125635D01*
X119296000Y-111164000D01*
X119839065Y-111164000D01*
X119839065Y-111260000D01*
X119863749Y-111391184D01*
X119941279Y-111511669D01*
X120059576Y-111592498D01*
X120200000Y-111620935D01*
X121100000Y-111620935D01*
X121231184Y-111596251D01*
X121351669Y-111518721D01*
X121432498Y-111400424D01*
X121460935Y-111260000D01*
X121460935Y-110060000D01*
X121436251Y-109928816D01*
X121358721Y-109808331D01*
X121240424Y-109727502D01*
X121154000Y-109710000D01*
X121154000Y-107666282D01*
X121274549Y-107616472D01*
X121585380Y-107306182D01*
X121753808Y-106900563D01*
X121754192Y-106461364D01*
X121586472Y-106055451D01*
X121276182Y-105744620D01*
X120870563Y-105576192D01*
X120431364Y-105575808D01*
X120025451Y-105743528D01*
X119714620Y-106053818D01*
X119546192Y-106459437D01*
X119545808Y-106898636D01*
X119713528Y-107304549D01*
X120023818Y-107615380D01*
X120146000Y-107666114D01*
X120146000Y-109709226D01*
X120068816Y-109723749D01*
X119948331Y-109801279D01*
X119867502Y-109919576D01*
X119839065Y-110060000D01*
X119839065Y-110156000D01*
X119504764Y-110156000D01*
X119502382Y-110153618D01*
X119338873Y-110044365D01*
X119146000Y-110006000D01*
X119095935Y-110006000D01*
X119095935Y-109760000D01*
X119071251Y-109628816D01*
X118993721Y-109508331D01*
X118875424Y-109427502D01*
X118735000Y-109399065D01*
X117485000Y-109399065D01*
X117353816Y-109423749D01*
X117233331Y-109501279D01*
X117152502Y-109619576D01*
X117124065Y-109760000D01*
X117124065Y-110006000D01*
X116312000Y-110006000D01*
X116245545Y-110019219D01*
X117026382Y-109238382D01*
X117135635Y-109074873D01*
X117174000Y-108882000D01*
X117174000Y-108760935D01*
X117270000Y-108760935D01*
X117401184Y-108736251D01*
X117521669Y-108658721D01*
X117602498Y-108540424D01*
X117630935Y-108400000D01*
X117630935Y-107500000D01*
X117606251Y-107368816D01*
X117528721Y-107248331D01*
X117410424Y-107167502D01*
X117270000Y-107139065D01*
X117174000Y-107139065D01*
X117174000Y-106804764D01*
X117521382Y-106457382D01*
X117630635Y-106293872D01*
X117669000Y-106101000D01*
X117669000Y-105630935D01*
X117990000Y-105630935D01*
X118121184Y-105606251D01*
X118241669Y-105528721D01*
X118322498Y-105410424D01*
X118329874Y-105374000D01*
X118396000Y-105374000D01*
X118588873Y-105335635D01*
X118752382Y-105226382D01*
X119196382Y-104782382D01*
X119305635Y-104618872D01*
X119344000Y-104426000D01*
X119344000Y-104361366D01*
X119371184Y-104356251D01*
X119491669Y-104278721D01*
X119572498Y-104160424D01*
X119600935Y-104020000D01*
X119600935Y-103670000D01*
X119576251Y-103538816D01*
X119565022Y-103521366D01*
X119572498Y-103510424D01*
X119600935Y-103370000D01*
X119600935Y-103049000D01*
X121386236Y-103049000D01*
X124464000Y-106126764D01*
X124464000Y-109474000D01*
X124502365Y-109666873D01*
X124611618Y-109830382D01*
X124997618Y-110216382D01*
X125161128Y-110325635D01*
X125354000Y-110364000D01*
X126059065Y-110364000D01*
X126059065Y-111860000D01*
X126083749Y-111991184D01*
X126161279Y-112111669D01*
X126279576Y-112192498D01*
X126420000Y-112220935D01*
X130120000Y-112220935D01*
X130251184Y-112196251D01*
X130371669Y-112118721D01*
X130452498Y-112000424D01*
X130480935Y-111860000D01*
X130480935Y-107860000D01*
X130456251Y-107728816D01*
X130378721Y-107608331D01*
X130260424Y-107527502D01*
X130120000Y-107499065D01*
X126420000Y-107499065D01*
X126288816Y-107523749D01*
X126168331Y-107601279D01*
X126087502Y-107719576D01*
X126059065Y-107860000D01*
X126059065Y-109356000D01*
X125562764Y-109356000D01*
X125472000Y-109265236D01*
X125472000Y-105918000D01*
X125461458Y-105865000D01*
X125433635Y-105725127D01*
X125324382Y-105561618D01*
X121951382Y-102188618D01*
X121787873Y-102079365D01*
X121595000Y-102041000D01*
X119600935Y-102041000D01*
X119600935Y-101720000D01*
X119576251Y-101588816D01*
X119498721Y-101468331D01*
X119380424Y-101387502D01*
X119240000Y-101359065D01*
X118518767Y-101359065D01*
X118494328Y-101300064D01*
X118409937Y-101215672D01*
X118299674Y-101170000D01*
X118290000Y-101170000D01*
X118290000Y-100995000D01*
X118215000Y-100920000D01*
X117865000Y-100920000D01*
X117865000Y-100940000D01*
X117765000Y-100940000D01*
X117765000Y-100920000D01*
X117215000Y-100920000D01*
X117215000Y-100940000D01*
X117115000Y-100940000D01*
X117115000Y-100920000D01*
X116565000Y-100920000D01*
X116565000Y-100940000D01*
X116465000Y-100940000D01*
X116465000Y-100920000D01*
X116445000Y-100920000D01*
X116445000Y-100820000D01*
X116465000Y-100820000D01*
X116465000Y-100800000D01*
X116565000Y-100800000D01*
X116565000Y-100820000D01*
X117115000Y-100820000D01*
X117115000Y-100245000D01*
X117215000Y-100245000D01*
X117215000Y-100820000D01*
X117765000Y-100820000D01*
X117765000Y-100245000D01*
X117865000Y-100245000D01*
X117865000Y-100820000D01*
X118215000Y-100820000D01*
X118290000Y-100745000D01*
X118290000Y-100410326D01*
X118244328Y-100300063D01*
X118159936Y-100215672D01*
X118049673Y-100170000D01*
X117940000Y-100170000D01*
X117865000Y-100245000D01*
X117765000Y-100245000D01*
X117690000Y-100170000D01*
X117580327Y-100170000D01*
X117490000Y-100207414D01*
X117399673Y-100170000D01*
X117290000Y-100170000D01*
X117215000Y-100245000D01*
X117115000Y-100245000D01*
X117040000Y-100170000D01*
X116930327Y-100170000D01*
X116840000Y-100207414D01*
X116749673Y-100170000D01*
X116696764Y-100170000D01*
X117414750Y-99452014D01*
X122365979Y-99452014D01*
X122471853Y-99708246D01*
X122667722Y-99904459D01*
X122923770Y-100010779D01*
X123201014Y-100011021D01*
X123457246Y-99905147D01*
X123653459Y-99709278D01*
X123759779Y-99453230D01*
X123760021Y-99175986D01*
X123654147Y-98919754D01*
X123620200Y-98885747D01*
X123620200Y-98580935D01*
X123640000Y-98580935D01*
X123771184Y-98556251D01*
X123891669Y-98478721D01*
X123972498Y-98360424D01*
X124000935Y-98220000D01*
X124000935Y-97020000D01*
X123976251Y-96888816D01*
X123898721Y-96768331D01*
X123780424Y-96687502D01*
X123640000Y-96659065D01*
X122740000Y-96659065D01*
X122608816Y-96683749D01*
X122488331Y-96761279D01*
X122407502Y-96879576D01*
X122379065Y-97020000D01*
X122379065Y-98220000D01*
X122403749Y-98351184D01*
X122481279Y-98471669D01*
X122599576Y-98552498D01*
X122740000Y-98580935D01*
X122759800Y-98580935D01*
X122759800Y-98685233D01*
X122668754Y-98722853D01*
X122472541Y-98918722D01*
X122366221Y-99174770D01*
X122365979Y-99452014D01*
X117414750Y-99452014D01*
X117516382Y-99350382D01*
X117625635Y-99186872D01*
X117664001Y-98994000D01*
X117664000Y-98993995D01*
X117664000Y-98525935D01*
X117760000Y-98525935D01*
X117891184Y-98501251D01*
X118011669Y-98423721D01*
X118092498Y-98305424D01*
X118120935Y-98165000D01*
X118120935Y-97915000D01*
X118160000Y-97915000D01*
X118160000Y-98224673D01*
X118205672Y-98334936D01*
X118290063Y-98419328D01*
X118400326Y-98465000D01*
X118935000Y-98465000D01*
X119010000Y-98390000D01*
X119010000Y-97840000D01*
X119110000Y-97840000D01*
X119110000Y-98390000D01*
X119185000Y-98465000D01*
X119719674Y-98465000D01*
X119829937Y-98419328D01*
X119914328Y-98334936D01*
X119960000Y-98224673D01*
X119960000Y-97915000D01*
X119885000Y-97840000D01*
X119110000Y-97840000D01*
X119010000Y-97840000D01*
X118235000Y-97840000D01*
X118160000Y-97915000D01*
X118120935Y-97915000D01*
X118120935Y-97415000D01*
X118109707Y-97355327D01*
X118160000Y-97355327D01*
X118160000Y-97665000D01*
X118235000Y-97740000D01*
X119010000Y-97740000D01*
X119010000Y-97190000D01*
X119110000Y-97190000D01*
X119110000Y-97740000D01*
X119885000Y-97740000D01*
X119960000Y-97665000D01*
X119960000Y-97355327D01*
X119914328Y-97245064D01*
X119829937Y-97160672D01*
X119719674Y-97115000D01*
X119185000Y-97115000D01*
X119110000Y-97190000D01*
X119010000Y-97190000D01*
X118935000Y-97115000D01*
X118400326Y-97115000D01*
X118290063Y-97160672D01*
X118205672Y-97245064D01*
X118160000Y-97355327D01*
X118109707Y-97355327D01*
X118096251Y-97283816D01*
X118018721Y-97163331D01*
X117900424Y-97082502D01*
X117760000Y-97054065D01*
X117664000Y-97054065D01*
X117664000Y-96493935D01*
X117760000Y-96493935D01*
X117891184Y-96469251D01*
X118011669Y-96391721D01*
X118092498Y-96273424D01*
X118120935Y-96133000D01*
X118120935Y-95883000D01*
X118160000Y-95883000D01*
X118160000Y-96192673D01*
X118205672Y-96302936D01*
X118290063Y-96387328D01*
X118400326Y-96433000D01*
X118935000Y-96433000D01*
X119010000Y-96358000D01*
X119010000Y-95808000D01*
X119110000Y-95808000D01*
X119110000Y-96358000D01*
X119185000Y-96433000D01*
X119719674Y-96433000D01*
X119829937Y-96387328D01*
X119914328Y-96302936D01*
X119960000Y-96192673D01*
X119960000Y-95883000D01*
X119885000Y-95808000D01*
X119110000Y-95808000D01*
X119010000Y-95808000D01*
X118235000Y-95808000D01*
X118160000Y-95883000D01*
X118120935Y-95883000D01*
X118120935Y-95383000D01*
X118109707Y-95323327D01*
X118160000Y-95323327D01*
X118160000Y-95633000D01*
X118235000Y-95708000D01*
X119010000Y-95708000D01*
X119010000Y-95158000D01*
X119110000Y-95158000D01*
X119110000Y-95708000D01*
X119885000Y-95708000D01*
X119960000Y-95633000D01*
X119960000Y-95323327D01*
X119914328Y-95213064D01*
X119829937Y-95128672D01*
X119719674Y-95083000D01*
X119185000Y-95083000D01*
X119110000Y-95158000D01*
X119010000Y-95158000D01*
X118935000Y-95083000D01*
X118400326Y-95083000D01*
X118290063Y-95128672D01*
X118205672Y-95213064D01*
X118160000Y-95323327D01*
X118109707Y-95323327D01*
X118096251Y-95251816D01*
X118018721Y-95131331D01*
X117900424Y-95050502D01*
X117760000Y-95022065D01*
X117664000Y-95022065D01*
X117664000Y-94884764D01*
X117810764Y-94738000D01*
X122395671Y-94738000D01*
X122379065Y-94820000D01*
X122379065Y-96020000D01*
X122403749Y-96151184D01*
X122481279Y-96271669D01*
X122599576Y-96352498D01*
X122740000Y-96380935D01*
X123640000Y-96380935D01*
X123771184Y-96356251D01*
X123891669Y-96278721D01*
X123972498Y-96160424D01*
X124000935Y-96020000D01*
X124000935Y-95754000D01*
X126013718Y-95754000D01*
X126063528Y-95874549D01*
X126373818Y-96185380D01*
X126779437Y-96353808D01*
X127218636Y-96354192D01*
X127340907Y-96303671D01*
X127938236Y-96901000D01*
X127913618Y-96925618D01*
X127804365Y-97089127D01*
X127804365Y-97089128D01*
X127766000Y-97282000D01*
X127766000Y-98599065D01*
X126420000Y-98599065D01*
X126288816Y-98623749D01*
X126168331Y-98701279D01*
X126087502Y-98819576D01*
X126059065Y-98960000D01*
X126059065Y-102960000D01*
X126083749Y-103091184D01*
X126161279Y-103211669D01*
X126279576Y-103292498D01*
X126420000Y-103320935D01*
X130120000Y-103320935D01*
X130251184Y-103296251D01*
X130371669Y-103218721D01*
X130452498Y-103100424D01*
X130480935Y-102960000D01*
X130480935Y-98960000D01*
X130456251Y-98828816D01*
X130378721Y-98708331D01*
X130260424Y-98627502D01*
X130120000Y-98599065D01*
X128774000Y-98599065D01*
X128774000Y-97490764D01*
X129240764Y-97024000D01*
X129769065Y-97024000D01*
X129769065Y-97070000D01*
X129793749Y-97201184D01*
X129871279Y-97321669D01*
X129989576Y-97402498D01*
X130130000Y-97430935D01*
X131230000Y-97430935D01*
X131361184Y-97406251D01*
X131481669Y-97328721D01*
X131562498Y-97210424D01*
X131590935Y-97070000D01*
X131590935Y-95970000D01*
X131566251Y-95838816D01*
X131488721Y-95718331D01*
X131370424Y-95637502D01*
X131230000Y-95609065D01*
X130130000Y-95609065D01*
X129998816Y-95633749D01*
X129878331Y-95711279D01*
X129797502Y-95829576D01*
X129769065Y-95970000D01*
X129769065Y-96016000D01*
X129032000Y-96016000D01*
X128839127Y-96054365D01*
X128675618Y-96163618D01*
X128651000Y-96188236D01*
X128053788Y-95591024D01*
X128103808Y-95470563D01*
X128104192Y-95031364D01*
X127936472Y-94625451D01*
X127626182Y-94314620D01*
X127504000Y-94263886D01*
X127504000Y-93934764D01*
X128178764Y-93260000D01*
X130269065Y-93260000D01*
X130269065Y-94060000D01*
X130293749Y-94191184D01*
X130371279Y-94311669D01*
X130489576Y-94392498D01*
X130630000Y-94420935D01*
X131530000Y-94420935D01*
X131661184Y-94396251D01*
X131735601Y-94348365D01*
X132976000Y-95588764D01*
X132976000Y-95609065D01*
X132930000Y-95609065D01*
X132798816Y-95633749D01*
X132678331Y-95711279D01*
X132597502Y-95829576D01*
X132569065Y-95970000D01*
X132569065Y-97070000D01*
X132593749Y-97201184D01*
X132671279Y-97321669D01*
X132789576Y-97402498D01*
X132930000Y-97430935D01*
X134030000Y-97430935D01*
X134161184Y-97406251D01*
X134281669Y-97328721D01*
X134362498Y-97210424D01*
X134390935Y-97070000D01*
X134390935Y-95970000D01*
X134366251Y-95838816D01*
X134288721Y-95718331D01*
X134170424Y-95637502D01*
X134030000Y-95609065D01*
X133984000Y-95609065D01*
X133984000Y-95380000D01*
X133958937Y-95254000D01*
X133945635Y-95187127D01*
X133836382Y-95023618D01*
X132116382Y-93303618D01*
X131952873Y-93194365D01*
X131875696Y-93179014D01*
X131866251Y-93128816D01*
X131788721Y-93008331D01*
X131670424Y-92927502D01*
X131530000Y-92899065D01*
X130630000Y-92899065D01*
X130498816Y-92923749D01*
X130378331Y-93001279D01*
X130297502Y-93119576D01*
X130269065Y-93260000D01*
X128178764Y-93260000D01*
X128626382Y-92812382D01*
X128735635Y-92648873D01*
X128774000Y-92456000D01*
X128774000Y-91885000D01*
X130330000Y-91885000D01*
X130330000Y-92219673D01*
X130375672Y-92329936D01*
X130460063Y-92414328D01*
X130570326Y-92460000D01*
X130955000Y-92460000D01*
X131030000Y-92385000D01*
X131030000Y-91810000D01*
X131130000Y-91810000D01*
X131130000Y-92385000D01*
X131205000Y-92460000D01*
X131589674Y-92460000D01*
X131699937Y-92414328D01*
X131784328Y-92329936D01*
X131830000Y-92219673D01*
X131830000Y-91885000D01*
X131755000Y-91810000D01*
X131130000Y-91810000D01*
X131030000Y-91810000D01*
X130405000Y-91810000D01*
X130330000Y-91885000D01*
X128774000Y-91885000D01*
X128774000Y-91560935D01*
X129520000Y-91560935D01*
X129651184Y-91536251D01*
X129771669Y-91458721D01*
X129852498Y-91340424D01*
X129860617Y-91300327D01*
X130330000Y-91300327D01*
X130330000Y-91635000D01*
X130405000Y-91710000D01*
X131030000Y-91710000D01*
X131030000Y-91135000D01*
X131130000Y-91135000D01*
X131130000Y-91710000D01*
X131755000Y-91710000D01*
X131830000Y-91635000D01*
X131830000Y-91300327D01*
X131784328Y-91190064D01*
X131699937Y-91105672D01*
X131589674Y-91060000D01*
X131205000Y-91060000D01*
X131130000Y-91135000D01*
X131030000Y-91135000D01*
X130955000Y-91060000D01*
X130570326Y-91060000D01*
X130460063Y-91105672D01*
X130375672Y-91190064D01*
X130330000Y-91300327D01*
X129860617Y-91300327D01*
X129880935Y-91200000D01*
X129880935Y-90000000D01*
X129856251Y-89868816D01*
X129778721Y-89748331D01*
X129660424Y-89667502D01*
X129520000Y-89639065D01*
X127020000Y-89639065D01*
X126888816Y-89663749D01*
X126768331Y-89741279D01*
X126687502Y-89859576D01*
X126659065Y-90000000D01*
X126659065Y-90096000D01*
X126114764Y-90096000D01*
X125832382Y-89813618D01*
X125668873Y-89704365D01*
X125476000Y-89666000D01*
X125328935Y-89666000D01*
X125328935Y-88392000D01*
X131868412Y-88392000D01*
X131960061Y-88852751D01*
X132221055Y-89243357D01*
X132576000Y-89480523D01*
X132576000Y-91959226D01*
X132498816Y-91973749D01*
X132378331Y-92051279D01*
X132297502Y-92169576D01*
X132269065Y-92310000D01*
X132269065Y-93110000D01*
X132293749Y-93241184D01*
X132371279Y-93361669D01*
X132489576Y-93442498D01*
X132630000Y-93470935D01*
X133530000Y-93470935D01*
X133661184Y-93446251D01*
X133781669Y-93368721D01*
X133862498Y-93250424D01*
X133890935Y-93110000D01*
X133890935Y-92310000D01*
X133866251Y-92178816D01*
X133788721Y-92058331D01*
X133670424Y-91977502D01*
X133584000Y-91960000D01*
X133584000Y-89501905D01*
X133970945Y-89243357D01*
X134231939Y-88852751D01*
X134323588Y-88392000D01*
X134231939Y-87931249D01*
X133970945Y-87540643D01*
X133580339Y-87279649D01*
X133119588Y-87188000D01*
X133072412Y-87188000D01*
X132611661Y-87279649D01*
X132221055Y-87540643D01*
X131960061Y-87931249D01*
X131868412Y-88392000D01*
X125328935Y-88392000D01*
X125328935Y-87325000D01*
X126720000Y-87325000D01*
X126720000Y-87859674D01*
X126765672Y-87969937D01*
X126850064Y-88054328D01*
X126960327Y-88100000D01*
X128145000Y-88100000D01*
X128220000Y-88025000D01*
X128220000Y-87250000D01*
X128320000Y-87250000D01*
X128320000Y-88025000D01*
X128395000Y-88100000D01*
X129579673Y-88100000D01*
X129689936Y-88054328D01*
X129774328Y-87969937D01*
X129820000Y-87859674D01*
X129820000Y-87325000D01*
X129745000Y-87250000D01*
X128320000Y-87250000D01*
X128220000Y-87250000D01*
X126795000Y-87250000D01*
X126720000Y-87325000D01*
X125328935Y-87325000D01*
X125328935Y-87122000D01*
X125304251Y-86990816D01*
X125226721Y-86870331D01*
X125108424Y-86789502D01*
X124968000Y-86761065D01*
X118872000Y-86761065D01*
X118740816Y-86785749D01*
X118620331Y-86863279D01*
X118539502Y-86981576D01*
X118511065Y-87122000D01*
X118511065Y-93218000D01*
X118535749Y-93349184D01*
X118613279Y-93469669D01*
X118731576Y-93550498D01*
X118872000Y-93578935D01*
X124968000Y-93578935D01*
X125099184Y-93554251D01*
X125219669Y-93476721D01*
X125300498Y-93358424D01*
X125328935Y-93218000D01*
X125328935Y-90735699D01*
X125549618Y-90956382D01*
X125713128Y-91065635D01*
X125906000Y-91104000D01*
X126659065Y-91104000D01*
X126659065Y-91200000D01*
X126683749Y-91331184D01*
X126761279Y-91451669D01*
X126879576Y-91532498D01*
X127020000Y-91560935D01*
X127766000Y-91560935D01*
X127766000Y-92247236D01*
X126643618Y-93369618D01*
X126534365Y-93533127D01*
X126534365Y-93533128D01*
X126496000Y-93726000D01*
X126496000Y-94263718D01*
X126375451Y-94313528D01*
X126064620Y-94623818D01*
X126013886Y-94746000D01*
X123987011Y-94746000D01*
X123976251Y-94688816D01*
X123898721Y-94568331D01*
X123780424Y-94487502D01*
X123640000Y-94459065D01*
X123595457Y-94459065D01*
X123546382Y-94385618D01*
X123546379Y-94385616D01*
X123038382Y-93877618D01*
X122874873Y-93768365D01*
X122682000Y-93730000D01*
X117602000Y-93730000D01*
X117409128Y-93768365D01*
X117282653Y-93852872D01*
X117245618Y-93877618D01*
X116803618Y-94319618D01*
X116694365Y-94483127D01*
X116693495Y-94487502D01*
X116656000Y-94676000D01*
X116656000Y-95022065D01*
X116560000Y-95022065D01*
X116428816Y-95046749D01*
X116308331Y-95124279D01*
X116227502Y-95242576D01*
X116199065Y-95383000D01*
X116199065Y-96133000D01*
X116223749Y-96264184D01*
X116301279Y-96384669D01*
X116419576Y-96465498D01*
X116560000Y-96493935D01*
X116656000Y-96493935D01*
X116656000Y-97054065D01*
X116560000Y-97054065D01*
X116428816Y-97078749D01*
X116308331Y-97156279D01*
X116227502Y-97274576D01*
X116199065Y-97415000D01*
X116199065Y-98165000D01*
X116223749Y-98296184D01*
X116301279Y-98416669D01*
X116419576Y-98497498D01*
X116560000Y-98525935D01*
X116656000Y-98525935D01*
X116656000Y-98785236D01*
X115508618Y-99932618D01*
X115399365Y-100096127D01*
X115384671Y-100170000D01*
X115361000Y-100289000D01*
X115361000Y-100324457D01*
X115357502Y-100329576D01*
X115350126Y-100366000D01*
X114032764Y-100366000D01*
X113810382Y-100143618D01*
X113646873Y-100034365D01*
X113454000Y-99996000D01*
X112570935Y-99996000D01*
X112570935Y-99900000D01*
X112546251Y-99768816D01*
X112468721Y-99648331D01*
X112350424Y-99567502D01*
X112210000Y-99539065D01*
X111310000Y-99539065D01*
X111178816Y-99563749D01*
X111058331Y-99641279D01*
X110977502Y-99759576D01*
X110949065Y-99900000D01*
X110949065Y-100829510D01*
X110921197Y-100787802D01*
X110329197Y-100195803D01*
X110189631Y-100102547D01*
X110030935Y-100070981D01*
X110030935Y-99900000D01*
X110006251Y-99768816D01*
X109928721Y-99648331D01*
X109810424Y-99567502D01*
X109670000Y-99539065D01*
X108770000Y-99539065D01*
X108638816Y-99563749D01*
X108518331Y-99641279D01*
X108437502Y-99759576D01*
X108409065Y-99900000D01*
X106930000Y-99900000D01*
X106930000Y-98252764D01*
X110846382Y-94336382D01*
X110955635Y-94172873D01*
X110994000Y-93980000D01*
X110994000Y-93490774D01*
X111071184Y-93476251D01*
X111191669Y-93398721D01*
X111272498Y-93280424D01*
X111300935Y-93140000D01*
X111300935Y-91940000D01*
X111276251Y-91808816D01*
X111198721Y-91688331D01*
X111080424Y-91607502D01*
X110940000Y-91579065D01*
X110040000Y-91579065D01*
X109908816Y-91603749D01*
X109788331Y-91681279D01*
X109707502Y-91799576D01*
X109679065Y-91940000D01*
X109679065Y-93140000D01*
X109703749Y-93271184D01*
X109781279Y-93391669D01*
X109899576Y-93472498D01*
X109986000Y-93490000D01*
X109986000Y-93771236D01*
X106069618Y-97687618D01*
X105960365Y-97851127D01*
X105960365Y-97851128D01*
X105922000Y-98044000D01*
X105922000Y-100883236D01*
X104469236Y-102336000D01*
X103867132Y-102336000D01*
X103861864Y-102332400D01*
X103934328Y-102259937D01*
X103980000Y-102149674D01*
X103980000Y-101165000D01*
X103905000Y-101090000D01*
X102730000Y-101090000D01*
X102730000Y-101110000D01*
X102630000Y-101110000D01*
X102630000Y-101090000D01*
X102610000Y-101090000D01*
X102610000Y-100990000D01*
X102630000Y-100990000D01*
X102630000Y-99765000D01*
X102730000Y-99765000D01*
X102730000Y-100990000D01*
X103905000Y-100990000D01*
X103980000Y-100915000D01*
X103980000Y-99930326D01*
X103934328Y-99820063D01*
X103849936Y-99735672D01*
X103739673Y-99690000D01*
X102805000Y-99690000D01*
X102730000Y-99765000D01*
X102630000Y-99765000D01*
X102555000Y-99690000D01*
X101640935Y-99690000D01*
X101640935Y-99490000D01*
X101616251Y-99358816D01*
X101538721Y-99238331D01*
X101420424Y-99157502D01*
X101280000Y-99129065D01*
X99414000Y-99129065D01*
X99414000Y-94105000D01*
X102570000Y-94105000D01*
X102570000Y-95309674D01*
X102615672Y-95419937D01*
X102700064Y-95504328D01*
X102810327Y-95550000D01*
X104015000Y-95550000D01*
X104090000Y-95475000D01*
X104090000Y-94030000D01*
X104190000Y-94030000D01*
X104190000Y-95475000D01*
X104265000Y-95550000D01*
X105469673Y-95550000D01*
X105579936Y-95504328D01*
X105664328Y-95419937D01*
X105710000Y-95309674D01*
X105710000Y-94105000D01*
X105635000Y-94030000D01*
X104190000Y-94030000D01*
X104090000Y-94030000D01*
X102645000Y-94030000D01*
X102570000Y-94105000D01*
X99414000Y-94105000D01*
X99414000Y-92650326D01*
X102570000Y-92650326D01*
X102570000Y-93855000D01*
X102645000Y-93930000D01*
X104090000Y-93930000D01*
X104090000Y-92485000D01*
X104190000Y-92485000D01*
X104190000Y-93930000D01*
X105635000Y-93930000D01*
X105710000Y-93855000D01*
X105710000Y-92650326D01*
X105664328Y-92540063D01*
X105579936Y-92455672D01*
X105469673Y-92410000D01*
X104265000Y-92410000D01*
X104190000Y-92485000D01*
X104090000Y-92485000D01*
X104015000Y-92410000D01*
X102810327Y-92410000D01*
X102700064Y-92455672D01*
X102615672Y-92540063D01*
X102570000Y-92650326D01*
X99414000Y-92650326D01*
X99414000Y-89221616D01*
X102515719Y-89221616D01*
X102762437Y-89818720D01*
X103218877Y-90275957D01*
X103815549Y-90523717D01*
X104461616Y-90524281D01*
X105058720Y-90277563D01*
X105515957Y-89821123D01*
X105549642Y-89740000D01*
X109679065Y-89740000D01*
X109679065Y-90940000D01*
X109703749Y-91071184D01*
X109781279Y-91191669D01*
X109899576Y-91272498D01*
X110040000Y-91300935D01*
X110940000Y-91300935D01*
X111071184Y-91276251D01*
X111191669Y-91198721D01*
X111272498Y-91080424D01*
X111300935Y-90940000D01*
X111300935Y-90844000D01*
X111467236Y-90844000D01*
X112526000Y-91902764D01*
X112526000Y-92993718D01*
X112405451Y-93043528D01*
X112094620Y-93353818D01*
X111926192Y-93759437D01*
X111925808Y-94198636D01*
X112093528Y-94604549D01*
X112403818Y-94915380D01*
X112809437Y-95083808D01*
X113248636Y-95084192D01*
X113654549Y-94916472D01*
X113965380Y-94606182D01*
X114133808Y-94200563D01*
X114134192Y-93761364D01*
X113966472Y-93355451D01*
X113656182Y-93044620D01*
X113534000Y-92993886D01*
X113534000Y-92074000D01*
X114659065Y-92074000D01*
X114659065Y-92120000D01*
X114683749Y-92251184D01*
X114761279Y-92371669D01*
X114879576Y-92452498D01*
X115020000Y-92480935D01*
X116120000Y-92480935D01*
X116251184Y-92456251D01*
X116371669Y-92378721D01*
X116452498Y-92260424D01*
X116480935Y-92120000D01*
X116480935Y-91020000D01*
X116456251Y-90888816D01*
X116378721Y-90768331D01*
X116260424Y-90687502D01*
X116120000Y-90659065D01*
X115020000Y-90659065D01*
X114888816Y-90683749D01*
X114768331Y-90761279D01*
X114687502Y-90879576D01*
X114659065Y-91020000D01*
X114659065Y-91066000D01*
X113154000Y-91066000D01*
X113121274Y-91072510D01*
X112032382Y-89983618D01*
X111868873Y-89874365D01*
X111676000Y-89836000D01*
X111300935Y-89836000D01*
X111300935Y-89740000D01*
X111276251Y-89608816D01*
X111198721Y-89488331D01*
X111080424Y-89407502D01*
X110940000Y-89379065D01*
X110040000Y-89379065D01*
X109908816Y-89403749D01*
X109788331Y-89481279D01*
X109707502Y-89599576D01*
X109679065Y-89740000D01*
X105549642Y-89740000D01*
X105744343Y-89271108D01*
X105766382Y-89256382D01*
X107036382Y-87986382D01*
X107145635Y-87822873D01*
X107184000Y-87630000D01*
X107184000Y-85298764D01*
X107537764Y-84945000D01*
X108840000Y-84945000D01*
X108840000Y-85329674D01*
X108885672Y-85439937D01*
X108970064Y-85524328D01*
X109080327Y-85570000D01*
X109415000Y-85570000D01*
X109490000Y-85495000D01*
X109490000Y-84870000D01*
X109590000Y-84870000D01*
X109590000Y-85495000D01*
X109665000Y-85570000D01*
X109999673Y-85570000D01*
X110109936Y-85524328D01*
X110194328Y-85439937D01*
X110240000Y-85329674D01*
X110240000Y-84945000D01*
X110165000Y-84870000D01*
X109590000Y-84870000D01*
X109490000Y-84870000D01*
X108915000Y-84870000D01*
X108840000Y-84945000D01*
X107537764Y-84945000D01*
X108172438Y-84310326D01*
X108840000Y-84310326D01*
X108840000Y-84695000D01*
X108915000Y-84770000D01*
X109490000Y-84770000D01*
X109490000Y-84145000D01*
X109590000Y-84145000D01*
X109590000Y-84770000D01*
X110165000Y-84770000D01*
X110240000Y-84695000D01*
X110240000Y-84370000D01*
X110679065Y-84370000D01*
X110679065Y-85270000D01*
X110703749Y-85401184D01*
X110781279Y-85521669D01*
X110899576Y-85602498D01*
X110936000Y-85609874D01*
X110936000Y-86040000D01*
X110974365Y-86232873D01*
X111083618Y-86396382D01*
X111976212Y-87288976D01*
X111926192Y-87409437D01*
X111925808Y-87848636D01*
X112093528Y-88254549D01*
X112403818Y-88565380D01*
X112809437Y-88733808D01*
X113248636Y-88734192D01*
X113370907Y-88683671D01*
X113943618Y-89256382D01*
X114107127Y-89365635D01*
X114300000Y-89404000D01*
X114674871Y-89404000D01*
X114683749Y-89451184D01*
X114761279Y-89571669D01*
X114879576Y-89652498D01*
X115020000Y-89680935D01*
X116120000Y-89680935D01*
X116251184Y-89656251D01*
X116371669Y-89578721D01*
X116452498Y-89460424D01*
X116480935Y-89320000D01*
X116480935Y-88220000D01*
X116456251Y-88088816D01*
X116378721Y-87968331D01*
X116260424Y-87887502D01*
X116120000Y-87859065D01*
X116074000Y-87859065D01*
X116074000Y-86540326D01*
X126720000Y-86540326D01*
X126720000Y-87075000D01*
X126795000Y-87150000D01*
X128220000Y-87150000D01*
X128220000Y-86375000D01*
X128320000Y-86375000D01*
X128320000Y-87150000D01*
X129745000Y-87150000D01*
X129820000Y-87075000D01*
X129820000Y-86540326D01*
X129774328Y-86430063D01*
X129689936Y-86345672D01*
X129579673Y-86300000D01*
X128395000Y-86300000D01*
X128320000Y-86375000D01*
X128220000Y-86375000D01*
X128145000Y-86300000D01*
X126960327Y-86300000D01*
X126850064Y-86345672D01*
X126765672Y-86430063D01*
X126720000Y-86540326D01*
X116074000Y-86540326D01*
X116074000Y-86480935D01*
X116820000Y-86480935D01*
X116951184Y-86456251D01*
X117071669Y-86378721D01*
X117152498Y-86260424D01*
X117180935Y-86120000D01*
X117180935Y-85977000D01*
X131946000Y-85977000D01*
X131946000Y-86761673D01*
X131991672Y-86871936D01*
X132076063Y-86956328D01*
X132186326Y-87002000D01*
X132971000Y-87002000D01*
X133046000Y-86927000D01*
X133046000Y-85902000D01*
X133146000Y-85902000D01*
X133146000Y-86927000D01*
X133221000Y-87002000D01*
X134005674Y-87002000D01*
X134115937Y-86956328D01*
X134200328Y-86871936D01*
X134246000Y-86761673D01*
X134246000Y-85977000D01*
X134171000Y-85902000D01*
X133146000Y-85902000D01*
X133046000Y-85902000D01*
X132021000Y-85902000D01*
X131946000Y-85977000D01*
X117180935Y-85977000D01*
X117180935Y-85938821D01*
X117274382Y-85876382D01*
X117958382Y-85192382D01*
X118067635Y-85028873D01*
X118106000Y-84836000D01*
X118106000Y-84324000D01*
X118447565Y-84324000D01*
X118447565Y-85344000D01*
X118472249Y-85475184D01*
X118549779Y-85595669D01*
X118668076Y-85676498D01*
X118808500Y-85704935D01*
X120459500Y-85704935D01*
X120590684Y-85680251D01*
X120711169Y-85602721D01*
X120791998Y-85484424D01*
X120820435Y-85344000D01*
X120820435Y-83945000D01*
X123080500Y-83945000D01*
X123080500Y-85403673D01*
X123126172Y-85513936D01*
X123210563Y-85598328D01*
X123320826Y-85644000D01*
X124081000Y-85644000D01*
X124156000Y-85569000D01*
X124156000Y-83870000D01*
X124256000Y-83870000D01*
X124256000Y-85569000D01*
X124331000Y-85644000D01*
X125091174Y-85644000D01*
X125201437Y-85598328D01*
X125285828Y-85513936D01*
X125331500Y-85403673D01*
X125331500Y-83945000D01*
X125256500Y-83870000D01*
X124256000Y-83870000D01*
X124156000Y-83870000D01*
X123155500Y-83870000D01*
X123080500Y-83945000D01*
X120820435Y-83945000D01*
X120820435Y-83778185D01*
X126677592Y-83778185D01*
X127035212Y-84643692D01*
X127696825Y-85306461D01*
X128561706Y-85665591D01*
X129498185Y-85666408D01*
X130363692Y-85308788D01*
X130730793Y-84942327D01*
X131946000Y-84942327D01*
X131946000Y-85727000D01*
X132021000Y-85802000D01*
X133046000Y-85802000D01*
X133046000Y-84777000D01*
X133146000Y-84777000D01*
X133146000Y-85802000D01*
X134171000Y-85802000D01*
X134246000Y-85727000D01*
X134246000Y-84942327D01*
X134200328Y-84832064D01*
X134115937Y-84747672D01*
X134005674Y-84702000D01*
X133221000Y-84702000D01*
X133146000Y-84777000D01*
X133046000Y-84777000D01*
X132971000Y-84702000D01*
X132186326Y-84702000D01*
X132076063Y-84747672D01*
X131991672Y-84832064D01*
X131946000Y-84942327D01*
X130730793Y-84942327D01*
X131026461Y-84647175D01*
X131385591Y-83782294D01*
X131386408Y-82845815D01*
X131028788Y-81980308D01*
X130367175Y-81317539D01*
X129502294Y-80958409D01*
X128565815Y-80957592D01*
X127700308Y-81315212D01*
X127037539Y-81976825D01*
X126678409Y-82841706D01*
X126677592Y-83778185D01*
X120820435Y-83778185D01*
X120820435Y-82296000D01*
X120809207Y-82236327D01*
X123080500Y-82236327D01*
X123080500Y-83695000D01*
X123155500Y-83770000D01*
X124156000Y-83770000D01*
X124156000Y-82071000D01*
X124256000Y-82071000D01*
X124256000Y-83770000D01*
X125256500Y-83770000D01*
X125331500Y-83695000D01*
X125331500Y-82236327D01*
X125285828Y-82126064D01*
X125201437Y-82041672D01*
X125091174Y-81996000D01*
X124331000Y-81996000D01*
X124256000Y-82071000D01*
X124156000Y-82071000D01*
X124081000Y-81996000D01*
X123320826Y-81996000D01*
X123210563Y-82041672D01*
X123126172Y-82126064D01*
X123080500Y-82236327D01*
X120809207Y-82236327D01*
X120795751Y-82164816D01*
X120718221Y-82044331D01*
X120599924Y-81963502D01*
X120459500Y-81935065D01*
X118808500Y-81935065D01*
X118677316Y-81959749D01*
X118556831Y-82037279D01*
X118476002Y-82155576D01*
X118447565Y-82296000D01*
X118447565Y-83316000D01*
X117856000Y-83316000D01*
X117663127Y-83354365D01*
X117499618Y-83463618D01*
X117245618Y-83717618D01*
X117136365Y-83881127D01*
X117110159Y-84012872D01*
X117098000Y-84074000D01*
X117098000Y-84627236D01*
X117065761Y-84659475D01*
X116960424Y-84587502D01*
X116820000Y-84559065D01*
X114320000Y-84559065D01*
X114188816Y-84583749D01*
X114068331Y-84661279D01*
X113987502Y-84779576D01*
X113959065Y-84920000D01*
X113959065Y-86120000D01*
X113983749Y-86251184D01*
X114061279Y-86371669D01*
X114179576Y-86452498D01*
X114320000Y-86480935D01*
X115066000Y-86480935D01*
X115066000Y-87859065D01*
X115020000Y-87859065D01*
X114888816Y-87883749D01*
X114768331Y-87961279D01*
X114687502Y-88079576D01*
X114659065Y-88220000D01*
X114659065Y-88396000D01*
X114508764Y-88396000D01*
X114083788Y-87971024D01*
X114133808Y-87850563D01*
X114134192Y-87411364D01*
X113966472Y-87005451D01*
X113656182Y-86694620D01*
X113250563Y-86526192D01*
X112811364Y-86525808D01*
X112689093Y-86576329D01*
X111944000Y-85831236D01*
X111944000Y-85611366D01*
X111971184Y-85606251D01*
X112091669Y-85528721D01*
X112172498Y-85410424D01*
X112200935Y-85270000D01*
X112200935Y-84370000D01*
X112176251Y-84238816D01*
X112098721Y-84118331D01*
X111980424Y-84037502D01*
X111840000Y-84009065D01*
X111040000Y-84009065D01*
X110908816Y-84033749D01*
X110788331Y-84111279D01*
X110707502Y-84229576D01*
X110679065Y-84370000D01*
X110240000Y-84370000D01*
X110240000Y-84310326D01*
X110194328Y-84200063D01*
X110109936Y-84115672D01*
X109999673Y-84070000D01*
X109665000Y-84070000D01*
X109590000Y-84145000D01*
X109490000Y-84145000D01*
X109415000Y-84070000D01*
X109080327Y-84070000D01*
X108970064Y-84115672D01*
X108885672Y-84200063D01*
X108840000Y-84310326D01*
X108172438Y-84310326D01*
X109158764Y-83324000D01*
X109739226Y-83324000D01*
X109753749Y-83401184D01*
X109831279Y-83521669D01*
X109949576Y-83602498D01*
X110090000Y-83630935D01*
X110890000Y-83630935D01*
X111021184Y-83606251D01*
X111141669Y-83528721D01*
X111222498Y-83410424D01*
X111250935Y-83270000D01*
X111250935Y-82370000D01*
X111227415Y-82245000D01*
X114020000Y-82245000D01*
X114020000Y-82779674D01*
X114065672Y-82889937D01*
X114150064Y-82974328D01*
X114260327Y-83020000D01*
X115445000Y-83020000D01*
X115520000Y-82945000D01*
X115520000Y-82170000D01*
X115620000Y-82170000D01*
X115620000Y-82945000D01*
X115695000Y-83020000D01*
X116879673Y-83020000D01*
X116989936Y-82974328D01*
X117074328Y-82889937D01*
X117120000Y-82779674D01*
X117120000Y-82245000D01*
X117045000Y-82170000D01*
X115620000Y-82170000D01*
X115520000Y-82170000D01*
X114095000Y-82170000D01*
X114020000Y-82245000D01*
X111227415Y-82245000D01*
X111226251Y-82238816D01*
X111148721Y-82118331D01*
X111030424Y-82037502D01*
X110890000Y-82009065D01*
X110090000Y-82009065D01*
X109958816Y-82033749D01*
X109838331Y-82111279D01*
X109757502Y-82229576D01*
X109740000Y-82316000D01*
X108950000Y-82316000D01*
X108757128Y-82354365D01*
X108593618Y-82463618D01*
X106323618Y-84733618D01*
X106214365Y-84897127D01*
X106190720Y-85016000D01*
X106176000Y-85090000D01*
X106176000Y-87421236D01*
X105546331Y-88050905D01*
X105517563Y-87981280D01*
X105061123Y-87524043D01*
X104464451Y-87276283D01*
X103818384Y-87275719D01*
X103221280Y-87522437D01*
X102764043Y-87978877D01*
X102516283Y-88575549D01*
X102515719Y-89221616D01*
X99414000Y-89221616D01*
X99414000Y-83778185D01*
X100261592Y-83778185D01*
X100619212Y-84643692D01*
X101280825Y-85306461D01*
X102145706Y-85665591D01*
X103082185Y-85666408D01*
X103947692Y-85308788D01*
X104610461Y-84647175D01*
X104969591Y-83782294D01*
X104970408Y-82845815D01*
X104612788Y-81980308D01*
X104093713Y-81460326D01*
X114020000Y-81460326D01*
X114020000Y-81995000D01*
X114095000Y-82070000D01*
X115520000Y-82070000D01*
X115520000Y-81295000D01*
X115620000Y-81295000D01*
X115620000Y-82070000D01*
X117045000Y-82070000D01*
X117120000Y-81995000D01*
X117120000Y-81460326D01*
X117074328Y-81350063D01*
X116989936Y-81265672D01*
X116879673Y-81220000D01*
X115695000Y-81220000D01*
X115620000Y-81295000D01*
X115520000Y-81295000D01*
X115445000Y-81220000D01*
X114260327Y-81220000D01*
X114150064Y-81265672D01*
X114065672Y-81350063D01*
X114020000Y-81460326D01*
X104093713Y-81460326D01*
X103951175Y-81317539D01*
X103086294Y-80958409D01*
X102149815Y-80957592D01*
X101284308Y-81315212D01*
X100621539Y-81976825D01*
X100262409Y-82841706D01*
X100261592Y-83778185D01*
X99414000Y-83778185D01*
X99414000Y-80364000D01*
X135536000Y-80364000D01*
X135536000Y-116486000D01*
G36*
X116890000Y-102820000D02*
X116910000Y-102820000D01*
X116910000Y-102920000D01*
X116890000Y-102920000D01*
X116890000Y-102940000D01*
X116790000Y-102940000D01*
X116790000Y-102920000D01*
X116770000Y-102920000D01*
X116770000Y-102820000D01*
X116790000Y-102820000D01*
X116790000Y-102800000D01*
X116890000Y-102800000D01*
X116890000Y-102820000D01*
X116890000Y-102820000D01*
G37*
X116890000Y-102820000D02*
X116910000Y-102820000D01*
X116910000Y-102920000D01*
X116890000Y-102920000D01*
X116890000Y-102940000D01*
X116790000Y-102940000D01*
X116790000Y-102920000D01*
X116770000Y-102920000D01*
X116770000Y-102820000D01*
X116790000Y-102820000D01*
X116790000Y-102800000D01*
X116890000Y-102800000D01*
X116890000Y-102820000D01*
M02*
