%TF.GenerationSoftware,KiCad,Pcbnew,4.0.6*%
%TF.CreationDate,2017-08-18T11:06:42+02:00*%
%TF.ProjectId,ESP12_pcb,45535031325F7063622E6B696361645F,rev?*%
%TF.FileFunction,Legend,Top*%
%FSLAX46Y46*%
G04 Gerber Fmt 4.6, Leading zero omitted, Abs format (unit mm)*
G04 Created by KiCad (PCBNEW 4.0.6) date Friday, 18 '18e' August '18e' 2017, 11:06:42*
%MOMM*%
%LPD*%
G01*
G04 APERTURE LIST*
%ADD10C,0.127000*%
%ADD11C,0.100000*%
%ADD12C,0.150000*%
%ADD13C,0.200000*%
%ADD14C,0.120000*%
%ADD15C,0.160000*%
%ADD16C,4.100000*%
%ADD17R,2.600000X1.300000*%
%ADD18R,1.300000X0.850000*%
%ADD19R,0.850000X1.300000*%
%ADD20R,1.350000X1.600000*%
%ADD21R,2.000000X1.700000*%
%ADD22R,2.100000X2.200000*%
%ADD23R,1.450000X0.500000*%
%ADD24R,1.000000X1.300000*%
%ADD25R,1.800000X1.800000*%
%ADD26O,1.800000X1.800000*%
%ADD27R,2.640000X2.640000*%
%ADD28C,2.640000*%
%ADD29R,3.800000X4.100000*%
%ADD30R,0.900000X1.000000*%
%ADD31R,1.000000X0.900000*%
%ADD32R,1.300000X1.000000*%
%ADD33R,1.751000X3.148000*%
%ADD34R,6.196000X6.196000*%
%ADD35R,0.900000X0.450000*%
%ADD36R,0.450000X0.900000*%
%ADD37R,2.900000X2.900000*%
%ADD38C,1.600000*%
%ADD39R,1.200000X1.200000*%
G04 APERTURE END LIST*
D10*
D11*
X110071320Y-111760000D02*
G75*
G03X110071320Y-111760000I-2121320J0D01*
G01*
X131153320Y-83312000D02*
G75*
G03X131153320Y-83312000I-2121320J0D01*
G01*
X114170000Y-82070000D02*
X114170000Y-85570000D01*
X116970000Y-82070000D02*
X116970000Y-85570000D01*
X114170000Y-82070000D02*
X116970000Y-82080000D01*
X114170000Y-85570000D02*
X116970000Y-85570000D01*
X126870000Y-87150000D02*
X126870000Y-90650000D01*
X129670000Y-87150000D02*
X129670000Y-90650000D01*
X126870000Y-87150000D02*
X129670000Y-87160000D01*
X126870000Y-90650000D02*
X129670000Y-90650000D01*
D12*
X117760000Y-95158000D02*
X118460000Y-95158000D01*
X118460000Y-96358000D02*
X117760000Y-96358000D01*
X117760000Y-97190000D02*
X118460000Y-97190000D01*
X118460000Y-98390000D02*
X117760000Y-98390000D01*
X116170000Y-111410000D02*
X116170000Y-112110000D01*
X114970000Y-112110000D02*
X114970000Y-111410000D01*
X118960000Y-112260000D02*
X118960000Y-111260000D01*
X117260000Y-111260000D02*
X117260000Y-112260000D01*
D13*
X103180000Y-99790000D02*
X103180000Y-98790000D01*
X103180000Y-108490000D02*
X103180000Y-109490000D01*
X98180000Y-107890000D02*
X99130000Y-107890000D01*
X98180000Y-100390000D02*
X99130000Y-100390000D01*
X98180000Y-100390000D02*
X98180000Y-107890000D01*
X98880000Y-98790000D02*
X98880000Y-109490000D01*
D12*
X109815000Y-91940000D02*
X109815000Y-90940000D01*
X111165000Y-90940000D02*
X111165000Y-91940000D01*
D14*
X131706000Y-87122000D02*
X131706000Y-89782000D01*
X131706000Y-89782000D02*
X134486000Y-89782000D01*
X134486000Y-89782000D02*
X134486000Y-87122000D01*
X134486000Y-87122000D02*
X131706000Y-87122000D01*
X131706000Y-85852000D02*
X131706000Y-84462000D01*
X131706000Y-84462000D02*
X133096000Y-84462000D01*
D12*
X106680000Y-86360000D02*
X106680000Y-96520000D01*
X107950000Y-86360000D02*
X100330000Y-86360000D01*
X100330000Y-86360000D02*
X100330000Y-96520000D01*
X100330000Y-96520000D02*
X107950000Y-96520000D01*
X107950000Y-96520000D02*
X107950000Y-86360000D01*
X133520000Y-100119000D02*
X123020000Y-100119000D01*
X133520000Y-110660000D02*
X123020000Y-110660000D01*
X123020000Y-100160000D02*
X123020000Y-110660000D01*
X133520000Y-110660000D02*
X133520000Y-100160000D01*
D14*
X112070000Y-83060000D02*
X111140000Y-83060000D01*
X108910000Y-83060000D02*
X109840000Y-83060000D01*
X108910000Y-83060000D02*
X108910000Y-85220000D01*
X112070000Y-83060000D02*
X112070000Y-84520000D01*
X132840000Y-94290000D02*
X132840000Y-93360000D01*
X132840000Y-91130000D02*
X132840000Y-92060000D01*
X132840000Y-91130000D02*
X130680000Y-91130000D01*
X132840000Y-94290000D02*
X131380000Y-94290000D01*
D12*
X122515000Y-97020000D02*
X122515000Y-96020000D01*
X123865000Y-96020000D02*
X123865000Y-97020000D01*
X111085000Y-102100000D02*
X111085000Y-101100000D01*
X112435000Y-101100000D02*
X112435000Y-102100000D01*
X108545000Y-102100000D02*
X108545000Y-101100000D01*
X109895000Y-101100000D02*
X109895000Y-102100000D01*
X115070000Y-107275000D02*
X116070000Y-107275000D01*
X116070000Y-108625000D02*
X115070000Y-108625000D01*
X109990000Y-107275000D02*
X110990000Y-107275000D01*
X110990000Y-108625000D02*
X109990000Y-108625000D01*
X119975000Y-112260000D02*
X119975000Y-111260000D01*
X121325000Y-111260000D02*
X121325000Y-112260000D01*
X120523000Y-85344000D02*
X120523000Y-82169000D01*
X120523000Y-82169000D02*
X118745000Y-82169000D01*
X118745000Y-82169000D02*
X118745000Y-85344000D01*
X125095000Y-85344000D02*
X125095000Y-82169000D01*
X125095000Y-82169000D02*
X123317000Y-82169000D01*
X123317000Y-82169000D02*
X123317000Y-85344000D01*
X118491000Y-91440000D02*
X118491000Y-85344000D01*
X118491000Y-85344000D02*
X125349000Y-85344000D01*
X125349000Y-85344000D02*
X125349000Y-93218000D01*
X125349000Y-93345000D02*
X118491000Y-93345000D01*
X118491000Y-93218000D02*
X118491000Y-91440000D01*
D13*
X118840000Y-104270000D02*
X118840000Y-104420000D01*
X118840000Y-104420000D02*
X118390000Y-104870000D01*
X118390000Y-104870000D02*
X118240000Y-104870000D01*
X115440000Y-104870000D02*
X114840000Y-104870000D01*
X114840000Y-104870000D02*
X114840000Y-104270000D01*
X114840000Y-101470000D02*
X114840000Y-100870000D01*
X114840000Y-100870000D02*
X115440000Y-100870000D01*
X118840000Y-101470000D02*
X118840000Y-100870000D01*
X118840000Y-100870000D02*
X118240000Y-100870000D01*
D10*
X119681420Y-103870000D02*
G75*
G03X119681420Y-103870000I-141420J0D01*
G01*
X119610710Y-103870000D02*
G75*
G03X119610710Y-103870000I-70710J0D01*
G01*
X119590000Y-103870000D02*
G75*
G03X119590000Y-103870000I-50000J0D01*
G01*
D11*
X104737320Y-83312000D02*
G75*
G03X104737320Y-83312000I-2121320J0D01*
G01*
D14*
X129880000Y-95520000D02*
X129880000Y-97520000D01*
D11*
X132330000Y-96520000D02*
X132830000Y-96520000D01*
X132330000Y-96920000D02*
X131730000Y-96520000D01*
X132330000Y-96120000D02*
X132330000Y-96920000D01*
X131730000Y-96520000D02*
X132330000Y-96120000D01*
X131730000Y-96520000D02*
X131730000Y-97070000D01*
X131730000Y-96520000D02*
X131730000Y-95970000D01*
X131330000Y-96520000D02*
X131730000Y-96520000D01*
D14*
X129880000Y-97520000D02*
X133730000Y-97520000D01*
X129880000Y-95520000D02*
X133730000Y-95520000D01*
X116570000Y-87970000D02*
X114570000Y-87970000D01*
D11*
X115570000Y-90420000D02*
X115570000Y-90920000D01*
X115170000Y-90420000D02*
X115570000Y-89820000D01*
X115970000Y-90420000D02*
X115170000Y-90420000D01*
X115570000Y-89820000D02*
X115970000Y-90420000D01*
X115570000Y-89820000D02*
X115020000Y-89820000D01*
X115570000Y-89820000D02*
X116120000Y-89820000D01*
X115570000Y-89420000D02*
X115570000Y-89820000D01*
D14*
X114570000Y-87970000D02*
X114570000Y-91820000D01*
X116570000Y-87970000D02*
X116570000Y-91820000D01*
D12*
X117435334Y-81383143D02*
X117387715Y-81430762D01*
X117244858Y-81478381D01*
X117149620Y-81478381D01*
X117006762Y-81430762D01*
X116911524Y-81335524D01*
X116863905Y-81240286D01*
X116816286Y-81049810D01*
X116816286Y-80906952D01*
X116863905Y-80716476D01*
X116911524Y-80621238D01*
X117006762Y-80526000D01*
X117149620Y-80478381D01*
X117244858Y-80478381D01*
X117387715Y-80526000D01*
X117435334Y-80573619D01*
X118387715Y-81478381D02*
X117816286Y-81478381D01*
X118102000Y-81478381D02*
X118102000Y-80478381D01*
X118006762Y-80621238D01*
X117911524Y-80716476D01*
X117816286Y-80764095D01*
X126833334Y-92559143D02*
X126785715Y-92606762D01*
X126642858Y-92654381D01*
X126547620Y-92654381D01*
X126404762Y-92606762D01*
X126309524Y-92511524D01*
X126261905Y-92416286D01*
X126214286Y-92225810D01*
X126214286Y-92082952D01*
X126261905Y-91892476D01*
X126309524Y-91797238D01*
X126404762Y-91702000D01*
X126547620Y-91654381D01*
X126642858Y-91654381D01*
X126785715Y-91702000D01*
X126833334Y-91749619D01*
X127214286Y-91749619D02*
X127261905Y-91702000D01*
X127357143Y-91654381D01*
X127595239Y-91654381D01*
X127690477Y-91702000D01*
X127738096Y-91749619D01*
X127785715Y-91844857D01*
X127785715Y-91940095D01*
X127738096Y-92082952D01*
X127166667Y-92654381D01*
X127785715Y-92654381D01*
X114895334Y-96115143D02*
X114847715Y-96162762D01*
X114704858Y-96210381D01*
X114609620Y-96210381D01*
X114466762Y-96162762D01*
X114371524Y-96067524D01*
X114323905Y-95972286D01*
X114276286Y-95781810D01*
X114276286Y-95638952D01*
X114323905Y-95448476D01*
X114371524Y-95353238D01*
X114466762Y-95258000D01*
X114609620Y-95210381D01*
X114704858Y-95210381D01*
X114847715Y-95258000D01*
X114895334Y-95305619D01*
X115228667Y-95210381D02*
X115847715Y-95210381D01*
X115514381Y-95591333D01*
X115657239Y-95591333D01*
X115752477Y-95638952D01*
X115800096Y-95686571D01*
X115847715Y-95781810D01*
X115847715Y-96019905D01*
X115800096Y-96115143D01*
X115752477Y-96162762D01*
X115657239Y-96210381D01*
X115371524Y-96210381D01*
X115276286Y-96162762D01*
X115228667Y-96115143D01*
X114895334Y-98147143D02*
X114847715Y-98194762D01*
X114704858Y-98242381D01*
X114609620Y-98242381D01*
X114466762Y-98194762D01*
X114371524Y-98099524D01*
X114323905Y-98004286D01*
X114276286Y-97813810D01*
X114276286Y-97670952D01*
X114323905Y-97480476D01*
X114371524Y-97385238D01*
X114466762Y-97290000D01*
X114609620Y-97242381D01*
X114704858Y-97242381D01*
X114847715Y-97290000D01*
X114895334Y-97337619D01*
X115752477Y-97575714D02*
X115752477Y-98242381D01*
X115514381Y-97194762D02*
X115276286Y-97909048D01*
X115895334Y-97909048D01*
X115403334Y-115419143D02*
X115355715Y-115466762D01*
X115212858Y-115514381D01*
X115117620Y-115514381D01*
X114974762Y-115466762D01*
X114879524Y-115371524D01*
X114831905Y-115276286D01*
X114784286Y-115085810D01*
X114784286Y-114942952D01*
X114831905Y-114752476D01*
X114879524Y-114657238D01*
X114974762Y-114562000D01*
X115117620Y-114514381D01*
X115212858Y-114514381D01*
X115355715Y-114562000D01*
X115403334Y-114609619D01*
X116308096Y-114514381D02*
X115831905Y-114514381D01*
X115784286Y-114990571D01*
X115831905Y-114942952D01*
X115927143Y-114895333D01*
X116165239Y-114895333D01*
X116260477Y-114942952D01*
X116308096Y-114990571D01*
X116355715Y-115085810D01*
X116355715Y-115323905D01*
X116308096Y-115419143D01*
X116260477Y-115466762D01*
X116165239Y-115514381D01*
X115927143Y-115514381D01*
X115831905Y-115466762D01*
X115784286Y-115419143D01*
X117943334Y-115419143D02*
X117895715Y-115466762D01*
X117752858Y-115514381D01*
X117657620Y-115514381D01*
X117514762Y-115466762D01*
X117419524Y-115371524D01*
X117371905Y-115276286D01*
X117324286Y-115085810D01*
X117324286Y-114942952D01*
X117371905Y-114752476D01*
X117419524Y-114657238D01*
X117514762Y-114562000D01*
X117657620Y-114514381D01*
X117752858Y-114514381D01*
X117895715Y-114562000D01*
X117943334Y-114609619D01*
X118800477Y-114514381D02*
X118610000Y-114514381D01*
X118514762Y-114562000D01*
X118467143Y-114609619D01*
X118371905Y-114752476D01*
X118324286Y-114942952D01*
X118324286Y-115323905D01*
X118371905Y-115419143D01*
X118419524Y-115466762D01*
X118514762Y-115514381D01*
X118705239Y-115514381D01*
X118800477Y-115466762D01*
X118848096Y-115419143D01*
X118895715Y-115323905D01*
X118895715Y-115085810D01*
X118848096Y-114990571D01*
X118800477Y-114942952D01*
X118705239Y-114895333D01*
X118514762Y-114895333D01*
X118419524Y-114942952D01*
X118371905Y-114990571D01*
X118324286Y-115085810D01*
D15*
X100687143Y-105354285D02*
X100734762Y-105401904D01*
X100782381Y-105544761D01*
X100782381Y-105639999D01*
X100734762Y-105782857D01*
X100639524Y-105878095D01*
X100544286Y-105925714D01*
X100353810Y-105973333D01*
X100210952Y-105973333D01*
X100020476Y-105925714D01*
X99925238Y-105878095D01*
X99830000Y-105782857D01*
X99782381Y-105639999D01*
X99782381Y-105544761D01*
X99830000Y-105401904D01*
X99877619Y-105354285D01*
X99782381Y-104735238D02*
X99782381Y-104544761D01*
X99830000Y-104449523D01*
X99925238Y-104354285D01*
X100115714Y-104306666D01*
X100449048Y-104306666D01*
X100639524Y-104354285D01*
X100734762Y-104449523D01*
X100782381Y-104544761D01*
X100782381Y-104735238D01*
X100734762Y-104830476D01*
X100639524Y-104925714D01*
X100449048Y-104973333D01*
X100115714Y-104973333D01*
X99925238Y-104925714D01*
X99830000Y-104830476D01*
X99782381Y-104735238D01*
X100782381Y-103878095D02*
X99782381Y-103878095D01*
X100782381Y-103306666D01*
X99782381Y-103306666D01*
X100782381Y-102306666D02*
X100782381Y-102878095D01*
X100782381Y-102592381D02*
X99782381Y-102592381D01*
X99925238Y-102687619D01*
X100020476Y-102782857D01*
X100068095Y-102878095D01*
D12*
X110156667Y-94162571D02*
X109823333Y-94162571D01*
X109823333Y-94686381D02*
X109823333Y-93686381D01*
X110299524Y-93686381D01*
X111204286Y-94686381D02*
X110632857Y-94686381D01*
X110918571Y-94686381D02*
X110918571Y-93686381D01*
X110823333Y-93829238D01*
X110728095Y-93924476D01*
X110632857Y-93972095D01*
X132762667Y-82914381D02*
X132762667Y-83628667D01*
X132715047Y-83771524D01*
X132619809Y-83866762D01*
X132476952Y-83914381D01*
X132381714Y-83914381D01*
X133762667Y-83914381D02*
X133191238Y-83914381D01*
X133476952Y-83914381D02*
X133476952Y-82914381D01*
X133381714Y-83057238D01*
X133286476Y-83152476D01*
X133191238Y-83200095D01*
X108632667Y-95718381D02*
X108632667Y-96432667D01*
X108585047Y-96575524D01*
X108489809Y-96670762D01*
X108346952Y-96718381D01*
X108251714Y-96718381D01*
X109061238Y-95813619D02*
X109108857Y-95766000D01*
X109204095Y-95718381D01*
X109442191Y-95718381D01*
X109537429Y-95766000D01*
X109585048Y-95813619D01*
X109632667Y-95908857D01*
X109632667Y-96004095D01*
X109585048Y-96146952D01*
X109013619Y-96718381D01*
X109632667Y-96718381D01*
X132929334Y-111958381D02*
X132453143Y-111958381D01*
X132453143Y-110958381D01*
X133786477Y-111958381D02*
X133215048Y-111958381D01*
X133500762Y-111958381D02*
X133500762Y-110958381D01*
X133405524Y-111101238D01*
X133310286Y-111196476D01*
X133215048Y-111244095D01*
X110394762Y-81827619D02*
X110299524Y-81780000D01*
X110204286Y-81684762D01*
X110061429Y-81541905D01*
X109966190Y-81494286D01*
X109870952Y-81494286D01*
X109918571Y-81732381D02*
X109823333Y-81684762D01*
X109728095Y-81589524D01*
X109680476Y-81399048D01*
X109680476Y-81065714D01*
X109728095Y-80875238D01*
X109823333Y-80780000D01*
X109918571Y-80732381D01*
X110109048Y-80732381D01*
X110204286Y-80780000D01*
X110299524Y-80875238D01*
X110347143Y-81065714D01*
X110347143Y-81399048D01*
X110299524Y-81589524D01*
X110204286Y-81684762D01*
X110109048Y-81732381D01*
X109918571Y-81732381D01*
X111299524Y-81732381D02*
X110728095Y-81732381D01*
X111013809Y-81732381D02*
X111013809Y-80732381D01*
X110918571Y-80875238D01*
X110823333Y-80970476D01*
X110728095Y-81018095D01*
X134270762Y-94781619D02*
X134175524Y-94734000D01*
X134080286Y-94638762D01*
X133937429Y-94495905D01*
X133842190Y-94448286D01*
X133746952Y-94448286D01*
X133794571Y-94686381D02*
X133699333Y-94638762D01*
X133604095Y-94543524D01*
X133556476Y-94353048D01*
X133556476Y-94019714D01*
X133604095Y-93829238D01*
X133699333Y-93734000D01*
X133794571Y-93686381D01*
X133985048Y-93686381D01*
X134080286Y-93734000D01*
X134175524Y-93829238D01*
X134223143Y-94019714D01*
X134223143Y-94353048D01*
X134175524Y-94543524D01*
X134080286Y-94638762D01*
X133985048Y-94686381D01*
X133794571Y-94686381D01*
X134604095Y-93781619D02*
X134651714Y-93734000D01*
X134746952Y-93686381D01*
X134985048Y-93686381D01*
X135080286Y-93734000D01*
X135127905Y-93781619D01*
X135175524Y-93876857D01*
X135175524Y-93972095D01*
X135127905Y-94114952D01*
X134556476Y-94686381D01*
X135175524Y-94686381D01*
X124801334Y-98496381D02*
X124468000Y-98020190D01*
X124229905Y-98496381D02*
X124229905Y-97496381D01*
X124610858Y-97496381D01*
X124706096Y-97544000D01*
X124753715Y-97591619D01*
X124801334Y-97686857D01*
X124801334Y-97829714D01*
X124753715Y-97924952D01*
X124706096Y-97972571D01*
X124610858Y-98020190D01*
X124229905Y-98020190D01*
X125753715Y-98496381D02*
X125182286Y-98496381D01*
X125468000Y-98496381D02*
X125468000Y-97496381D01*
X125372762Y-97639238D01*
X125277524Y-97734476D01*
X125182286Y-97782095D01*
X111593334Y-99258381D02*
X111260000Y-98782190D01*
X111021905Y-99258381D02*
X111021905Y-98258381D01*
X111402858Y-98258381D01*
X111498096Y-98306000D01*
X111545715Y-98353619D01*
X111593334Y-98448857D01*
X111593334Y-98591714D01*
X111545715Y-98686952D01*
X111498096Y-98734571D01*
X111402858Y-98782190D01*
X111021905Y-98782190D01*
X111974286Y-98353619D02*
X112021905Y-98306000D01*
X112117143Y-98258381D01*
X112355239Y-98258381D01*
X112450477Y-98306000D01*
X112498096Y-98353619D01*
X112545715Y-98448857D01*
X112545715Y-98544095D01*
X112498096Y-98686952D01*
X111926667Y-99258381D01*
X112545715Y-99258381D01*
X109053334Y-99258381D02*
X108720000Y-98782190D01*
X108481905Y-99258381D02*
X108481905Y-98258381D01*
X108862858Y-98258381D01*
X108958096Y-98306000D01*
X109005715Y-98353619D01*
X109053334Y-98448857D01*
X109053334Y-98591714D01*
X109005715Y-98686952D01*
X108958096Y-98734571D01*
X108862858Y-98782190D01*
X108481905Y-98782190D01*
X109386667Y-98258381D02*
X110005715Y-98258381D01*
X109672381Y-98639333D01*
X109815239Y-98639333D01*
X109910477Y-98686952D01*
X109958096Y-98734571D01*
X110005715Y-98829810D01*
X110005715Y-99067905D01*
X109958096Y-99163143D01*
X109910477Y-99210762D01*
X109815239Y-99258381D01*
X109529524Y-99258381D01*
X109434286Y-99210762D01*
X109386667Y-99163143D01*
X114387334Y-106878381D02*
X114054000Y-106402190D01*
X113815905Y-106878381D02*
X113815905Y-105878381D01*
X114196858Y-105878381D01*
X114292096Y-105926000D01*
X114339715Y-105973619D01*
X114387334Y-106068857D01*
X114387334Y-106211714D01*
X114339715Y-106306952D01*
X114292096Y-106354571D01*
X114196858Y-106402190D01*
X113815905Y-106402190D01*
X115244477Y-106211714D02*
X115244477Y-106878381D01*
X115006381Y-105830762D02*
X114768286Y-106545048D01*
X115387334Y-106545048D01*
X109307334Y-106878381D02*
X108974000Y-106402190D01*
X108735905Y-106878381D02*
X108735905Y-105878381D01*
X109116858Y-105878381D01*
X109212096Y-105926000D01*
X109259715Y-105973619D01*
X109307334Y-106068857D01*
X109307334Y-106211714D01*
X109259715Y-106306952D01*
X109212096Y-106354571D01*
X109116858Y-106402190D01*
X108735905Y-106402190D01*
X110212096Y-105878381D02*
X109735905Y-105878381D01*
X109688286Y-106354571D01*
X109735905Y-106306952D01*
X109831143Y-106259333D01*
X110069239Y-106259333D01*
X110164477Y-106306952D01*
X110212096Y-106354571D01*
X110259715Y-106449810D01*
X110259715Y-106687905D01*
X110212096Y-106783143D01*
X110164477Y-106830762D01*
X110069239Y-106878381D01*
X109831143Y-106878381D01*
X109735905Y-106830762D01*
X109688286Y-106783143D01*
X120483334Y-115514381D02*
X120150000Y-115038190D01*
X119911905Y-115514381D02*
X119911905Y-114514381D01*
X120292858Y-114514381D01*
X120388096Y-114562000D01*
X120435715Y-114609619D01*
X120483334Y-114704857D01*
X120483334Y-114847714D01*
X120435715Y-114942952D01*
X120388096Y-114990571D01*
X120292858Y-115038190D01*
X119911905Y-115038190D01*
X121340477Y-114514381D02*
X121150000Y-114514381D01*
X121054762Y-114562000D01*
X121007143Y-114609619D01*
X120911905Y-114752476D01*
X120864286Y-114942952D01*
X120864286Y-115323905D01*
X120911905Y-115419143D01*
X120959524Y-115466762D01*
X121054762Y-115514381D01*
X121245239Y-115514381D01*
X121340477Y-115466762D01*
X121388096Y-115419143D01*
X121435715Y-115323905D01*
X121435715Y-115085810D01*
X121388096Y-114990571D01*
X121340477Y-114942952D01*
X121245239Y-114895333D01*
X121054762Y-114895333D01*
X120959524Y-114942952D01*
X120911905Y-114990571D01*
X120864286Y-115085810D01*
X121158095Y-83272381D02*
X121158095Y-84081905D01*
X121205714Y-84177143D01*
X121253333Y-84224762D01*
X121348571Y-84272381D01*
X121539048Y-84272381D01*
X121634286Y-84224762D01*
X121681905Y-84177143D01*
X121729524Y-84081905D01*
X121729524Y-83272381D01*
X122729524Y-84272381D02*
X122158095Y-84272381D01*
X122443809Y-84272381D02*
X122443809Y-83272381D01*
X122348571Y-83415238D01*
X122253333Y-83510476D01*
X122158095Y-83558095D01*
X119124815Y-99781461D02*
X119124815Y-100592345D01*
X119172514Y-100687743D01*
X119220213Y-100735442D01*
X119315611Y-100783141D01*
X119506408Y-100783141D01*
X119601806Y-100735442D01*
X119649505Y-100687743D01*
X119697204Y-100592345D01*
X119697204Y-99781461D01*
X120126495Y-99876859D02*
X120174194Y-99829160D01*
X120269592Y-99781461D01*
X120508088Y-99781461D01*
X120603486Y-99829160D01*
X120651185Y-99876859D01*
X120698884Y-99972257D01*
X120698884Y-100067655D01*
X120651185Y-100210752D01*
X120078796Y-100783141D01*
X120698884Y-100783141D01*
X126523905Y-96480381D02*
X127142953Y-96480381D01*
X126809619Y-96861333D01*
X126952477Y-96861333D01*
X127047715Y-96908952D01*
X127095334Y-96956571D01*
X127142953Y-97051810D01*
X127142953Y-97289905D01*
X127095334Y-97385143D01*
X127047715Y-97432762D01*
X126952477Y-97480381D01*
X126666762Y-97480381D01*
X126571524Y-97432762D01*
X126523905Y-97385143D01*
X127428667Y-96480381D02*
X127762000Y-97480381D01*
X128095334Y-96480381D01*
X128333429Y-96480381D02*
X128952477Y-96480381D01*
X128619143Y-96861333D01*
X128762001Y-96861333D01*
X128857239Y-96908952D01*
X128904858Y-96956571D01*
X128952477Y-97051810D01*
X128952477Y-97289905D01*
X128904858Y-97385143D01*
X128857239Y-97432762D01*
X128762001Y-97480381D01*
X128476286Y-97480381D01*
X128381048Y-97432762D01*
X128333429Y-97385143D01*
X112363334Y-91654381D02*
X111887143Y-91654381D01*
X111839524Y-92130571D01*
X111887143Y-92082952D01*
X111982381Y-92035333D01*
X112220477Y-92035333D01*
X112315715Y-92082952D01*
X112363334Y-92130571D01*
X112410953Y-92225810D01*
X112410953Y-92463905D01*
X112363334Y-92559143D01*
X112315715Y-92606762D01*
X112220477Y-92654381D01*
X111982381Y-92654381D01*
X111887143Y-92606762D01*
X111839524Y-92559143D01*
X112696667Y-91654381D02*
X113030000Y-92654381D01*
X113363334Y-91654381D01*
X114220477Y-92654381D02*
X113649048Y-92654381D01*
X113934762Y-92654381D02*
X113934762Y-91654381D01*
X113839524Y-91797238D01*
X113744286Y-91892476D01*
X113649048Y-91940095D01*
X109140762Y-88082381D02*
X108569333Y-88082381D01*
X108855047Y-88082381D02*
X108855047Y-87082381D01*
X108759809Y-87225238D01*
X108664571Y-87320476D01*
X108569333Y-87368095D01*
X109521714Y-87177619D02*
X109569333Y-87130000D01*
X109664571Y-87082381D01*
X109902667Y-87082381D01*
X109997905Y-87130000D01*
X110045524Y-87177619D01*
X110093143Y-87272857D01*
X110093143Y-87368095D01*
X110045524Y-87510952D01*
X109474095Y-88082381D01*
X110093143Y-88082381D01*
X110378857Y-87082381D02*
X110712190Y-88082381D01*
X111045524Y-87082381D01*
X111902667Y-88082381D02*
X111331238Y-88082381D01*
X111616952Y-88082381D02*
X111616952Y-87082381D01*
X111521714Y-87225238D01*
X111426476Y-87320476D01*
X111331238Y-87368095D01*
X126825524Y-114752381D02*
X126349333Y-114752381D01*
X126349333Y-113752381D01*
X127492191Y-114228571D02*
X127635048Y-114276190D01*
X127682667Y-114323810D01*
X127730286Y-114419048D01*
X127730286Y-114561905D01*
X127682667Y-114657143D01*
X127635048Y-114704762D01*
X127539810Y-114752381D01*
X127158857Y-114752381D01*
X127158857Y-113752381D01*
X127492191Y-113752381D01*
X127587429Y-113800000D01*
X127635048Y-113847619D01*
X127682667Y-113942857D01*
X127682667Y-114038095D01*
X127635048Y-114133333D01*
X127587429Y-114180952D01*
X127492191Y-114228571D01*
X127158857Y-114228571D01*
X128349333Y-113752381D02*
X128539810Y-113752381D01*
X128635048Y-113800000D01*
X128730286Y-113895238D01*
X128777905Y-114085714D01*
X128777905Y-114419048D01*
X128730286Y-114609524D01*
X128635048Y-114704762D01*
X128539810Y-114752381D01*
X128349333Y-114752381D01*
X128254095Y-114704762D01*
X128158857Y-114609524D01*
X128111238Y-114419048D01*
X128111238Y-114085714D01*
X128158857Y-113895238D01*
X128254095Y-113800000D01*
X128349333Y-113752381D01*
X129730286Y-114752381D02*
X129158857Y-114752381D01*
X129444571Y-114752381D02*
X129444571Y-113752381D01*
X129349333Y-113895238D01*
X129254095Y-113990476D01*
X129158857Y-114038095D01*
X120356381Y-105187524D02*
X121356381Y-104854191D01*
X120356381Y-104520857D01*
X121356381Y-104187524D02*
X120356381Y-104187524D01*
X120356381Y-103949429D01*
X120404000Y-103806571D01*
X120499238Y-103711333D01*
X120594476Y-103663714D01*
X120784952Y-103616095D01*
X120927810Y-103616095D01*
X121118286Y-103663714D01*
X121213524Y-103711333D01*
X121308762Y-103806571D01*
X121356381Y-103949429D01*
X121356381Y-104187524D01*
X121356381Y-103187524D02*
X120356381Y-103187524D01*
X120356381Y-102949429D01*
X120404000Y-102806571D01*
X120499238Y-102711333D01*
X120594476Y-102663714D01*
X120784952Y-102616095D01*
X120927810Y-102616095D01*
X121118286Y-102663714D01*
X121213524Y-102711333D01*
X121308762Y-102806571D01*
X121356381Y-102949429D01*
X121356381Y-103187524D01*
X121356381Y-101663714D02*
X121356381Y-102235143D01*
X121356381Y-101949429D02*
X120356381Y-101949429D01*
X120499238Y-102044667D01*
X120594476Y-102139905D01*
X120642095Y-102235143D01*
X133119905Y-98750381D02*
X133119905Y-97750381D01*
X133358000Y-97750381D01*
X133500858Y-97798000D01*
X133596096Y-97893238D01*
X133643715Y-97988476D01*
X133691334Y-98178952D01*
X133691334Y-98321810D01*
X133643715Y-98512286D01*
X133596096Y-98607524D01*
X133500858Y-98702762D01*
X133358000Y-98750381D01*
X133119905Y-98750381D01*
X134072286Y-97845619D02*
X134119905Y-97798000D01*
X134215143Y-97750381D01*
X134453239Y-97750381D01*
X134548477Y-97798000D01*
X134596096Y-97845619D01*
X134643715Y-97940857D01*
X134643715Y-98036095D01*
X134596096Y-98178952D01*
X134024667Y-98750381D01*
X134643715Y-98750381D01*
X115085905Y-93670381D02*
X115085905Y-92670381D01*
X115324000Y-92670381D01*
X115466858Y-92718000D01*
X115562096Y-92813238D01*
X115609715Y-92908476D01*
X115657334Y-93098952D01*
X115657334Y-93241810D01*
X115609715Y-93432286D01*
X115562096Y-93527524D01*
X115466858Y-93622762D01*
X115324000Y-93670381D01*
X115085905Y-93670381D01*
X116609715Y-93670381D02*
X116038286Y-93670381D01*
X116324000Y-93670381D02*
X116324000Y-92670381D01*
X116228762Y-92813238D01*
X116133524Y-92908476D01*
X116038286Y-92956095D01*
X100514305Y-111749200D02*
X100419067Y-111701581D01*
X100276210Y-111701581D01*
X100133352Y-111749200D01*
X100038114Y-111844438D01*
X99990495Y-111939676D01*
X99942876Y-112130152D01*
X99942876Y-112273010D01*
X99990495Y-112463486D01*
X100038114Y-112558724D01*
X100133352Y-112653962D01*
X100276210Y-112701581D01*
X100371448Y-112701581D01*
X100514305Y-112653962D01*
X100561924Y-112606343D01*
X100561924Y-112273010D01*
X100371448Y-112273010D01*
X100990495Y-112701581D02*
X100990495Y-111701581D01*
X101561924Y-112701581D01*
X101561924Y-111701581D01*
X102038114Y-112701581D02*
X102038114Y-111701581D01*
X102276209Y-111701581D01*
X102419067Y-111749200D01*
X102514305Y-111844438D01*
X102561924Y-111939676D01*
X102609543Y-112130152D01*
X102609543Y-112273010D01*
X102561924Y-112463486D01*
X102514305Y-112558724D01*
X102419067Y-112653962D01*
X102276209Y-112701581D01*
X102038114Y-112701581D01*
X103561924Y-112701581D02*
X102990495Y-112701581D01*
X103276209Y-112701581D02*
X103276209Y-111701581D01*
X103180971Y-111844438D01*
X103085733Y-111939676D01*
X102990495Y-111987295D01*
%LPC*%
D16*
X107950000Y-111760000D03*
X129032000Y-83312000D03*
D17*
X115570000Y-85520000D03*
X115570000Y-82120000D03*
X128270000Y-90600000D03*
X128270000Y-87200000D03*
D18*
X117160000Y-95758000D03*
X119060000Y-95758000D03*
X117160000Y-97790000D03*
X119060000Y-97790000D03*
D19*
X115570000Y-110810000D03*
X115570000Y-112710000D03*
D20*
X118110000Y-110510000D03*
X118110000Y-113010000D03*
D21*
X100330000Y-100290000D03*
X100330000Y-107990000D03*
D22*
X102680000Y-101040000D03*
X102680000Y-107240000D03*
D23*
X103010000Y-104140000D03*
X103010000Y-104790000D03*
X103010000Y-105440000D03*
X103010000Y-103490000D03*
X103010000Y-102840000D03*
D24*
X110490000Y-90340000D03*
X110490000Y-92540000D03*
D25*
X133096000Y-85852000D03*
D26*
X133096000Y-88392000D03*
D27*
X104140000Y-93980000D03*
D28*
X104140000Y-88900000D03*
D29*
X128270000Y-100960000D03*
X128270000Y-109860000D03*
D30*
X109540000Y-84820000D03*
X111440000Y-84820000D03*
X110490000Y-82820000D03*
D31*
X131080000Y-91760000D03*
X131080000Y-93660000D03*
X133080000Y-92710000D03*
D24*
X123190000Y-95420000D03*
X123190000Y-97620000D03*
X111760000Y-100500000D03*
X111760000Y-102700000D03*
X109220000Y-100500000D03*
X109220000Y-102700000D03*
D32*
X116670000Y-107950000D03*
X114470000Y-107950000D03*
X111590000Y-107950000D03*
X109390000Y-107950000D03*
D24*
X120650000Y-110660000D03*
X120650000Y-112860000D03*
D33*
X124206000Y-83820000D03*
D34*
X121920000Y-90170000D03*
D33*
X119634000Y-83820000D03*
D35*
X118840000Y-103845000D03*
X118840000Y-103195000D03*
X118840000Y-102545000D03*
X118840000Y-101895000D03*
D36*
X117815000Y-100870000D03*
X117165000Y-100870000D03*
X116515000Y-100870000D03*
X115865000Y-100870000D03*
D35*
X114840000Y-101895000D03*
X114840000Y-102545000D03*
X114840000Y-103195000D03*
X114840000Y-103845000D03*
D36*
X115865000Y-104870000D03*
X116515000Y-104870000D03*
X117165000Y-104870000D03*
X117815000Y-104870000D03*
D37*
X116840000Y-102870000D03*
D38*
X127000000Y-95250000D03*
X113030000Y-93980000D03*
X113030000Y-87630000D03*
X124968000Y-114300000D03*
X120650000Y-106680000D03*
D16*
X102616000Y-83312000D03*
D39*
X130680000Y-96520000D03*
X133480000Y-96520000D03*
X115570000Y-88770000D03*
X115570000Y-91570000D03*
D38*
X101752400Y-114249200D03*
M02*
