%TF.GenerationSoftware,KiCad,Pcbnew,4.0.7*%
%TF.CreationDate,2017-10-11T16:39:00+02:00*%
%TF.ProjectId,ESP12_pcb,45535031325F7063622E6B696361645F,rev?*%
%TF.FileFunction,Copper,L1,Top,Signal*%
%FSLAX46Y46*%
G04 Gerber Fmt 4.6, Leading zero omitted, Abs format (unit mm)*
G04 Created by KiCad (PCBNEW 4.0.7) date Wednesday, 11 October 2017 'PMt' 16:39:00*
%MOMM*%
%LPD*%
G01*
G04 APERTURE LIST*
%ADD10C,0.127000*%
%ADD11C,0.600000*%
%ADD12R,1.200000X0.900000*%
%ADD13R,0.750000X1.200000*%
%ADD14R,1.200000X0.750000*%
%ADD15R,1.700000X1.700000*%
%ADD16O,1.700000X1.700000*%
%ADD17R,0.900000X0.800000*%
%ADD18R,0.900000X1.200000*%
%ADD19C,1.500000*%
%ADD20R,4.000000X1.750000*%
%ADD21R,2.400000X1.500000*%
%ADD22C,0.685800*%
%ADD23C,0.250000*%
%ADD24C,0.152400*%
%ADD25C,0.150000*%
G04 APERTURE END LIST*
D10*
D11*
X56500000Y-68400000D03*
X50300000Y-71800000D03*
X49150000Y-71800000D03*
X50300000Y-68350000D03*
X49150000Y-68325000D03*
D12*
X54000000Y-71525000D03*
X56200000Y-71525000D03*
D13*
X54000000Y-81800000D03*
X54000000Y-83700000D03*
D14*
X54125000Y-75375000D03*
X56025000Y-75375000D03*
X54125000Y-74150000D03*
X56025000Y-74150000D03*
X45300000Y-75650000D03*
X43400000Y-75650000D03*
D15*
X55450000Y-80165000D03*
D16*
X55450000Y-77625000D03*
D17*
X53475000Y-79850000D03*
X53475000Y-77950000D03*
X51475000Y-78900000D03*
D12*
X51500000Y-73500000D03*
X49300000Y-73500000D03*
X53975000Y-72875000D03*
X56175000Y-72875000D03*
X43200000Y-69550000D03*
X45400000Y-69550000D03*
X45400000Y-72750000D03*
X43200000Y-72750000D03*
X45400000Y-71150000D03*
X43200000Y-71150000D03*
X43200000Y-74350000D03*
X45400000Y-74350000D03*
D18*
X48662944Y-81786326D03*
X48662944Y-83986326D03*
X52737944Y-81811326D03*
X52737944Y-84011326D03*
X50000000Y-81775000D03*
X50000000Y-83975000D03*
X51400000Y-81850000D03*
X51400000Y-84050000D03*
D19*
X49700000Y-78050000D03*
X43475000Y-83725000D03*
X45825000Y-83750000D03*
D15*
X45820000Y-86310000D03*
D16*
X45820000Y-88850000D03*
X48360000Y-86310000D03*
X48360000Y-88850000D03*
X50900000Y-86310000D03*
X50900000Y-88850000D03*
X53440000Y-86310000D03*
X53440000Y-88850000D03*
D12*
X45400000Y-67950000D03*
X43200000Y-67950000D03*
D11*
X54000000Y-84975000D03*
D20*
X53900000Y-69925000D03*
X53900000Y-66675000D03*
D21*
X47275000Y-79250000D03*
X43675000Y-79250000D03*
D22*
X47557497Y-69008757D03*
X55000588Y-71497490D03*
X54828099Y-73865585D03*
X54678098Y-68125000D03*
X48214286Y-72319702D03*
X51601287Y-72032195D03*
X46700000Y-82600000D03*
X52190428Y-85351068D03*
X44300000Y-70350000D03*
D23*
X47662944Y-81511326D02*
X47937944Y-81786326D01*
X47937944Y-81786326D02*
X48662944Y-81786326D01*
X53440000Y-88850000D02*
X54754001Y-87535999D01*
X54754001Y-87535999D02*
X54754001Y-82779001D01*
X54754001Y-82779001D02*
X54000000Y-82025000D01*
X54000000Y-82025000D02*
X54000000Y-81800000D01*
D24*
X47572595Y-69023855D02*
X47557497Y-69008757D01*
X47903088Y-69023855D02*
X47572595Y-69023855D01*
D23*
X47075000Y-69851943D02*
X47903088Y-69023855D01*
X47075000Y-74725000D02*
X47075000Y-69851943D01*
X46150000Y-75650000D02*
X47075000Y-74725000D01*
X45300000Y-75650000D02*
X46150000Y-75650000D01*
D24*
X46829233Y-67950000D02*
X47903088Y-69023855D01*
X45400000Y-67950000D02*
X46829233Y-67950000D01*
X43475000Y-83725000D02*
X45688674Y-81511326D01*
X45688674Y-81511326D02*
X47662944Y-81511326D01*
X47175000Y-79250000D02*
X47175000Y-81023382D01*
X47175000Y-81023382D02*
X47662944Y-81511326D01*
D23*
X47175000Y-79250000D02*
X47175000Y-78750000D01*
X47175000Y-78750000D02*
X45300000Y-76875000D01*
X45300000Y-76875000D02*
X45300000Y-75650000D01*
D24*
X44800000Y-67350000D02*
X45400000Y-67950000D01*
X53900000Y-69925000D02*
X53900000Y-71425000D01*
X53900000Y-71425000D02*
X54000000Y-71525000D01*
X49700000Y-78050000D02*
X53375000Y-78050000D01*
X53375000Y-78050000D02*
X53475000Y-77950000D01*
X54973078Y-71525000D02*
X55000588Y-71497490D01*
X54000000Y-71525000D02*
X54973078Y-71525000D01*
X54125000Y-74150000D02*
X54543684Y-74150000D01*
X54543684Y-74150000D02*
X54828099Y-73865585D01*
X54125000Y-74150000D02*
X53372600Y-74150000D01*
X53372600Y-74150000D02*
X52722600Y-73500000D01*
X52722600Y-73500000D02*
X51500000Y-73500000D01*
X54125000Y-75375000D02*
X54125000Y-74150000D01*
X53475000Y-77175000D02*
X54125000Y-76525000D01*
X54125000Y-76525000D02*
X54125000Y-75375000D01*
X53475000Y-77950000D02*
X53475000Y-77175000D01*
X53900000Y-75375000D02*
X54125000Y-75375000D01*
X55450000Y-77625000D02*
X54175000Y-78900000D01*
X54175000Y-78900000D02*
X51475000Y-78900000D01*
X53900000Y-66675000D02*
X53900000Y-67702400D01*
X53900000Y-67702400D02*
X54322600Y-68125000D01*
X54322600Y-68125000D02*
X54678098Y-68125000D01*
X49300000Y-73500000D02*
X48547600Y-73500000D01*
X48547600Y-73500000D02*
X48214286Y-73166686D01*
X48214286Y-73166686D02*
X48214286Y-72804635D01*
X48214286Y-72804635D02*
X48214286Y-72319702D01*
X52444092Y-72875000D02*
X51944186Y-72375094D01*
X53975000Y-72875000D02*
X52444092Y-72875000D01*
X51944186Y-72375094D02*
X51601287Y-72032195D01*
X54544799Y-72305201D02*
X53975000Y-72875000D01*
X55969268Y-71525000D02*
X55189067Y-72305201D01*
X56200000Y-71525000D02*
X55969268Y-71525000D01*
X55189067Y-72305201D02*
X54544799Y-72305201D01*
X43200000Y-69550000D02*
X43200000Y-68947600D01*
X43200000Y-68947600D02*
X43200000Y-67950000D01*
X48662944Y-83986326D02*
X47860596Y-83986326D01*
X47860596Y-83986326D02*
X47624270Y-83750000D01*
X48360000Y-85565000D02*
X48662944Y-85262056D01*
X48662944Y-85262056D02*
X48662944Y-83986326D01*
X48360000Y-86310000D02*
X48360000Y-85565000D01*
X47662944Y-83711326D02*
X47662944Y-83562944D01*
X47662944Y-83562944D02*
X46700000Y-82600000D01*
X45825000Y-83750000D02*
X47624270Y-83750000D01*
X47624270Y-83750000D02*
X47662944Y-83711326D01*
X52190428Y-85351068D02*
X52190428Y-84558842D01*
X52190428Y-84558842D02*
X52737944Y-84011326D01*
X52190428Y-85836001D02*
X52190428Y-85351068D01*
X52190428Y-87559572D02*
X52190428Y-85836001D01*
X50900000Y-88850000D02*
X52190428Y-87559572D01*
X50900000Y-85750000D02*
X51400000Y-85250000D01*
X51400000Y-85250000D02*
X51400000Y-84050000D01*
X50900000Y-86310000D02*
X50900000Y-85750000D01*
X50400000Y-85810000D02*
X50900000Y-86310000D01*
X50000000Y-84727400D02*
X49719799Y-85007601D01*
X49719799Y-85007601D02*
X49719799Y-87490201D01*
X49719799Y-87490201D02*
X49540201Y-87669799D01*
X48360000Y-88850000D02*
X49540201Y-87669799D01*
X50000000Y-84727400D02*
X50000000Y-83975000D01*
X45400000Y-71150000D02*
X45400000Y-72750000D01*
X45400000Y-69550000D02*
X45400000Y-70152400D01*
X45400000Y-70152400D02*
X45400000Y-71150000D01*
X43200000Y-71150000D02*
X43500000Y-71150000D01*
X43500000Y-71150000D02*
X44300000Y-70350000D01*
X43200000Y-72750000D02*
X43200000Y-74350000D01*
X43200000Y-71150000D02*
X43200000Y-72750000D01*
D25*
G36*
X55350000Y-72793750D02*
X55406250Y-72850000D01*
X56150000Y-72850000D01*
X56150000Y-72830000D01*
X56200000Y-72830000D01*
X56200000Y-72850000D01*
X56220000Y-72850000D01*
X56220000Y-72900000D01*
X56200000Y-72900000D01*
X56200000Y-73493750D01*
X56256250Y-73550000D01*
X56106250Y-73550000D01*
X56050000Y-73606250D01*
X56050000Y-74125000D01*
X56793750Y-74125000D01*
X56850000Y-74068750D01*
X56850000Y-73730244D01*
X56815746Y-73647548D01*
X56752452Y-73584254D01*
X56669755Y-73550000D01*
X56819755Y-73550000D01*
X56902452Y-73515746D01*
X56911500Y-73506698D01*
X56911500Y-89521584D01*
X56852118Y-89820117D01*
X56699110Y-90049110D01*
X56470117Y-90202118D01*
X56171584Y-90261500D01*
X43228416Y-90261500D01*
X42929883Y-90202118D01*
X42700890Y-90049110D01*
X42547882Y-89820117D01*
X42488500Y-89521584D01*
X42488500Y-88826902D01*
X44641000Y-88826902D01*
X44641000Y-88873098D01*
X44730746Y-89324282D01*
X44986321Y-89706777D01*
X45368816Y-89962352D01*
X45820000Y-90052098D01*
X46271184Y-89962352D01*
X46653679Y-89706777D01*
X46909254Y-89324282D01*
X46999000Y-88873098D01*
X46999000Y-88826902D01*
X46909254Y-88375718D01*
X46653679Y-87993223D01*
X46271184Y-87737648D01*
X45820000Y-87647902D01*
X45368816Y-87737648D01*
X44986321Y-87993223D01*
X44730746Y-88375718D01*
X44641000Y-88826902D01*
X42488500Y-88826902D01*
X42488500Y-86391250D01*
X44745000Y-86391250D01*
X44745000Y-87204755D01*
X44779254Y-87287452D01*
X44842548Y-87350746D01*
X44925244Y-87385000D01*
X45738750Y-87385000D01*
X45795000Y-87328750D01*
X45795000Y-86335000D01*
X45845000Y-86335000D01*
X45845000Y-87328750D01*
X45901250Y-87385000D01*
X46714756Y-87385000D01*
X46797452Y-87350746D01*
X46860746Y-87287452D01*
X46895000Y-87204755D01*
X46895000Y-86391250D01*
X46838750Y-86335000D01*
X45845000Y-86335000D01*
X45795000Y-86335000D01*
X44801250Y-86335000D01*
X44745000Y-86391250D01*
X42488500Y-86391250D01*
X42488500Y-85415245D01*
X44745000Y-85415245D01*
X44745000Y-86228750D01*
X44801250Y-86285000D01*
X45795000Y-86285000D01*
X45795000Y-85291250D01*
X45845000Y-85291250D01*
X45845000Y-86285000D01*
X46838750Y-86285000D01*
X46895000Y-86228750D01*
X46895000Y-85415245D01*
X46860746Y-85332548D01*
X46797452Y-85269254D01*
X46714756Y-85235000D01*
X45901250Y-85235000D01*
X45845000Y-85291250D01*
X45795000Y-85291250D01*
X45738750Y-85235000D01*
X44925244Y-85235000D01*
X44842548Y-85269254D01*
X44779254Y-85332548D01*
X44745000Y-85415245D01*
X42488500Y-85415245D01*
X42488500Y-84163004D01*
X42559735Y-84335406D01*
X42862997Y-84639198D01*
X43259432Y-84803812D01*
X43688685Y-84804187D01*
X44085406Y-84640265D01*
X44389198Y-84337003D01*
X44553812Y-83940568D01*
X44554187Y-83511315D01*
X44468676Y-83304364D01*
X45856514Y-81916526D01*
X47426092Y-81916526D01*
X47616918Y-82107353D01*
X47764206Y-82205767D01*
X47877499Y-82228303D01*
X47877499Y-82386326D01*
X47900440Y-82508246D01*
X47972494Y-82620222D01*
X48082437Y-82695343D01*
X48212944Y-82721771D01*
X49112944Y-82721771D01*
X49234864Y-82698830D01*
X49341112Y-82630462D01*
X49419493Y-82684017D01*
X49550000Y-82710445D01*
X50450000Y-82710445D01*
X50571920Y-82687504D01*
X50670891Y-82623818D01*
X50709550Y-82683896D01*
X50819493Y-82759017D01*
X50950000Y-82785445D01*
X51850000Y-82785445D01*
X51971920Y-82762504D01*
X52083896Y-82690450D01*
X52093378Y-82676573D01*
X52157437Y-82720343D01*
X52287944Y-82746771D01*
X53187944Y-82746771D01*
X53309864Y-82723830D01*
X53416112Y-82655462D01*
X53494493Y-82709017D01*
X53625000Y-82735445D01*
X54068392Y-82735445D01*
X54207947Y-82875000D01*
X54081250Y-82875000D01*
X54025000Y-82931250D01*
X54025000Y-83675000D01*
X54045000Y-83675000D01*
X54045000Y-83725000D01*
X54025000Y-83725000D01*
X54025000Y-84468750D01*
X54081250Y-84525000D01*
X54300001Y-84525000D01*
X54300001Y-85492617D01*
X54273679Y-85453223D01*
X53891184Y-85197648D01*
X53440000Y-85107902D01*
X52988816Y-85197648D01*
X52862388Y-85282124D01*
X52862444Y-85218005D01*
X52760369Y-84970965D01*
X52736217Y-84946771D01*
X53187944Y-84946771D01*
X53309864Y-84923830D01*
X53421840Y-84851776D01*
X53496961Y-84741833D01*
X53523389Y-84611326D01*
X53523389Y-84501450D01*
X53580244Y-84525000D01*
X53918750Y-84525000D01*
X53975000Y-84468750D01*
X53975000Y-83725000D01*
X53955000Y-83725000D01*
X53955000Y-83675000D01*
X53975000Y-83675000D01*
X53975000Y-82931250D01*
X53918750Y-82875000D01*
X53580244Y-82875000D01*
X53497548Y-82909254D01*
X53434254Y-82972548D01*
X53400000Y-83055245D01*
X53400000Y-83158029D01*
X53318451Y-83102309D01*
X53187944Y-83075881D01*
X52287944Y-83075881D01*
X52166024Y-83098822D01*
X52054048Y-83170876D01*
X52044566Y-83184753D01*
X51980507Y-83140983D01*
X51850000Y-83114555D01*
X50950000Y-83114555D01*
X50828080Y-83137496D01*
X50729109Y-83201182D01*
X50690450Y-83141104D01*
X50580507Y-83065983D01*
X50450000Y-83039555D01*
X49550000Y-83039555D01*
X49428080Y-83062496D01*
X49321832Y-83130864D01*
X49243451Y-83077309D01*
X49112944Y-83050881D01*
X48212944Y-83050881D01*
X48091024Y-83073822D01*
X47979048Y-83145876D01*
X47914047Y-83241008D01*
X47371814Y-82698774D01*
X47372016Y-82466937D01*
X47269941Y-82219897D01*
X47081098Y-82030723D01*
X46834235Y-81928217D01*
X46566937Y-81927984D01*
X46319897Y-82030059D01*
X46130723Y-82218902D01*
X46028217Y-82465765D01*
X46028038Y-82671177D01*
X45611315Y-82670813D01*
X45214594Y-82834735D01*
X44910802Y-83137997D01*
X44746188Y-83534432D01*
X44745813Y-83963685D01*
X44909735Y-84360406D01*
X45212997Y-84664198D01*
X45609432Y-84828812D01*
X46038685Y-84829187D01*
X46435406Y-84665265D01*
X46739198Y-84362003D01*
X46825070Y-84155200D01*
X47456431Y-84155200D01*
X47574074Y-84272843D01*
X47574076Y-84272846D01*
X47705533Y-84360682D01*
X47860596Y-84391526D01*
X47877499Y-84391526D01*
X47877499Y-84586326D01*
X47900440Y-84708246D01*
X47972494Y-84820222D01*
X48082437Y-84895343D01*
X48212944Y-84921771D01*
X48257744Y-84921771D01*
X48257744Y-85094217D01*
X48215270Y-85136691D01*
X47908816Y-85197648D01*
X47526321Y-85453223D01*
X47270746Y-85835718D01*
X47181000Y-86286902D01*
X47181000Y-86333098D01*
X47270746Y-86784282D01*
X47526321Y-87166777D01*
X47908816Y-87422352D01*
X48360000Y-87512098D01*
X48811184Y-87422352D01*
X49193679Y-87166777D01*
X49314599Y-86985807D01*
X49314599Y-87322361D01*
X49253681Y-87383279D01*
X49253679Y-87383282D01*
X48864013Y-87772947D01*
X48811184Y-87737648D01*
X48360000Y-87647902D01*
X47908816Y-87737648D01*
X47526321Y-87993223D01*
X47270746Y-88375718D01*
X47181000Y-88826902D01*
X47181000Y-88873098D01*
X47270746Y-89324282D01*
X47526321Y-89706777D01*
X47908816Y-89962352D01*
X48360000Y-90052098D01*
X48811184Y-89962352D01*
X49193679Y-89706777D01*
X49449254Y-89324282D01*
X49539000Y-88873098D01*
X49539000Y-88826902D01*
X49449254Y-88375718D01*
X49432458Y-88350581D01*
X49826718Y-87956321D01*
X49826721Y-87956319D01*
X50006319Y-87776721D01*
X50094155Y-87645265D01*
X50125000Y-87490201D01*
X50124999Y-87490196D01*
X50124999Y-87205984D01*
X50448816Y-87422352D01*
X50900000Y-87512098D01*
X51351184Y-87422352D01*
X51733679Y-87166777D01*
X51785228Y-87089628D01*
X51785228Y-87391732D01*
X51404013Y-87772947D01*
X51351184Y-87737648D01*
X50900000Y-87647902D01*
X50448816Y-87737648D01*
X50066321Y-87993223D01*
X49810746Y-88375718D01*
X49721000Y-88826902D01*
X49721000Y-88873098D01*
X49810746Y-89324282D01*
X50066321Y-89706777D01*
X50448816Y-89962352D01*
X50900000Y-90052098D01*
X51351184Y-89962352D01*
X51733679Y-89706777D01*
X51989254Y-89324282D01*
X52079000Y-88873098D01*
X52079000Y-88826902D01*
X51989254Y-88375718D01*
X51972458Y-88350582D01*
X52476948Y-87846092D01*
X52564784Y-87714635D01*
X52595629Y-87559572D01*
X52595628Y-87559567D01*
X52595628Y-87150774D01*
X52606321Y-87166777D01*
X52988816Y-87422352D01*
X53440000Y-87512098D01*
X53891184Y-87422352D01*
X54273679Y-87166777D01*
X54300001Y-87127383D01*
X54300001Y-87347946D01*
X53902643Y-87745305D01*
X53891184Y-87737648D01*
X53440000Y-87647902D01*
X52988816Y-87737648D01*
X52606321Y-87993223D01*
X52350746Y-88375718D01*
X52261000Y-88826902D01*
X52261000Y-88873098D01*
X52350746Y-89324282D01*
X52606321Y-89706777D01*
X52988816Y-89962352D01*
X53440000Y-90052098D01*
X53891184Y-89962352D01*
X54273679Y-89706777D01*
X54529254Y-89324282D01*
X54619000Y-88873098D01*
X54619000Y-88826902D01*
X54533747Y-88398306D01*
X55075027Y-87857026D01*
X55173442Y-87709737D01*
X55186266Y-87645265D01*
X55208001Y-87535999D01*
X55208001Y-82779001D01*
X55173442Y-82605263D01*
X55173442Y-82605262D01*
X55075027Y-82457974D01*
X54710445Y-82093392D01*
X54710445Y-81240000D01*
X55368750Y-81240000D01*
X55425000Y-81183750D01*
X55425000Y-80190000D01*
X55475000Y-80190000D01*
X55475000Y-81183750D01*
X55531250Y-81240000D01*
X56344755Y-81240000D01*
X56427452Y-81205746D01*
X56490746Y-81142452D01*
X56525000Y-81059756D01*
X56525000Y-80246250D01*
X56468750Y-80190000D01*
X55475000Y-80190000D01*
X55425000Y-80190000D01*
X54431250Y-80190000D01*
X54375000Y-80246250D01*
X54375000Y-80864555D01*
X53625000Y-80864555D01*
X53503080Y-80887496D01*
X53396832Y-80955864D01*
X53318451Y-80902309D01*
X53187944Y-80875881D01*
X52287944Y-80875881D01*
X52166024Y-80898822D01*
X52054048Y-80970876D01*
X52044566Y-80984753D01*
X51980507Y-80940983D01*
X51850000Y-80914555D01*
X50950000Y-80914555D01*
X50828080Y-80937496D01*
X50729109Y-81001182D01*
X50690450Y-80941104D01*
X50580507Y-80865983D01*
X50450000Y-80839555D01*
X49550000Y-80839555D01*
X49428080Y-80862496D01*
X49321832Y-80930864D01*
X49243451Y-80877309D01*
X49112944Y-80850881D01*
X48212944Y-80850881D01*
X48091024Y-80873822D01*
X47979048Y-80945876D01*
X47903927Y-81055819D01*
X47889480Y-81127163D01*
X47836682Y-81091885D01*
X47811543Y-81086885D01*
X47580200Y-80855542D01*
X47580200Y-80335445D01*
X48475000Y-80335445D01*
X48596920Y-80312504D01*
X48708896Y-80240450D01*
X48784017Y-80130507D01*
X48810445Y-80000000D01*
X48810445Y-79931250D01*
X52800000Y-79931250D01*
X52800000Y-80294756D01*
X52834254Y-80377452D01*
X52897548Y-80440746D01*
X52980245Y-80475000D01*
X53393750Y-80475000D01*
X53450000Y-80418750D01*
X53450000Y-79875000D01*
X53500000Y-79875000D01*
X53500000Y-80418750D01*
X53556250Y-80475000D01*
X53969755Y-80475000D01*
X54052452Y-80440746D01*
X54115746Y-80377452D01*
X54150000Y-80294756D01*
X54150000Y-79931250D01*
X54093750Y-79875000D01*
X53500000Y-79875000D01*
X53450000Y-79875000D01*
X52856250Y-79875000D01*
X52800000Y-79931250D01*
X48810445Y-79931250D01*
X48810445Y-78686161D01*
X49087997Y-78964198D01*
X49484432Y-79128812D01*
X49913685Y-79129187D01*
X50310406Y-78965265D01*
X50614198Y-78662003D01*
X50697254Y-78461983D01*
X50689555Y-78500000D01*
X50689555Y-79300000D01*
X50712496Y-79421920D01*
X50784550Y-79533896D01*
X50894493Y-79609017D01*
X51025000Y-79635445D01*
X51925000Y-79635445D01*
X52046920Y-79612504D01*
X52158896Y-79540450D01*
X52234017Y-79430507D01*
X52259392Y-79305200D01*
X52851602Y-79305200D01*
X52834254Y-79322548D01*
X52800000Y-79405244D01*
X52800000Y-79768750D01*
X52856250Y-79825000D01*
X53450000Y-79825000D01*
X53450000Y-79805000D01*
X53500000Y-79805000D01*
X53500000Y-79825000D01*
X54093750Y-79825000D01*
X54150000Y-79768750D01*
X54150000Y-79405244D01*
X54115746Y-79322548D01*
X54098398Y-79305200D01*
X54175000Y-79305200D01*
X54330064Y-79274356D01*
X54389841Y-79234414D01*
X54375000Y-79270244D01*
X54375000Y-80083750D01*
X54431250Y-80140000D01*
X55425000Y-80140000D01*
X55425000Y-79146250D01*
X55475000Y-79146250D01*
X55475000Y-80140000D01*
X56468750Y-80140000D01*
X56525000Y-80083750D01*
X56525000Y-79270244D01*
X56490746Y-79187548D01*
X56427452Y-79124254D01*
X56344755Y-79090000D01*
X55531250Y-79090000D01*
X55475000Y-79146250D01*
X55425000Y-79146250D01*
X55368750Y-79090000D01*
X54558040Y-79090000D01*
X54950581Y-78697458D01*
X54975718Y-78714254D01*
X55426902Y-78804000D01*
X55473098Y-78804000D01*
X55924282Y-78714254D01*
X56306777Y-78458679D01*
X56562352Y-78076184D01*
X56652098Y-77625000D01*
X56562352Y-77173816D01*
X56306777Y-76791321D01*
X55924282Y-76535746D01*
X55473098Y-76446000D01*
X55426902Y-76446000D01*
X54975718Y-76535746D01*
X54593223Y-76791321D01*
X54337648Y-77173816D01*
X54260445Y-77561942D01*
X54260445Y-77550000D01*
X54237504Y-77428080D01*
X54165450Y-77316104D01*
X54055507Y-77240983D01*
X53994426Y-77228614D01*
X54411520Y-76811520D01*
X54499356Y-76680063D01*
X54530201Y-76525000D01*
X54530200Y-76524995D01*
X54530200Y-76085445D01*
X54725000Y-76085445D01*
X54846920Y-76062504D01*
X54958896Y-75990450D01*
X55034017Y-75880507D01*
X55060445Y-75750000D01*
X55060445Y-75456250D01*
X55200000Y-75456250D01*
X55200000Y-75794756D01*
X55234254Y-75877452D01*
X55297548Y-75940746D01*
X55380245Y-75975000D01*
X55943750Y-75975000D01*
X56000000Y-75918750D01*
X56000000Y-75400000D01*
X56050000Y-75400000D01*
X56050000Y-75918750D01*
X56106250Y-75975000D01*
X56669755Y-75975000D01*
X56752452Y-75940746D01*
X56815746Y-75877452D01*
X56850000Y-75794756D01*
X56850000Y-75456250D01*
X56793750Y-75400000D01*
X56050000Y-75400000D01*
X56000000Y-75400000D01*
X55256250Y-75400000D01*
X55200000Y-75456250D01*
X55060445Y-75456250D01*
X55060445Y-75000000D01*
X55052024Y-74955244D01*
X55200000Y-74955244D01*
X55200000Y-75293750D01*
X55256250Y-75350000D01*
X56000000Y-75350000D01*
X56000000Y-74831250D01*
X56050000Y-74831250D01*
X56050000Y-75350000D01*
X56793750Y-75350000D01*
X56850000Y-75293750D01*
X56850000Y-74955244D01*
X56815746Y-74872548D01*
X56752452Y-74809254D01*
X56669755Y-74775000D01*
X56106250Y-74775000D01*
X56050000Y-74831250D01*
X56000000Y-74831250D01*
X55943750Y-74775000D01*
X55380245Y-74775000D01*
X55297548Y-74809254D01*
X55234254Y-74872548D01*
X55200000Y-74955244D01*
X55052024Y-74955244D01*
X55037504Y-74878080D01*
X54965450Y-74766104D01*
X54960677Y-74762843D01*
X55034017Y-74655507D01*
X55060445Y-74525000D01*
X55060445Y-74496578D01*
X55200000Y-74438915D01*
X55200000Y-74569756D01*
X55234254Y-74652452D01*
X55297548Y-74715746D01*
X55380245Y-74750000D01*
X55943750Y-74750000D01*
X56000000Y-74693750D01*
X56000000Y-74175000D01*
X56050000Y-74175000D01*
X56050000Y-74693750D01*
X56106250Y-74750000D01*
X56669755Y-74750000D01*
X56752452Y-74715746D01*
X56815746Y-74652452D01*
X56850000Y-74569756D01*
X56850000Y-74231250D01*
X56793750Y-74175000D01*
X56050000Y-74175000D01*
X56000000Y-74175000D01*
X55980000Y-74175000D01*
X55980000Y-74125000D01*
X56000000Y-74125000D01*
X56000000Y-73606250D01*
X55943750Y-73550000D01*
X56093750Y-73550000D01*
X56150000Y-73493750D01*
X56150000Y-72900000D01*
X55406250Y-72900000D01*
X55350000Y-72956250D01*
X55350000Y-73369756D01*
X55384254Y-73452452D01*
X55447548Y-73515746D01*
X55530245Y-73550000D01*
X55424698Y-73550000D01*
X55398040Y-73485482D01*
X55209197Y-73296308D01*
X54962334Y-73193802D01*
X54910445Y-73193757D01*
X54910445Y-72710401D01*
X55189067Y-72710401D01*
X55344131Y-72679557D01*
X55350000Y-72675635D01*
X55350000Y-72793750D01*
X55350000Y-72793750D01*
G37*
X55350000Y-72793750D02*
X55406250Y-72850000D01*
X56150000Y-72850000D01*
X56150000Y-72830000D01*
X56200000Y-72830000D01*
X56200000Y-72850000D01*
X56220000Y-72850000D01*
X56220000Y-72900000D01*
X56200000Y-72900000D01*
X56200000Y-73493750D01*
X56256250Y-73550000D01*
X56106250Y-73550000D01*
X56050000Y-73606250D01*
X56050000Y-74125000D01*
X56793750Y-74125000D01*
X56850000Y-74068750D01*
X56850000Y-73730244D01*
X56815746Y-73647548D01*
X56752452Y-73584254D01*
X56669755Y-73550000D01*
X56819755Y-73550000D01*
X56902452Y-73515746D01*
X56911500Y-73506698D01*
X56911500Y-89521584D01*
X56852118Y-89820117D01*
X56699110Y-90049110D01*
X56470117Y-90202118D01*
X56171584Y-90261500D01*
X43228416Y-90261500D01*
X42929883Y-90202118D01*
X42700890Y-90049110D01*
X42547882Y-89820117D01*
X42488500Y-89521584D01*
X42488500Y-88826902D01*
X44641000Y-88826902D01*
X44641000Y-88873098D01*
X44730746Y-89324282D01*
X44986321Y-89706777D01*
X45368816Y-89962352D01*
X45820000Y-90052098D01*
X46271184Y-89962352D01*
X46653679Y-89706777D01*
X46909254Y-89324282D01*
X46999000Y-88873098D01*
X46999000Y-88826902D01*
X46909254Y-88375718D01*
X46653679Y-87993223D01*
X46271184Y-87737648D01*
X45820000Y-87647902D01*
X45368816Y-87737648D01*
X44986321Y-87993223D01*
X44730746Y-88375718D01*
X44641000Y-88826902D01*
X42488500Y-88826902D01*
X42488500Y-86391250D01*
X44745000Y-86391250D01*
X44745000Y-87204755D01*
X44779254Y-87287452D01*
X44842548Y-87350746D01*
X44925244Y-87385000D01*
X45738750Y-87385000D01*
X45795000Y-87328750D01*
X45795000Y-86335000D01*
X45845000Y-86335000D01*
X45845000Y-87328750D01*
X45901250Y-87385000D01*
X46714756Y-87385000D01*
X46797452Y-87350746D01*
X46860746Y-87287452D01*
X46895000Y-87204755D01*
X46895000Y-86391250D01*
X46838750Y-86335000D01*
X45845000Y-86335000D01*
X45795000Y-86335000D01*
X44801250Y-86335000D01*
X44745000Y-86391250D01*
X42488500Y-86391250D01*
X42488500Y-85415245D01*
X44745000Y-85415245D01*
X44745000Y-86228750D01*
X44801250Y-86285000D01*
X45795000Y-86285000D01*
X45795000Y-85291250D01*
X45845000Y-85291250D01*
X45845000Y-86285000D01*
X46838750Y-86285000D01*
X46895000Y-86228750D01*
X46895000Y-85415245D01*
X46860746Y-85332548D01*
X46797452Y-85269254D01*
X46714756Y-85235000D01*
X45901250Y-85235000D01*
X45845000Y-85291250D01*
X45795000Y-85291250D01*
X45738750Y-85235000D01*
X44925244Y-85235000D01*
X44842548Y-85269254D01*
X44779254Y-85332548D01*
X44745000Y-85415245D01*
X42488500Y-85415245D01*
X42488500Y-84163004D01*
X42559735Y-84335406D01*
X42862997Y-84639198D01*
X43259432Y-84803812D01*
X43688685Y-84804187D01*
X44085406Y-84640265D01*
X44389198Y-84337003D01*
X44553812Y-83940568D01*
X44554187Y-83511315D01*
X44468676Y-83304364D01*
X45856514Y-81916526D01*
X47426092Y-81916526D01*
X47616918Y-82107353D01*
X47764206Y-82205767D01*
X47877499Y-82228303D01*
X47877499Y-82386326D01*
X47900440Y-82508246D01*
X47972494Y-82620222D01*
X48082437Y-82695343D01*
X48212944Y-82721771D01*
X49112944Y-82721771D01*
X49234864Y-82698830D01*
X49341112Y-82630462D01*
X49419493Y-82684017D01*
X49550000Y-82710445D01*
X50450000Y-82710445D01*
X50571920Y-82687504D01*
X50670891Y-82623818D01*
X50709550Y-82683896D01*
X50819493Y-82759017D01*
X50950000Y-82785445D01*
X51850000Y-82785445D01*
X51971920Y-82762504D01*
X52083896Y-82690450D01*
X52093378Y-82676573D01*
X52157437Y-82720343D01*
X52287944Y-82746771D01*
X53187944Y-82746771D01*
X53309864Y-82723830D01*
X53416112Y-82655462D01*
X53494493Y-82709017D01*
X53625000Y-82735445D01*
X54068392Y-82735445D01*
X54207947Y-82875000D01*
X54081250Y-82875000D01*
X54025000Y-82931250D01*
X54025000Y-83675000D01*
X54045000Y-83675000D01*
X54045000Y-83725000D01*
X54025000Y-83725000D01*
X54025000Y-84468750D01*
X54081250Y-84525000D01*
X54300001Y-84525000D01*
X54300001Y-85492617D01*
X54273679Y-85453223D01*
X53891184Y-85197648D01*
X53440000Y-85107902D01*
X52988816Y-85197648D01*
X52862388Y-85282124D01*
X52862444Y-85218005D01*
X52760369Y-84970965D01*
X52736217Y-84946771D01*
X53187944Y-84946771D01*
X53309864Y-84923830D01*
X53421840Y-84851776D01*
X53496961Y-84741833D01*
X53523389Y-84611326D01*
X53523389Y-84501450D01*
X53580244Y-84525000D01*
X53918750Y-84525000D01*
X53975000Y-84468750D01*
X53975000Y-83725000D01*
X53955000Y-83725000D01*
X53955000Y-83675000D01*
X53975000Y-83675000D01*
X53975000Y-82931250D01*
X53918750Y-82875000D01*
X53580244Y-82875000D01*
X53497548Y-82909254D01*
X53434254Y-82972548D01*
X53400000Y-83055245D01*
X53400000Y-83158029D01*
X53318451Y-83102309D01*
X53187944Y-83075881D01*
X52287944Y-83075881D01*
X52166024Y-83098822D01*
X52054048Y-83170876D01*
X52044566Y-83184753D01*
X51980507Y-83140983D01*
X51850000Y-83114555D01*
X50950000Y-83114555D01*
X50828080Y-83137496D01*
X50729109Y-83201182D01*
X50690450Y-83141104D01*
X50580507Y-83065983D01*
X50450000Y-83039555D01*
X49550000Y-83039555D01*
X49428080Y-83062496D01*
X49321832Y-83130864D01*
X49243451Y-83077309D01*
X49112944Y-83050881D01*
X48212944Y-83050881D01*
X48091024Y-83073822D01*
X47979048Y-83145876D01*
X47914047Y-83241008D01*
X47371814Y-82698774D01*
X47372016Y-82466937D01*
X47269941Y-82219897D01*
X47081098Y-82030723D01*
X46834235Y-81928217D01*
X46566937Y-81927984D01*
X46319897Y-82030059D01*
X46130723Y-82218902D01*
X46028217Y-82465765D01*
X46028038Y-82671177D01*
X45611315Y-82670813D01*
X45214594Y-82834735D01*
X44910802Y-83137997D01*
X44746188Y-83534432D01*
X44745813Y-83963685D01*
X44909735Y-84360406D01*
X45212997Y-84664198D01*
X45609432Y-84828812D01*
X46038685Y-84829187D01*
X46435406Y-84665265D01*
X46739198Y-84362003D01*
X46825070Y-84155200D01*
X47456431Y-84155200D01*
X47574074Y-84272843D01*
X47574076Y-84272846D01*
X47705533Y-84360682D01*
X47860596Y-84391526D01*
X47877499Y-84391526D01*
X47877499Y-84586326D01*
X47900440Y-84708246D01*
X47972494Y-84820222D01*
X48082437Y-84895343D01*
X48212944Y-84921771D01*
X48257744Y-84921771D01*
X48257744Y-85094217D01*
X48215270Y-85136691D01*
X47908816Y-85197648D01*
X47526321Y-85453223D01*
X47270746Y-85835718D01*
X47181000Y-86286902D01*
X47181000Y-86333098D01*
X47270746Y-86784282D01*
X47526321Y-87166777D01*
X47908816Y-87422352D01*
X48360000Y-87512098D01*
X48811184Y-87422352D01*
X49193679Y-87166777D01*
X49314599Y-86985807D01*
X49314599Y-87322361D01*
X49253681Y-87383279D01*
X49253679Y-87383282D01*
X48864013Y-87772947D01*
X48811184Y-87737648D01*
X48360000Y-87647902D01*
X47908816Y-87737648D01*
X47526321Y-87993223D01*
X47270746Y-88375718D01*
X47181000Y-88826902D01*
X47181000Y-88873098D01*
X47270746Y-89324282D01*
X47526321Y-89706777D01*
X47908816Y-89962352D01*
X48360000Y-90052098D01*
X48811184Y-89962352D01*
X49193679Y-89706777D01*
X49449254Y-89324282D01*
X49539000Y-88873098D01*
X49539000Y-88826902D01*
X49449254Y-88375718D01*
X49432458Y-88350581D01*
X49826718Y-87956321D01*
X49826721Y-87956319D01*
X50006319Y-87776721D01*
X50094155Y-87645265D01*
X50125000Y-87490201D01*
X50124999Y-87490196D01*
X50124999Y-87205984D01*
X50448816Y-87422352D01*
X50900000Y-87512098D01*
X51351184Y-87422352D01*
X51733679Y-87166777D01*
X51785228Y-87089628D01*
X51785228Y-87391732D01*
X51404013Y-87772947D01*
X51351184Y-87737648D01*
X50900000Y-87647902D01*
X50448816Y-87737648D01*
X50066321Y-87993223D01*
X49810746Y-88375718D01*
X49721000Y-88826902D01*
X49721000Y-88873098D01*
X49810746Y-89324282D01*
X50066321Y-89706777D01*
X50448816Y-89962352D01*
X50900000Y-90052098D01*
X51351184Y-89962352D01*
X51733679Y-89706777D01*
X51989254Y-89324282D01*
X52079000Y-88873098D01*
X52079000Y-88826902D01*
X51989254Y-88375718D01*
X51972458Y-88350582D01*
X52476948Y-87846092D01*
X52564784Y-87714635D01*
X52595629Y-87559572D01*
X52595628Y-87559567D01*
X52595628Y-87150774D01*
X52606321Y-87166777D01*
X52988816Y-87422352D01*
X53440000Y-87512098D01*
X53891184Y-87422352D01*
X54273679Y-87166777D01*
X54300001Y-87127383D01*
X54300001Y-87347946D01*
X53902643Y-87745305D01*
X53891184Y-87737648D01*
X53440000Y-87647902D01*
X52988816Y-87737648D01*
X52606321Y-87993223D01*
X52350746Y-88375718D01*
X52261000Y-88826902D01*
X52261000Y-88873098D01*
X52350746Y-89324282D01*
X52606321Y-89706777D01*
X52988816Y-89962352D01*
X53440000Y-90052098D01*
X53891184Y-89962352D01*
X54273679Y-89706777D01*
X54529254Y-89324282D01*
X54619000Y-88873098D01*
X54619000Y-88826902D01*
X54533747Y-88398306D01*
X55075027Y-87857026D01*
X55173442Y-87709737D01*
X55186266Y-87645265D01*
X55208001Y-87535999D01*
X55208001Y-82779001D01*
X55173442Y-82605263D01*
X55173442Y-82605262D01*
X55075027Y-82457974D01*
X54710445Y-82093392D01*
X54710445Y-81240000D01*
X55368750Y-81240000D01*
X55425000Y-81183750D01*
X55425000Y-80190000D01*
X55475000Y-80190000D01*
X55475000Y-81183750D01*
X55531250Y-81240000D01*
X56344755Y-81240000D01*
X56427452Y-81205746D01*
X56490746Y-81142452D01*
X56525000Y-81059756D01*
X56525000Y-80246250D01*
X56468750Y-80190000D01*
X55475000Y-80190000D01*
X55425000Y-80190000D01*
X54431250Y-80190000D01*
X54375000Y-80246250D01*
X54375000Y-80864555D01*
X53625000Y-80864555D01*
X53503080Y-80887496D01*
X53396832Y-80955864D01*
X53318451Y-80902309D01*
X53187944Y-80875881D01*
X52287944Y-80875881D01*
X52166024Y-80898822D01*
X52054048Y-80970876D01*
X52044566Y-80984753D01*
X51980507Y-80940983D01*
X51850000Y-80914555D01*
X50950000Y-80914555D01*
X50828080Y-80937496D01*
X50729109Y-81001182D01*
X50690450Y-80941104D01*
X50580507Y-80865983D01*
X50450000Y-80839555D01*
X49550000Y-80839555D01*
X49428080Y-80862496D01*
X49321832Y-80930864D01*
X49243451Y-80877309D01*
X49112944Y-80850881D01*
X48212944Y-80850881D01*
X48091024Y-80873822D01*
X47979048Y-80945876D01*
X47903927Y-81055819D01*
X47889480Y-81127163D01*
X47836682Y-81091885D01*
X47811543Y-81086885D01*
X47580200Y-80855542D01*
X47580200Y-80335445D01*
X48475000Y-80335445D01*
X48596920Y-80312504D01*
X48708896Y-80240450D01*
X48784017Y-80130507D01*
X48810445Y-80000000D01*
X48810445Y-79931250D01*
X52800000Y-79931250D01*
X52800000Y-80294756D01*
X52834254Y-80377452D01*
X52897548Y-80440746D01*
X52980245Y-80475000D01*
X53393750Y-80475000D01*
X53450000Y-80418750D01*
X53450000Y-79875000D01*
X53500000Y-79875000D01*
X53500000Y-80418750D01*
X53556250Y-80475000D01*
X53969755Y-80475000D01*
X54052452Y-80440746D01*
X54115746Y-80377452D01*
X54150000Y-80294756D01*
X54150000Y-79931250D01*
X54093750Y-79875000D01*
X53500000Y-79875000D01*
X53450000Y-79875000D01*
X52856250Y-79875000D01*
X52800000Y-79931250D01*
X48810445Y-79931250D01*
X48810445Y-78686161D01*
X49087997Y-78964198D01*
X49484432Y-79128812D01*
X49913685Y-79129187D01*
X50310406Y-78965265D01*
X50614198Y-78662003D01*
X50697254Y-78461983D01*
X50689555Y-78500000D01*
X50689555Y-79300000D01*
X50712496Y-79421920D01*
X50784550Y-79533896D01*
X50894493Y-79609017D01*
X51025000Y-79635445D01*
X51925000Y-79635445D01*
X52046920Y-79612504D01*
X52158896Y-79540450D01*
X52234017Y-79430507D01*
X52259392Y-79305200D01*
X52851602Y-79305200D01*
X52834254Y-79322548D01*
X52800000Y-79405244D01*
X52800000Y-79768750D01*
X52856250Y-79825000D01*
X53450000Y-79825000D01*
X53450000Y-79805000D01*
X53500000Y-79805000D01*
X53500000Y-79825000D01*
X54093750Y-79825000D01*
X54150000Y-79768750D01*
X54150000Y-79405244D01*
X54115746Y-79322548D01*
X54098398Y-79305200D01*
X54175000Y-79305200D01*
X54330064Y-79274356D01*
X54389841Y-79234414D01*
X54375000Y-79270244D01*
X54375000Y-80083750D01*
X54431250Y-80140000D01*
X55425000Y-80140000D01*
X55425000Y-79146250D01*
X55475000Y-79146250D01*
X55475000Y-80140000D01*
X56468750Y-80140000D01*
X56525000Y-80083750D01*
X56525000Y-79270244D01*
X56490746Y-79187548D01*
X56427452Y-79124254D01*
X56344755Y-79090000D01*
X55531250Y-79090000D01*
X55475000Y-79146250D01*
X55425000Y-79146250D01*
X55368750Y-79090000D01*
X54558040Y-79090000D01*
X54950581Y-78697458D01*
X54975718Y-78714254D01*
X55426902Y-78804000D01*
X55473098Y-78804000D01*
X55924282Y-78714254D01*
X56306777Y-78458679D01*
X56562352Y-78076184D01*
X56652098Y-77625000D01*
X56562352Y-77173816D01*
X56306777Y-76791321D01*
X55924282Y-76535746D01*
X55473098Y-76446000D01*
X55426902Y-76446000D01*
X54975718Y-76535746D01*
X54593223Y-76791321D01*
X54337648Y-77173816D01*
X54260445Y-77561942D01*
X54260445Y-77550000D01*
X54237504Y-77428080D01*
X54165450Y-77316104D01*
X54055507Y-77240983D01*
X53994426Y-77228614D01*
X54411520Y-76811520D01*
X54499356Y-76680063D01*
X54530201Y-76525000D01*
X54530200Y-76524995D01*
X54530200Y-76085445D01*
X54725000Y-76085445D01*
X54846920Y-76062504D01*
X54958896Y-75990450D01*
X55034017Y-75880507D01*
X55060445Y-75750000D01*
X55060445Y-75456250D01*
X55200000Y-75456250D01*
X55200000Y-75794756D01*
X55234254Y-75877452D01*
X55297548Y-75940746D01*
X55380245Y-75975000D01*
X55943750Y-75975000D01*
X56000000Y-75918750D01*
X56000000Y-75400000D01*
X56050000Y-75400000D01*
X56050000Y-75918750D01*
X56106250Y-75975000D01*
X56669755Y-75975000D01*
X56752452Y-75940746D01*
X56815746Y-75877452D01*
X56850000Y-75794756D01*
X56850000Y-75456250D01*
X56793750Y-75400000D01*
X56050000Y-75400000D01*
X56000000Y-75400000D01*
X55256250Y-75400000D01*
X55200000Y-75456250D01*
X55060445Y-75456250D01*
X55060445Y-75000000D01*
X55052024Y-74955244D01*
X55200000Y-74955244D01*
X55200000Y-75293750D01*
X55256250Y-75350000D01*
X56000000Y-75350000D01*
X56000000Y-74831250D01*
X56050000Y-74831250D01*
X56050000Y-75350000D01*
X56793750Y-75350000D01*
X56850000Y-75293750D01*
X56850000Y-74955244D01*
X56815746Y-74872548D01*
X56752452Y-74809254D01*
X56669755Y-74775000D01*
X56106250Y-74775000D01*
X56050000Y-74831250D01*
X56000000Y-74831250D01*
X55943750Y-74775000D01*
X55380245Y-74775000D01*
X55297548Y-74809254D01*
X55234254Y-74872548D01*
X55200000Y-74955244D01*
X55052024Y-74955244D01*
X55037504Y-74878080D01*
X54965450Y-74766104D01*
X54960677Y-74762843D01*
X55034017Y-74655507D01*
X55060445Y-74525000D01*
X55060445Y-74496578D01*
X55200000Y-74438915D01*
X55200000Y-74569756D01*
X55234254Y-74652452D01*
X55297548Y-74715746D01*
X55380245Y-74750000D01*
X55943750Y-74750000D01*
X56000000Y-74693750D01*
X56000000Y-74175000D01*
X56050000Y-74175000D01*
X56050000Y-74693750D01*
X56106250Y-74750000D01*
X56669755Y-74750000D01*
X56752452Y-74715746D01*
X56815746Y-74652452D01*
X56850000Y-74569756D01*
X56850000Y-74231250D01*
X56793750Y-74175000D01*
X56050000Y-74175000D01*
X56000000Y-74175000D01*
X55980000Y-74175000D01*
X55980000Y-74125000D01*
X56000000Y-74125000D01*
X56000000Y-73606250D01*
X55943750Y-73550000D01*
X56093750Y-73550000D01*
X56150000Y-73493750D01*
X56150000Y-72900000D01*
X55406250Y-72900000D01*
X55350000Y-72956250D01*
X55350000Y-73369756D01*
X55384254Y-73452452D01*
X55447548Y-73515746D01*
X55530245Y-73550000D01*
X55424698Y-73550000D01*
X55398040Y-73485482D01*
X55209197Y-73296308D01*
X54962334Y-73193802D01*
X54910445Y-73193757D01*
X54910445Y-72710401D01*
X55189067Y-72710401D01*
X55344131Y-72679557D01*
X55350000Y-72675635D01*
X55350000Y-72793750D01*
G36*
X51564555Y-67550000D02*
X51587496Y-67671920D01*
X51659550Y-67783896D01*
X51769493Y-67859017D01*
X51900000Y-67885445D01*
X53544340Y-67885445D01*
X53613480Y-67988920D01*
X54036078Y-68411517D01*
X54036080Y-68411520D01*
X54082231Y-68442357D01*
X54108157Y-68505103D01*
X54297000Y-68694277D01*
X54345835Y-68714555D01*
X51900000Y-68714555D01*
X51778080Y-68737496D01*
X51666104Y-68809550D01*
X51590983Y-68919493D01*
X51564555Y-69050000D01*
X51564555Y-70800000D01*
X51587496Y-70921920D01*
X51659550Y-71033896D01*
X51769493Y-71109017D01*
X51900000Y-71135445D01*
X53064555Y-71135445D01*
X53064555Y-71975000D01*
X53087496Y-72096920D01*
X53143070Y-72183285D01*
X53141104Y-72184550D01*
X53065983Y-72294493D01*
X53039555Y-72425000D01*
X53039555Y-72469800D01*
X52611932Y-72469800D01*
X52273101Y-72130969D01*
X52273303Y-71899132D01*
X52171228Y-71652092D01*
X51982385Y-71462918D01*
X51735522Y-71360412D01*
X51468224Y-71360179D01*
X51221184Y-71462254D01*
X51032010Y-71651097D01*
X50929504Y-71897960D01*
X50929271Y-72165258D01*
X51031346Y-72412298D01*
X51220189Y-72601472D01*
X51467052Y-72703978D01*
X51700233Y-72704181D01*
X51710607Y-72714555D01*
X50900000Y-72714555D01*
X50778080Y-72737496D01*
X50666104Y-72809550D01*
X50590983Y-72919493D01*
X50564555Y-73050000D01*
X50564555Y-73950000D01*
X50587496Y-74071920D01*
X50659550Y-74183896D01*
X50769493Y-74259017D01*
X50900000Y-74285445D01*
X52100000Y-74285445D01*
X52221920Y-74262504D01*
X52333896Y-74190450D01*
X52409017Y-74080507D01*
X52435445Y-73950000D01*
X52435445Y-73905200D01*
X52554760Y-73905200D01*
X53086080Y-74436520D01*
X53189555Y-74505659D01*
X53189555Y-74525000D01*
X53212496Y-74646920D01*
X53284550Y-74758896D01*
X53289323Y-74762157D01*
X53215983Y-74869493D01*
X53189555Y-75000000D01*
X53189555Y-75750000D01*
X53212496Y-75871920D01*
X53284550Y-75983896D01*
X53394493Y-76059017D01*
X53525000Y-76085445D01*
X53719800Y-76085445D01*
X53719800Y-76357160D01*
X53188480Y-76888480D01*
X53100644Y-77019936D01*
X53100644Y-77019937D01*
X53069800Y-77175000D01*
X53069800Y-77214555D01*
X53025000Y-77214555D01*
X52903080Y-77237496D01*
X52791104Y-77309550D01*
X52715983Y-77419493D01*
X52689555Y-77550000D01*
X52689555Y-77644800D01*
X50700055Y-77644800D01*
X50615265Y-77439594D01*
X50312003Y-77135802D01*
X49915568Y-76971188D01*
X49486315Y-76970813D01*
X49089594Y-77134735D01*
X48785802Y-77437997D01*
X48621188Y-77834432D01*
X48620867Y-78201478D01*
X48605507Y-78190983D01*
X48475000Y-78164555D01*
X47231608Y-78164555D01*
X45754000Y-76686948D01*
X45754000Y-76360445D01*
X45900000Y-76360445D01*
X46021920Y-76337504D01*
X46133896Y-76265450D01*
X46209017Y-76155507D01*
X46222362Y-76089606D01*
X46323738Y-76069441D01*
X46471026Y-75971026D01*
X47396027Y-75046026D01*
X47494441Y-74898738D01*
X47529000Y-74725000D01*
X47529000Y-72452765D01*
X47542270Y-72452765D01*
X47644345Y-72699805D01*
X47809086Y-72864835D01*
X47809086Y-73166686D01*
X47839930Y-73321750D01*
X47927766Y-73453206D01*
X48261080Y-73786520D01*
X48364555Y-73855660D01*
X48364555Y-73950000D01*
X48387496Y-74071920D01*
X48459550Y-74183896D01*
X48569493Y-74259017D01*
X48700000Y-74285445D01*
X49900000Y-74285445D01*
X50021920Y-74262504D01*
X50133896Y-74190450D01*
X50209017Y-74080507D01*
X50235445Y-73950000D01*
X50235445Y-73050000D01*
X50212504Y-72928080D01*
X50140450Y-72816104D01*
X50030507Y-72740983D01*
X49900000Y-72714555D01*
X48769784Y-72714555D01*
X48783563Y-72700800D01*
X48886069Y-72453937D01*
X48886302Y-72186639D01*
X48784227Y-71939599D01*
X48595384Y-71750425D01*
X48348521Y-71647919D01*
X48081223Y-71647686D01*
X47834183Y-71749761D01*
X47645009Y-71938604D01*
X47542503Y-72185467D01*
X47542270Y-72452765D01*
X47529000Y-72452765D01*
X47529000Y-70039995D01*
X48224114Y-69344882D01*
X48322529Y-69197593D01*
X48357087Y-69023855D01*
X48322529Y-68850117D01*
X48224114Y-68702829D01*
X48132905Y-68641885D01*
X48127438Y-68628654D01*
X47938595Y-68439480D01*
X47858490Y-68406218D01*
X47115753Y-67663480D01*
X46984297Y-67575644D01*
X46829233Y-67544800D01*
X46335445Y-67544800D01*
X46335445Y-67500000D01*
X46312504Y-67378080D01*
X46240450Y-67266104D01*
X46130507Y-67190983D01*
X46000000Y-67164555D01*
X45187595Y-67164555D01*
X45086520Y-67063480D01*
X44955064Y-66975644D01*
X44800000Y-66944800D01*
X44644936Y-66975644D01*
X44513480Y-67063480D01*
X44425644Y-67194936D01*
X44394800Y-67350000D01*
X44425644Y-67505064D01*
X44464555Y-67563298D01*
X44464555Y-68400000D01*
X44487496Y-68521920D01*
X44559550Y-68633896D01*
X44669493Y-68709017D01*
X44800000Y-68735445D01*
X46000000Y-68735445D01*
X46121920Y-68712504D01*
X46233896Y-68640450D01*
X46309017Y-68530507D01*
X46335445Y-68400000D01*
X46335445Y-68355200D01*
X46661393Y-68355200D01*
X46972268Y-68666075D01*
X46885714Y-68874522D01*
X46885481Y-69141820D01*
X46960796Y-69324095D01*
X46753974Y-69530917D01*
X46655559Y-69678205D01*
X46621000Y-69851943D01*
X46621000Y-74536947D01*
X46126426Y-75031522D01*
X46089659Y-75006400D01*
X46127452Y-74990746D01*
X46190746Y-74927452D01*
X46225000Y-74844756D01*
X46225000Y-74431250D01*
X46168750Y-74375000D01*
X45425000Y-74375000D01*
X45425000Y-74395000D01*
X45375000Y-74395000D01*
X45375000Y-74375000D01*
X44631250Y-74375000D01*
X44575000Y-74431250D01*
X44575000Y-74844756D01*
X44609254Y-74927452D01*
X44633811Y-74952009D01*
X44578080Y-74962496D01*
X44466104Y-75034550D01*
X44390983Y-75144493D01*
X44364555Y-75275000D01*
X44364555Y-76025000D01*
X44387496Y-76146920D01*
X44459550Y-76258896D01*
X44569493Y-76334017D01*
X44700000Y-76360445D01*
X44846000Y-76360445D01*
X44846000Y-76875000D01*
X44874830Y-77019936D01*
X44880559Y-77048738D01*
X44978974Y-77196026D01*
X45967694Y-78184746D01*
X45953080Y-78187496D01*
X45841104Y-78259550D01*
X45765983Y-78369493D01*
X45739555Y-78500000D01*
X45739555Y-80000000D01*
X45762496Y-80121920D01*
X45834550Y-80233896D01*
X45944493Y-80309017D01*
X46075000Y-80335445D01*
X46769800Y-80335445D01*
X46769800Y-81023382D01*
X46786259Y-81106126D01*
X45688679Y-81106126D01*
X45688674Y-81106125D01*
X45533611Y-81136970D01*
X45402154Y-81224806D01*
X43895625Y-82731335D01*
X43690568Y-82646188D01*
X43261315Y-82645813D01*
X42864594Y-82809735D01*
X42560802Y-83112997D01*
X42488500Y-83287120D01*
X42488500Y-80225000D01*
X43593750Y-80225000D01*
X43650000Y-80168750D01*
X43650000Y-79275000D01*
X43700000Y-79275000D01*
X43700000Y-80168750D01*
X43756250Y-80225000D01*
X44919755Y-80225000D01*
X45002452Y-80190746D01*
X45065746Y-80127452D01*
X45100000Y-80044756D01*
X45100000Y-79331250D01*
X45043750Y-79275000D01*
X43700000Y-79275000D01*
X43650000Y-79275000D01*
X43630000Y-79275000D01*
X43630000Y-79225000D01*
X43650000Y-79225000D01*
X43650000Y-78331250D01*
X43700000Y-78331250D01*
X43700000Y-79225000D01*
X45043750Y-79225000D01*
X45100000Y-79168750D01*
X45100000Y-78455244D01*
X45065746Y-78372548D01*
X45002452Y-78309254D01*
X44919755Y-78275000D01*
X43756250Y-78275000D01*
X43700000Y-78331250D01*
X43650000Y-78331250D01*
X43593750Y-78275000D01*
X42488500Y-78275000D01*
X42488500Y-75731250D01*
X42575000Y-75731250D01*
X42575000Y-76069756D01*
X42609254Y-76152452D01*
X42672548Y-76215746D01*
X42755245Y-76250000D01*
X43318750Y-76250000D01*
X43375000Y-76193750D01*
X43375000Y-75675000D01*
X43425000Y-75675000D01*
X43425000Y-76193750D01*
X43481250Y-76250000D01*
X44044755Y-76250000D01*
X44127452Y-76215746D01*
X44190746Y-76152452D01*
X44225000Y-76069756D01*
X44225000Y-75731250D01*
X44168750Y-75675000D01*
X43425000Y-75675000D01*
X43375000Y-75675000D01*
X42631250Y-75675000D01*
X42575000Y-75731250D01*
X42488500Y-75731250D01*
X42488500Y-75112866D01*
X42600000Y-75135445D01*
X42621357Y-75135445D01*
X42609254Y-75147548D01*
X42575000Y-75230244D01*
X42575000Y-75568750D01*
X42631250Y-75625000D01*
X43375000Y-75625000D01*
X43375000Y-75605000D01*
X43425000Y-75605000D01*
X43425000Y-75625000D01*
X44168750Y-75625000D01*
X44225000Y-75568750D01*
X44225000Y-75230244D01*
X44190746Y-75147548D01*
X44127452Y-75084254D01*
X44044755Y-75050000D01*
X44019055Y-75050000D01*
X44033896Y-75040450D01*
X44109017Y-74930507D01*
X44135445Y-74800000D01*
X44135445Y-73900000D01*
X44127024Y-73855244D01*
X44575000Y-73855244D01*
X44575000Y-74268750D01*
X44631250Y-74325000D01*
X45375000Y-74325000D01*
X45375000Y-73731250D01*
X45425000Y-73731250D01*
X45425000Y-74325000D01*
X46168750Y-74325000D01*
X46225000Y-74268750D01*
X46225000Y-73855244D01*
X46190746Y-73772548D01*
X46127452Y-73709254D01*
X46044755Y-73675000D01*
X45481250Y-73675000D01*
X45425000Y-73731250D01*
X45375000Y-73731250D01*
X45318750Y-73675000D01*
X44755245Y-73675000D01*
X44672548Y-73709254D01*
X44609254Y-73772548D01*
X44575000Y-73855244D01*
X44127024Y-73855244D01*
X44112504Y-73778080D01*
X44040450Y-73666104D01*
X43930507Y-73590983D01*
X43800000Y-73564555D01*
X43605200Y-73564555D01*
X43605200Y-73535445D01*
X43800000Y-73535445D01*
X43921920Y-73512504D01*
X44033896Y-73440450D01*
X44109017Y-73330507D01*
X44135445Y-73200000D01*
X44135445Y-72300000D01*
X44112504Y-72178080D01*
X44040450Y-72066104D01*
X43930507Y-71990983D01*
X43800000Y-71964555D01*
X43605200Y-71964555D01*
X43605200Y-71935445D01*
X43800000Y-71935445D01*
X43921920Y-71912504D01*
X44033896Y-71840450D01*
X44109017Y-71730507D01*
X44135445Y-71600000D01*
X44135445Y-71087595D01*
X44201226Y-71021814D01*
X44433063Y-71022016D01*
X44464555Y-71009004D01*
X44464555Y-71600000D01*
X44487496Y-71721920D01*
X44559550Y-71833896D01*
X44669493Y-71909017D01*
X44800000Y-71935445D01*
X44994800Y-71935445D01*
X44994800Y-71964555D01*
X44800000Y-71964555D01*
X44678080Y-71987496D01*
X44566104Y-72059550D01*
X44490983Y-72169493D01*
X44464555Y-72300000D01*
X44464555Y-73200000D01*
X44487496Y-73321920D01*
X44559550Y-73433896D01*
X44669493Y-73509017D01*
X44800000Y-73535445D01*
X46000000Y-73535445D01*
X46121920Y-73512504D01*
X46233896Y-73440450D01*
X46309017Y-73330507D01*
X46335445Y-73200000D01*
X46335445Y-72300000D01*
X46312504Y-72178080D01*
X46240450Y-72066104D01*
X46130507Y-71990983D01*
X46000000Y-71964555D01*
X45805200Y-71964555D01*
X45805200Y-71935445D01*
X46000000Y-71935445D01*
X46121920Y-71912504D01*
X46233896Y-71840450D01*
X46309017Y-71730507D01*
X46335445Y-71600000D01*
X46335445Y-70700000D01*
X46312504Y-70578080D01*
X46240450Y-70466104D01*
X46130507Y-70390983D01*
X46000000Y-70364555D01*
X45805200Y-70364555D01*
X45805200Y-70335445D01*
X46000000Y-70335445D01*
X46121920Y-70312504D01*
X46233896Y-70240450D01*
X46309017Y-70130507D01*
X46335445Y-70000000D01*
X46335445Y-69100000D01*
X46312504Y-68978080D01*
X46240450Y-68866104D01*
X46130507Y-68790983D01*
X46000000Y-68764555D01*
X44800000Y-68764555D01*
X44678080Y-68787496D01*
X44566104Y-68859550D01*
X44490983Y-68969493D01*
X44464555Y-69100000D01*
X44464555Y-69690807D01*
X44434235Y-69678217D01*
X44166937Y-69677984D01*
X44135445Y-69690996D01*
X44135445Y-69100000D01*
X44112504Y-68978080D01*
X44040450Y-68866104D01*
X43930507Y-68790983D01*
X43800000Y-68764555D01*
X43605200Y-68764555D01*
X43605200Y-68735445D01*
X43800000Y-68735445D01*
X43921920Y-68712504D01*
X44033896Y-68640450D01*
X44109017Y-68530507D01*
X44135445Y-68400000D01*
X44135445Y-67500000D01*
X44112504Y-67378080D01*
X44040450Y-67266104D01*
X43930507Y-67190983D01*
X43800000Y-67164555D01*
X42600000Y-67164555D01*
X42488500Y-67185535D01*
X42488500Y-66578416D01*
X42547882Y-66279883D01*
X42700890Y-66050890D01*
X42929883Y-65897882D01*
X43228416Y-65838500D01*
X51564555Y-65838500D01*
X51564555Y-67550000D01*
X51564555Y-67550000D01*
G37*
X51564555Y-67550000D02*
X51587496Y-67671920D01*
X51659550Y-67783896D01*
X51769493Y-67859017D01*
X51900000Y-67885445D01*
X53544340Y-67885445D01*
X53613480Y-67988920D01*
X54036078Y-68411517D01*
X54036080Y-68411520D01*
X54082231Y-68442357D01*
X54108157Y-68505103D01*
X54297000Y-68694277D01*
X54345835Y-68714555D01*
X51900000Y-68714555D01*
X51778080Y-68737496D01*
X51666104Y-68809550D01*
X51590983Y-68919493D01*
X51564555Y-69050000D01*
X51564555Y-70800000D01*
X51587496Y-70921920D01*
X51659550Y-71033896D01*
X51769493Y-71109017D01*
X51900000Y-71135445D01*
X53064555Y-71135445D01*
X53064555Y-71975000D01*
X53087496Y-72096920D01*
X53143070Y-72183285D01*
X53141104Y-72184550D01*
X53065983Y-72294493D01*
X53039555Y-72425000D01*
X53039555Y-72469800D01*
X52611932Y-72469800D01*
X52273101Y-72130969D01*
X52273303Y-71899132D01*
X52171228Y-71652092D01*
X51982385Y-71462918D01*
X51735522Y-71360412D01*
X51468224Y-71360179D01*
X51221184Y-71462254D01*
X51032010Y-71651097D01*
X50929504Y-71897960D01*
X50929271Y-72165258D01*
X51031346Y-72412298D01*
X51220189Y-72601472D01*
X51467052Y-72703978D01*
X51700233Y-72704181D01*
X51710607Y-72714555D01*
X50900000Y-72714555D01*
X50778080Y-72737496D01*
X50666104Y-72809550D01*
X50590983Y-72919493D01*
X50564555Y-73050000D01*
X50564555Y-73950000D01*
X50587496Y-74071920D01*
X50659550Y-74183896D01*
X50769493Y-74259017D01*
X50900000Y-74285445D01*
X52100000Y-74285445D01*
X52221920Y-74262504D01*
X52333896Y-74190450D01*
X52409017Y-74080507D01*
X52435445Y-73950000D01*
X52435445Y-73905200D01*
X52554760Y-73905200D01*
X53086080Y-74436520D01*
X53189555Y-74505659D01*
X53189555Y-74525000D01*
X53212496Y-74646920D01*
X53284550Y-74758896D01*
X53289323Y-74762157D01*
X53215983Y-74869493D01*
X53189555Y-75000000D01*
X53189555Y-75750000D01*
X53212496Y-75871920D01*
X53284550Y-75983896D01*
X53394493Y-76059017D01*
X53525000Y-76085445D01*
X53719800Y-76085445D01*
X53719800Y-76357160D01*
X53188480Y-76888480D01*
X53100644Y-77019936D01*
X53100644Y-77019937D01*
X53069800Y-77175000D01*
X53069800Y-77214555D01*
X53025000Y-77214555D01*
X52903080Y-77237496D01*
X52791104Y-77309550D01*
X52715983Y-77419493D01*
X52689555Y-77550000D01*
X52689555Y-77644800D01*
X50700055Y-77644800D01*
X50615265Y-77439594D01*
X50312003Y-77135802D01*
X49915568Y-76971188D01*
X49486315Y-76970813D01*
X49089594Y-77134735D01*
X48785802Y-77437997D01*
X48621188Y-77834432D01*
X48620867Y-78201478D01*
X48605507Y-78190983D01*
X48475000Y-78164555D01*
X47231608Y-78164555D01*
X45754000Y-76686948D01*
X45754000Y-76360445D01*
X45900000Y-76360445D01*
X46021920Y-76337504D01*
X46133896Y-76265450D01*
X46209017Y-76155507D01*
X46222362Y-76089606D01*
X46323738Y-76069441D01*
X46471026Y-75971026D01*
X47396027Y-75046026D01*
X47494441Y-74898738D01*
X47529000Y-74725000D01*
X47529000Y-72452765D01*
X47542270Y-72452765D01*
X47644345Y-72699805D01*
X47809086Y-72864835D01*
X47809086Y-73166686D01*
X47839930Y-73321750D01*
X47927766Y-73453206D01*
X48261080Y-73786520D01*
X48364555Y-73855660D01*
X48364555Y-73950000D01*
X48387496Y-74071920D01*
X48459550Y-74183896D01*
X48569493Y-74259017D01*
X48700000Y-74285445D01*
X49900000Y-74285445D01*
X50021920Y-74262504D01*
X50133896Y-74190450D01*
X50209017Y-74080507D01*
X50235445Y-73950000D01*
X50235445Y-73050000D01*
X50212504Y-72928080D01*
X50140450Y-72816104D01*
X50030507Y-72740983D01*
X49900000Y-72714555D01*
X48769784Y-72714555D01*
X48783563Y-72700800D01*
X48886069Y-72453937D01*
X48886302Y-72186639D01*
X48784227Y-71939599D01*
X48595384Y-71750425D01*
X48348521Y-71647919D01*
X48081223Y-71647686D01*
X47834183Y-71749761D01*
X47645009Y-71938604D01*
X47542503Y-72185467D01*
X47542270Y-72452765D01*
X47529000Y-72452765D01*
X47529000Y-70039995D01*
X48224114Y-69344882D01*
X48322529Y-69197593D01*
X48357087Y-69023855D01*
X48322529Y-68850117D01*
X48224114Y-68702829D01*
X48132905Y-68641885D01*
X48127438Y-68628654D01*
X47938595Y-68439480D01*
X47858490Y-68406218D01*
X47115753Y-67663480D01*
X46984297Y-67575644D01*
X46829233Y-67544800D01*
X46335445Y-67544800D01*
X46335445Y-67500000D01*
X46312504Y-67378080D01*
X46240450Y-67266104D01*
X46130507Y-67190983D01*
X46000000Y-67164555D01*
X45187595Y-67164555D01*
X45086520Y-67063480D01*
X44955064Y-66975644D01*
X44800000Y-66944800D01*
X44644936Y-66975644D01*
X44513480Y-67063480D01*
X44425644Y-67194936D01*
X44394800Y-67350000D01*
X44425644Y-67505064D01*
X44464555Y-67563298D01*
X44464555Y-68400000D01*
X44487496Y-68521920D01*
X44559550Y-68633896D01*
X44669493Y-68709017D01*
X44800000Y-68735445D01*
X46000000Y-68735445D01*
X46121920Y-68712504D01*
X46233896Y-68640450D01*
X46309017Y-68530507D01*
X46335445Y-68400000D01*
X46335445Y-68355200D01*
X46661393Y-68355200D01*
X46972268Y-68666075D01*
X46885714Y-68874522D01*
X46885481Y-69141820D01*
X46960796Y-69324095D01*
X46753974Y-69530917D01*
X46655559Y-69678205D01*
X46621000Y-69851943D01*
X46621000Y-74536947D01*
X46126426Y-75031522D01*
X46089659Y-75006400D01*
X46127452Y-74990746D01*
X46190746Y-74927452D01*
X46225000Y-74844756D01*
X46225000Y-74431250D01*
X46168750Y-74375000D01*
X45425000Y-74375000D01*
X45425000Y-74395000D01*
X45375000Y-74395000D01*
X45375000Y-74375000D01*
X44631250Y-74375000D01*
X44575000Y-74431250D01*
X44575000Y-74844756D01*
X44609254Y-74927452D01*
X44633811Y-74952009D01*
X44578080Y-74962496D01*
X44466104Y-75034550D01*
X44390983Y-75144493D01*
X44364555Y-75275000D01*
X44364555Y-76025000D01*
X44387496Y-76146920D01*
X44459550Y-76258896D01*
X44569493Y-76334017D01*
X44700000Y-76360445D01*
X44846000Y-76360445D01*
X44846000Y-76875000D01*
X44874830Y-77019936D01*
X44880559Y-77048738D01*
X44978974Y-77196026D01*
X45967694Y-78184746D01*
X45953080Y-78187496D01*
X45841104Y-78259550D01*
X45765983Y-78369493D01*
X45739555Y-78500000D01*
X45739555Y-80000000D01*
X45762496Y-80121920D01*
X45834550Y-80233896D01*
X45944493Y-80309017D01*
X46075000Y-80335445D01*
X46769800Y-80335445D01*
X46769800Y-81023382D01*
X46786259Y-81106126D01*
X45688679Y-81106126D01*
X45688674Y-81106125D01*
X45533611Y-81136970D01*
X45402154Y-81224806D01*
X43895625Y-82731335D01*
X43690568Y-82646188D01*
X43261315Y-82645813D01*
X42864594Y-82809735D01*
X42560802Y-83112997D01*
X42488500Y-83287120D01*
X42488500Y-80225000D01*
X43593750Y-80225000D01*
X43650000Y-80168750D01*
X43650000Y-79275000D01*
X43700000Y-79275000D01*
X43700000Y-80168750D01*
X43756250Y-80225000D01*
X44919755Y-80225000D01*
X45002452Y-80190746D01*
X45065746Y-80127452D01*
X45100000Y-80044756D01*
X45100000Y-79331250D01*
X45043750Y-79275000D01*
X43700000Y-79275000D01*
X43650000Y-79275000D01*
X43630000Y-79275000D01*
X43630000Y-79225000D01*
X43650000Y-79225000D01*
X43650000Y-78331250D01*
X43700000Y-78331250D01*
X43700000Y-79225000D01*
X45043750Y-79225000D01*
X45100000Y-79168750D01*
X45100000Y-78455244D01*
X45065746Y-78372548D01*
X45002452Y-78309254D01*
X44919755Y-78275000D01*
X43756250Y-78275000D01*
X43700000Y-78331250D01*
X43650000Y-78331250D01*
X43593750Y-78275000D01*
X42488500Y-78275000D01*
X42488500Y-75731250D01*
X42575000Y-75731250D01*
X42575000Y-76069756D01*
X42609254Y-76152452D01*
X42672548Y-76215746D01*
X42755245Y-76250000D01*
X43318750Y-76250000D01*
X43375000Y-76193750D01*
X43375000Y-75675000D01*
X43425000Y-75675000D01*
X43425000Y-76193750D01*
X43481250Y-76250000D01*
X44044755Y-76250000D01*
X44127452Y-76215746D01*
X44190746Y-76152452D01*
X44225000Y-76069756D01*
X44225000Y-75731250D01*
X44168750Y-75675000D01*
X43425000Y-75675000D01*
X43375000Y-75675000D01*
X42631250Y-75675000D01*
X42575000Y-75731250D01*
X42488500Y-75731250D01*
X42488500Y-75112866D01*
X42600000Y-75135445D01*
X42621357Y-75135445D01*
X42609254Y-75147548D01*
X42575000Y-75230244D01*
X42575000Y-75568750D01*
X42631250Y-75625000D01*
X43375000Y-75625000D01*
X43375000Y-75605000D01*
X43425000Y-75605000D01*
X43425000Y-75625000D01*
X44168750Y-75625000D01*
X44225000Y-75568750D01*
X44225000Y-75230244D01*
X44190746Y-75147548D01*
X44127452Y-75084254D01*
X44044755Y-75050000D01*
X44019055Y-75050000D01*
X44033896Y-75040450D01*
X44109017Y-74930507D01*
X44135445Y-74800000D01*
X44135445Y-73900000D01*
X44127024Y-73855244D01*
X44575000Y-73855244D01*
X44575000Y-74268750D01*
X44631250Y-74325000D01*
X45375000Y-74325000D01*
X45375000Y-73731250D01*
X45425000Y-73731250D01*
X45425000Y-74325000D01*
X46168750Y-74325000D01*
X46225000Y-74268750D01*
X46225000Y-73855244D01*
X46190746Y-73772548D01*
X46127452Y-73709254D01*
X46044755Y-73675000D01*
X45481250Y-73675000D01*
X45425000Y-73731250D01*
X45375000Y-73731250D01*
X45318750Y-73675000D01*
X44755245Y-73675000D01*
X44672548Y-73709254D01*
X44609254Y-73772548D01*
X44575000Y-73855244D01*
X44127024Y-73855244D01*
X44112504Y-73778080D01*
X44040450Y-73666104D01*
X43930507Y-73590983D01*
X43800000Y-73564555D01*
X43605200Y-73564555D01*
X43605200Y-73535445D01*
X43800000Y-73535445D01*
X43921920Y-73512504D01*
X44033896Y-73440450D01*
X44109017Y-73330507D01*
X44135445Y-73200000D01*
X44135445Y-72300000D01*
X44112504Y-72178080D01*
X44040450Y-72066104D01*
X43930507Y-71990983D01*
X43800000Y-71964555D01*
X43605200Y-71964555D01*
X43605200Y-71935445D01*
X43800000Y-71935445D01*
X43921920Y-71912504D01*
X44033896Y-71840450D01*
X44109017Y-71730507D01*
X44135445Y-71600000D01*
X44135445Y-71087595D01*
X44201226Y-71021814D01*
X44433063Y-71022016D01*
X44464555Y-71009004D01*
X44464555Y-71600000D01*
X44487496Y-71721920D01*
X44559550Y-71833896D01*
X44669493Y-71909017D01*
X44800000Y-71935445D01*
X44994800Y-71935445D01*
X44994800Y-71964555D01*
X44800000Y-71964555D01*
X44678080Y-71987496D01*
X44566104Y-72059550D01*
X44490983Y-72169493D01*
X44464555Y-72300000D01*
X44464555Y-73200000D01*
X44487496Y-73321920D01*
X44559550Y-73433896D01*
X44669493Y-73509017D01*
X44800000Y-73535445D01*
X46000000Y-73535445D01*
X46121920Y-73512504D01*
X46233896Y-73440450D01*
X46309017Y-73330507D01*
X46335445Y-73200000D01*
X46335445Y-72300000D01*
X46312504Y-72178080D01*
X46240450Y-72066104D01*
X46130507Y-71990983D01*
X46000000Y-71964555D01*
X45805200Y-71964555D01*
X45805200Y-71935445D01*
X46000000Y-71935445D01*
X46121920Y-71912504D01*
X46233896Y-71840450D01*
X46309017Y-71730507D01*
X46335445Y-71600000D01*
X46335445Y-70700000D01*
X46312504Y-70578080D01*
X46240450Y-70466104D01*
X46130507Y-70390983D01*
X46000000Y-70364555D01*
X45805200Y-70364555D01*
X45805200Y-70335445D01*
X46000000Y-70335445D01*
X46121920Y-70312504D01*
X46233896Y-70240450D01*
X46309017Y-70130507D01*
X46335445Y-70000000D01*
X46335445Y-69100000D01*
X46312504Y-68978080D01*
X46240450Y-68866104D01*
X46130507Y-68790983D01*
X46000000Y-68764555D01*
X44800000Y-68764555D01*
X44678080Y-68787496D01*
X44566104Y-68859550D01*
X44490983Y-68969493D01*
X44464555Y-69100000D01*
X44464555Y-69690807D01*
X44434235Y-69678217D01*
X44166937Y-69677984D01*
X44135445Y-69690996D01*
X44135445Y-69100000D01*
X44112504Y-68978080D01*
X44040450Y-68866104D01*
X43930507Y-68790983D01*
X43800000Y-68764555D01*
X43605200Y-68764555D01*
X43605200Y-68735445D01*
X43800000Y-68735445D01*
X43921920Y-68712504D01*
X44033896Y-68640450D01*
X44109017Y-68530507D01*
X44135445Y-68400000D01*
X44135445Y-67500000D01*
X44112504Y-67378080D01*
X44040450Y-67266104D01*
X43930507Y-67190983D01*
X43800000Y-67164555D01*
X42600000Y-67164555D01*
X42488500Y-67185535D01*
X42488500Y-66578416D01*
X42547882Y-66279883D01*
X42700890Y-66050890D01*
X42929883Y-65897882D01*
X43228416Y-65838500D01*
X51564555Y-65838500D01*
X51564555Y-67550000D01*
G36*
X56470117Y-65897882D02*
X56699110Y-66050890D01*
X56852118Y-66279883D01*
X56913647Y-66589208D01*
X56911500Y-66600000D01*
X56911500Y-70762134D01*
X56800000Y-70739555D01*
X56235445Y-70739555D01*
X56235445Y-69050000D01*
X56212504Y-68928080D01*
X56140450Y-68816104D01*
X56030507Y-68740983D01*
X55900000Y-68714555D01*
X55010732Y-68714555D01*
X55058201Y-68694941D01*
X55247375Y-68506098D01*
X55349881Y-68259235D01*
X55350114Y-67991937D01*
X55306112Y-67885445D01*
X55900000Y-67885445D01*
X56021920Y-67862504D01*
X56133896Y-67790450D01*
X56209017Y-67680507D01*
X56235445Y-67550000D01*
X56235445Y-65851203D01*
X56470117Y-65897882D01*
X56470117Y-65897882D01*
G37*
X56470117Y-65897882D02*
X56699110Y-66050890D01*
X56852118Y-66279883D01*
X56913647Y-66589208D01*
X56911500Y-66600000D01*
X56911500Y-70762134D01*
X56800000Y-70739555D01*
X56235445Y-70739555D01*
X56235445Y-69050000D01*
X56212504Y-68928080D01*
X56140450Y-68816104D01*
X56030507Y-68740983D01*
X55900000Y-68714555D01*
X55010732Y-68714555D01*
X55058201Y-68694941D01*
X55247375Y-68506098D01*
X55349881Y-68259235D01*
X55350114Y-67991937D01*
X55306112Y-67885445D01*
X55900000Y-67885445D01*
X56021920Y-67862504D01*
X56133896Y-67790450D01*
X56209017Y-67680507D01*
X56235445Y-67550000D01*
X56235445Y-65851203D01*
X56470117Y-65897882D01*
G36*
X54325000Y-81274699D02*
X54325000Y-82299699D01*
X48250000Y-82275301D01*
X48250000Y-81250301D01*
X54325000Y-81274699D01*
X54325000Y-81274699D01*
G37*
X54325000Y-81274699D02*
X54325000Y-82299699D01*
X48250000Y-82275301D01*
X48250000Y-81250301D01*
X54325000Y-81274699D01*
M02*
