%TF.GenerationSoftware,KiCad,Pcbnew,4.0.7*%
%TF.CreationDate,2017-10-11T16:39:00+02:00*%
%TF.ProjectId,ESP12_pcb,45535031325F7063622E6B696361645F,rev?*%
%TF.FileFunction,Copper,L2,Bot,Signal*%
%FSLAX46Y46*%
G04 Gerber Fmt 4.6, Leading zero omitted, Abs format (unit mm)*
G04 Created by KiCad (PCBNEW 4.0.7) date Wednesday, 11 October 2017 'PMt' 16:39:00*
%MOMM*%
%LPD*%
G01*
G04 APERTURE LIST*
%ADD10C,0.127000*%
%ADD11C,0.600000*%
%ADD12R,0.750000X1.200000*%
%ADD13R,1.700000X1.700000*%
%ADD14O,1.700000X1.700000*%
%ADD15R,1.000000X2.000000*%
%ADD16R,1.200000X0.300000*%
%ADD17R,2.400000X2.300000*%
%ADD18C,0.685800*%
%ADD19C,0.250000*%
%ADD20C,0.152400*%
%ADD21C,0.150000*%
G04 APERTURE END LIST*
D10*
D11*
X56500000Y-68400000D03*
X50300000Y-71800000D03*
X49150000Y-71800000D03*
X50300000Y-68350000D03*
X49150000Y-68325000D03*
D12*
X53050000Y-78925000D03*
X53050000Y-77025000D03*
D13*
X55450000Y-80165000D03*
D14*
X55450000Y-77625000D03*
D15*
X51550000Y-80550000D03*
X51550000Y-75550000D03*
X47850000Y-80550000D03*
X47850000Y-75550000D03*
D13*
X45820000Y-86310000D03*
D14*
X45820000Y-88850000D03*
X48360000Y-86310000D03*
X48360000Y-88850000D03*
X50900000Y-86310000D03*
X50900000Y-88850000D03*
X53440000Y-86310000D03*
X53440000Y-88850000D03*
D16*
X52900000Y-71025000D03*
X52900000Y-69725000D03*
X52900000Y-68425000D03*
X52900000Y-67775000D03*
X46500000Y-70375000D03*
X52900000Y-71675000D03*
X52900000Y-72325000D03*
X46500000Y-67775000D03*
X46500000Y-68425000D03*
X52900000Y-69075000D03*
X46500000Y-69075000D03*
X46500000Y-69725000D03*
X52900000Y-70375000D03*
X46500000Y-71025000D03*
X46500000Y-71675000D03*
X46500000Y-72325000D03*
D17*
X49700000Y-70050000D03*
D11*
X54000000Y-84975000D03*
D18*
X47557497Y-69008757D03*
X55000588Y-71497490D03*
X54828099Y-73865585D03*
X54678098Y-68125000D03*
X48214286Y-72319702D03*
X51601287Y-72032195D03*
X46700000Y-82600000D03*
X52190428Y-85351068D03*
X44300000Y-70350000D03*
D19*
X47273641Y-69001359D02*
X47550099Y-69001359D01*
X47550099Y-69001359D02*
X47557497Y-69008757D01*
X47200000Y-69075000D02*
X47273641Y-69001359D01*
D20*
X52603538Y-71012361D02*
X54515459Y-71012361D01*
X54515459Y-71012361D02*
X54657689Y-71154591D01*
X54657689Y-71154591D02*
X55000588Y-71497490D01*
X54828099Y-71669979D02*
X55000588Y-71497490D01*
X54828099Y-73865585D02*
X54828099Y-71669979D01*
X54678098Y-68125000D02*
X53900000Y-68125000D01*
X53900000Y-68125000D02*
X53600000Y-68425000D01*
X54678098Y-68125000D02*
X53950000Y-68125000D01*
X53950000Y-68125000D02*
X53600000Y-67775000D01*
X48214286Y-72319702D02*
X46505298Y-72319702D01*
X46505298Y-72319702D02*
X46500000Y-72325000D01*
X48208988Y-72325000D02*
X48214286Y-72319702D01*
X51944186Y-71689296D02*
X51958482Y-71675000D01*
X51958482Y-71675000D02*
X52900000Y-71675000D01*
X51970537Y-71662945D02*
X51944186Y-71689296D01*
X51944186Y-71689296D02*
X51601287Y-72032195D01*
X46700000Y-82600000D02*
X45569799Y-81469799D01*
X45569799Y-81469799D02*
X45569799Y-71852801D01*
X45569799Y-71852801D02*
X45747600Y-71675000D01*
X45747600Y-71675000D02*
X46500000Y-71675000D01*
X52533327Y-85008169D02*
X52190428Y-85351068D01*
X53050000Y-78925000D02*
X53050000Y-84491496D01*
X53050000Y-84491496D02*
X52533327Y-85008169D01*
X51550000Y-78925000D02*
X51550000Y-79175000D01*
X51550000Y-79175000D02*
X51550000Y-80550000D01*
X51825000Y-78925000D02*
X51800000Y-78925000D01*
X51800000Y-78925000D02*
X51550000Y-79175000D01*
X51800000Y-78925000D02*
X51550000Y-78675000D01*
X51550000Y-78675000D02*
X51550000Y-78925000D01*
X51550000Y-75550000D02*
X51550000Y-78675000D01*
X53050000Y-78925000D02*
X51825000Y-78925000D01*
X51825000Y-78925000D02*
X51550000Y-78925000D01*
X44300000Y-70350000D02*
X45926613Y-70350000D01*
X45926613Y-70350000D02*
X45951613Y-70375000D01*
D21*
G36*
X56470117Y-65897882D02*
X56699110Y-66050890D01*
X56852118Y-66279883D01*
X56913647Y-66589208D01*
X56911500Y-66600000D01*
X56911500Y-89521584D01*
X56852118Y-89820117D01*
X56699110Y-90049110D01*
X56470117Y-90202118D01*
X56171584Y-90261500D01*
X43228416Y-90261500D01*
X42929883Y-90202118D01*
X42700890Y-90049110D01*
X42547882Y-89820117D01*
X42488500Y-89521584D01*
X42488500Y-88826902D01*
X44641000Y-88826902D01*
X44641000Y-88873098D01*
X44730746Y-89324282D01*
X44986321Y-89706777D01*
X45368816Y-89962352D01*
X45820000Y-90052098D01*
X46271184Y-89962352D01*
X46653679Y-89706777D01*
X46909254Y-89324282D01*
X46999000Y-88873098D01*
X46999000Y-88826902D01*
X47181000Y-88826902D01*
X47181000Y-88873098D01*
X47270746Y-89324282D01*
X47526321Y-89706777D01*
X47908816Y-89962352D01*
X48360000Y-90052098D01*
X48811184Y-89962352D01*
X49193679Y-89706777D01*
X49449254Y-89324282D01*
X49539000Y-88873098D01*
X49539000Y-88826902D01*
X49721000Y-88826902D01*
X49721000Y-88873098D01*
X49810746Y-89324282D01*
X50066321Y-89706777D01*
X50448816Y-89962352D01*
X50900000Y-90052098D01*
X51351184Y-89962352D01*
X51733679Y-89706777D01*
X51989254Y-89324282D01*
X52079000Y-88873098D01*
X52079000Y-88826902D01*
X52261000Y-88826902D01*
X52261000Y-88873098D01*
X52350746Y-89324282D01*
X52606321Y-89706777D01*
X52988816Y-89962352D01*
X53440000Y-90052098D01*
X53891184Y-89962352D01*
X54273679Y-89706777D01*
X54529254Y-89324282D01*
X54619000Y-88873098D01*
X54619000Y-88826902D01*
X54529254Y-88375718D01*
X54273679Y-87993223D01*
X53891184Y-87737648D01*
X53440000Y-87647902D01*
X52988816Y-87737648D01*
X52606321Y-87993223D01*
X52350746Y-88375718D01*
X52261000Y-88826902D01*
X52079000Y-88826902D01*
X51989254Y-88375718D01*
X51733679Y-87993223D01*
X51351184Y-87737648D01*
X50900000Y-87647902D01*
X50448816Y-87737648D01*
X50066321Y-87993223D01*
X49810746Y-88375718D01*
X49721000Y-88826902D01*
X49539000Y-88826902D01*
X49449254Y-88375718D01*
X49193679Y-87993223D01*
X48811184Y-87737648D01*
X48360000Y-87647902D01*
X47908816Y-87737648D01*
X47526321Y-87993223D01*
X47270746Y-88375718D01*
X47181000Y-88826902D01*
X46999000Y-88826902D01*
X46909254Y-88375718D01*
X46653679Y-87993223D01*
X46271184Y-87737648D01*
X45820000Y-87647902D01*
X45368816Y-87737648D01*
X44986321Y-87993223D01*
X44730746Y-88375718D01*
X44641000Y-88826902D01*
X42488500Y-88826902D01*
X42488500Y-86391250D01*
X44745000Y-86391250D01*
X44745000Y-87204755D01*
X44779254Y-87287452D01*
X44842548Y-87350746D01*
X44925244Y-87385000D01*
X45738750Y-87385000D01*
X45795000Y-87328750D01*
X45795000Y-86335000D01*
X45845000Y-86335000D01*
X45845000Y-87328750D01*
X45901250Y-87385000D01*
X46714756Y-87385000D01*
X46797452Y-87350746D01*
X46860746Y-87287452D01*
X46895000Y-87204755D01*
X46895000Y-86391250D01*
X46838750Y-86335000D01*
X45845000Y-86335000D01*
X45795000Y-86335000D01*
X44801250Y-86335000D01*
X44745000Y-86391250D01*
X42488500Y-86391250D01*
X42488500Y-86286902D01*
X47181000Y-86286902D01*
X47181000Y-86333098D01*
X47270746Y-86784282D01*
X47526321Y-87166777D01*
X47908816Y-87422352D01*
X48360000Y-87512098D01*
X48811184Y-87422352D01*
X49193679Y-87166777D01*
X49449254Y-86784282D01*
X49539000Y-86333098D01*
X49539000Y-86286902D01*
X49721000Y-86286902D01*
X49721000Y-86333098D01*
X49810746Y-86784282D01*
X50066321Y-87166777D01*
X50448816Y-87422352D01*
X50900000Y-87512098D01*
X51351184Y-87422352D01*
X51733679Y-87166777D01*
X51989254Y-86784282D01*
X52079000Y-86333098D01*
X52079000Y-86286902D01*
X52023802Y-86009401D01*
X52056193Y-86022851D01*
X52313478Y-86023075D01*
X52261000Y-86286902D01*
X52261000Y-86333098D01*
X52350746Y-86784282D01*
X52606321Y-87166777D01*
X52988816Y-87422352D01*
X53440000Y-87512098D01*
X53891184Y-87422352D01*
X54273679Y-87166777D01*
X54529254Y-86784282D01*
X54619000Y-86333098D01*
X54619000Y-86286902D01*
X54529254Y-85835718D01*
X54273679Y-85453223D01*
X53891184Y-85197648D01*
X53440000Y-85107902D01*
X52988816Y-85197648D01*
X52862388Y-85282124D01*
X52862414Y-85252122D01*
X53336520Y-84778016D01*
X53424356Y-84646560D01*
X53455200Y-84491496D01*
X53455200Y-80246250D01*
X54375000Y-80246250D01*
X54375000Y-81059756D01*
X54409254Y-81142452D01*
X54472548Y-81205746D01*
X54555245Y-81240000D01*
X55368750Y-81240000D01*
X55425000Y-81183750D01*
X55425000Y-80190000D01*
X55475000Y-80190000D01*
X55475000Y-81183750D01*
X55531250Y-81240000D01*
X56344755Y-81240000D01*
X56427452Y-81205746D01*
X56490746Y-81142452D01*
X56525000Y-81059756D01*
X56525000Y-80246250D01*
X56468750Y-80190000D01*
X55475000Y-80190000D01*
X55425000Y-80190000D01*
X54431250Y-80190000D01*
X54375000Y-80246250D01*
X53455200Y-80246250D01*
X53455200Y-79854762D01*
X53546920Y-79837504D01*
X53658896Y-79765450D01*
X53734017Y-79655507D01*
X53760445Y-79525000D01*
X53760445Y-79270244D01*
X54375000Y-79270244D01*
X54375000Y-80083750D01*
X54431250Y-80140000D01*
X55425000Y-80140000D01*
X55425000Y-79146250D01*
X55475000Y-79146250D01*
X55475000Y-80140000D01*
X56468750Y-80140000D01*
X56525000Y-80083750D01*
X56525000Y-79270244D01*
X56490746Y-79187548D01*
X56427452Y-79124254D01*
X56344755Y-79090000D01*
X55531250Y-79090000D01*
X55475000Y-79146250D01*
X55425000Y-79146250D01*
X55368750Y-79090000D01*
X54555245Y-79090000D01*
X54472548Y-79124254D01*
X54409254Y-79187548D01*
X54375000Y-79270244D01*
X53760445Y-79270244D01*
X53760445Y-78325000D01*
X53737504Y-78203080D01*
X53665450Y-78091104D01*
X53555507Y-78015983D01*
X53425000Y-77989555D01*
X52675000Y-77989555D01*
X52553080Y-78012496D01*
X52441104Y-78084550D01*
X52365983Y-78194493D01*
X52339555Y-78325000D01*
X52339555Y-78519800D01*
X51967839Y-78519800D01*
X51955200Y-78507160D01*
X51955200Y-77106250D01*
X52450000Y-77106250D01*
X52450000Y-77669755D01*
X52484254Y-77752452D01*
X52547548Y-77815746D01*
X52630244Y-77850000D01*
X52968750Y-77850000D01*
X53025000Y-77793750D01*
X53025000Y-77050000D01*
X53075000Y-77050000D01*
X53075000Y-77793750D01*
X53131250Y-77850000D01*
X53469756Y-77850000D01*
X53552452Y-77815746D01*
X53615746Y-77752452D01*
X53650000Y-77669755D01*
X53650000Y-77625000D01*
X54247902Y-77625000D01*
X54337648Y-78076184D01*
X54593223Y-78458679D01*
X54975718Y-78714254D01*
X55426902Y-78804000D01*
X55473098Y-78804000D01*
X55924282Y-78714254D01*
X56306777Y-78458679D01*
X56562352Y-78076184D01*
X56652098Y-77625000D01*
X56562352Y-77173816D01*
X56306777Y-76791321D01*
X55924282Y-76535746D01*
X55473098Y-76446000D01*
X55426902Y-76446000D01*
X54975718Y-76535746D01*
X54593223Y-76791321D01*
X54337648Y-77173816D01*
X54247902Y-77625000D01*
X53650000Y-77625000D01*
X53650000Y-77106250D01*
X53593750Y-77050000D01*
X53075000Y-77050000D01*
X53025000Y-77050000D01*
X52506250Y-77050000D01*
X52450000Y-77106250D01*
X51955200Y-77106250D01*
X51955200Y-76885445D01*
X52050000Y-76885445D01*
X52171920Y-76862504D01*
X52283896Y-76790450D01*
X52359017Y-76680507D01*
X52385445Y-76550000D01*
X52385445Y-76380245D01*
X52450000Y-76380245D01*
X52450000Y-76943750D01*
X52506250Y-77000000D01*
X53025000Y-77000000D01*
X53025000Y-76256250D01*
X53075000Y-76256250D01*
X53075000Y-77000000D01*
X53593750Y-77000000D01*
X53650000Y-76943750D01*
X53650000Y-76380245D01*
X53615746Y-76297548D01*
X53552452Y-76234254D01*
X53469756Y-76200000D01*
X53131250Y-76200000D01*
X53075000Y-76256250D01*
X53025000Y-76256250D01*
X52968750Y-76200000D01*
X52630244Y-76200000D01*
X52547548Y-76234254D01*
X52484254Y-76297548D01*
X52450000Y-76380245D01*
X52385445Y-76380245D01*
X52385445Y-74550000D01*
X52362504Y-74428080D01*
X52290450Y-74316104D01*
X52180507Y-74240983D01*
X52050000Y-74214555D01*
X51050000Y-74214555D01*
X50928080Y-74237496D01*
X50816104Y-74309550D01*
X50740983Y-74419493D01*
X50714555Y-74550000D01*
X50714555Y-76550000D01*
X50737496Y-76671920D01*
X50809550Y-76783896D01*
X50919493Y-76859017D01*
X51050000Y-76885445D01*
X51144800Y-76885445D01*
X51144800Y-79214555D01*
X51050000Y-79214555D01*
X50928080Y-79237496D01*
X50816104Y-79309550D01*
X50740983Y-79419493D01*
X50714555Y-79550000D01*
X50714555Y-81550000D01*
X50737496Y-81671920D01*
X50809550Y-81783896D01*
X50919493Y-81859017D01*
X51050000Y-81885445D01*
X52050000Y-81885445D01*
X52171920Y-81862504D01*
X52283896Y-81790450D01*
X52359017Y-81680507D01*
X52385445Y-81550000D01*
X52385445Y-79682584D01*
X52434550Y-79758896D01*
X52544493Y-79834017D01*
X52644800Y-79854329D01*
X52644800Y-84323656D01*
X52289202Y-84679254D01*
X52057365Y-84679052D01*
X51810325Y-84781127D01*
X51621151Y-84969970D01*
X51518645Y-85216833D01*
X51518564Y-85309488D01*
X51351184Y-85197648D01*
X50900000Y-85107902D01*
X50448816Y-85197648D01*
X50066321Y-85453223D01*
X49810746Y-85835718D01*
X49721000Y-86286902D01*
X49539000Y-86286902D01*
X49449254Y-85835718D01*
X49193679Y-85453223D01*
X48811184Y-85197648D01*
X48360000Y-85107902D01*
X47908816Y-85197648D01*
X47526321Y-85453223D01*
X47270746Y-85835718D01*
X47181000Y-86286902D01*
X42488500Y-86286902D01*
X42488500Y-85415245D01*
X44745000Y-85415245D01*
X44745000Y-86228750D01*
X44801250Y-86285000D01*
X45795000Y-86285000D01*
X45795000Y-85291250D01*
X45845000Y-85291250D01*
X45845000Y-86285000D01*
X46838750Y-86285000D01*
X46895000Y-86228750D01*
X46895000Y-85415245D01*
X46860746Y-85332548D01*
X46797452Y-85269254D01*
X46714756Y-85235000D01*
X45901250Y-85235000D01*
X45845000Y-85291250D01*
X45795000Y-85291250D01*
X45738750Y-85235000D01*
X44925244Y-85235000D01*
X44842548Y-85269254D01*
X44779254Y-85332548D01*
X44745000Y-85415245D01*
X42488500Y-85415245D01*
X42488500Y-71852801D01*
X45164599Y-71852801D01*
X45164599Y-81469799D01*
X45195443Y-81624863D01*
X45283279Y-81756319D01*
X46028186Y-82501225D01*
X46027984Y-82733063D01*
X46130059Y-82980103D01*
X46318902Y-83169277D01*
X46565765Y-83271783D01*
X46833063Y-83272016D01*
X47080103Y-83169941D01*
X47269277Y-82981098D01*
X47371783Y-82734235D01*
X47372016Y-82466937D01*
X47269941Y-82219897D01*
X47081098Y-82030723D01*
X46834235Y-81928217D01*
X46601053Y-81928014D01*
X45974999Y-81301959D01*
X45974999Y-80631250D01*
X47125000Y-80631250D01*
X47125000Y-81594756D01*
X47159254Y-81677452D01*
X47222548Y-81740746D01*
X47305245Y-81775000D01*
X47768750Y-81775000D01*
X47825000Y-81718750D01*
X47825000Y-80575000D01*
X47875000Y-80575000D01*
X47875000Y-81718750D01*
X47931250Y-81775000D01*
X48394755Y-81775000D01*
X48477452Y-81740746D01*
X48540746Y-81677452D01*
X48575000Y-81594756D01*
X48575000Y-80631250D01*
X48518750Y-80575000D01*
X47875000Y-80575000D01*
X47825000Y-80575000D01*
X47181250Y-80575000D01*
X47125000Y-80631250D01*
X45974999Y-80631250D01*
X45974999Y-79505244D01*
X47125000Y-79505244D01*
X47125000Y-80468750D01*
X47181250Y-80525000D01*
X47825000Y-80525000D01*
X47825000Y-79381250D01*
X47875000Y-79381250D01*
X47875000Y-80525000D01*
X48518750Y-80525000D01*
X48575000Y-80468750D01*
X48575000Y-79505244D01*
X48540746Y-79422548D01*
X48477452Y-79359254D01*
X48394755Y-79325000D01*
X47931250Y-79325000D01*
X47875000Y-79381250D01*
X47825000Y-79381250D01*
X47768750Y-79325000D01*
X47305245Y-79325000D01*
X47222548Y-79359254D01*
X47159254Y-79422548D01*
X47125000Y-79505244D01*
X45974999Y-79505244D01*
X45974999Y-75631250D01*
X47125000Y-75631250D01*
X47125000Y-76594756D01*
X47159254Y-76677452D01*
X47222548Y-76740746D01*
X47305245Y-76775000D01*
X47768750Y-76775000D01*
X47825000Y-76718750D01*
X47825000Y-75575000D01*
X47875000Y-75575000D01*
X47875000Y-76718750D01*
X47931250Y-76775000D01*
X48394755Y-76775000D01*
X48477452Y-76740746D01*
X48540746Y-76677452D01*
X48575000Y-76594756D01*
X48575000Y-75631250D01*
X48518750Y-75575000D01*
X47875000Y-75575000D01*
X47825000Y-75575000D01*
X47181250Y-75575000D01*
X47125000Y-75631250D01*
X45974999Y-75631250D01*
X45974999Y-74505244D01*
X47125000Y-74505244D01*
X47125000Y-75468750D01*
X47181250Y-75525000D01*
X47825000Y-75525000D01*
X47825000Y-74381250D01*
X47875000Y-74381250D01*
X47875000Y-75525000D01*
X48518750Y-75525000D01*
X48575000Y-75468750D01*
X48575000Y-74505244D01*
X48540746Y-74422548D01*
X48477452Y-74359254D01*
X48394755Y-74325000D01*
X47931250Y-74325000D01*
X47875000Y-74381250D01*
X47825000Y-74381250D01*
X47768750Y-74325000D01*
X47305245Y-74325000D01*
X47222548Y-74359254D01*
X47159254Y-74422548D01*
X47125000Y-74505244D01*
X45974999Y-74505244D01*
X45974999Y-72810445D01*
X47100000Y-72810445D01*
X47221920Y-72787504D01*
X47319207Y-72724902D01*
X47669398Y-72724902D01*
X47833188Y-72888979D01*
X48080051Y-72991485D01*
X48347349Y-72991718D01*
X48594389Y-72889643D01*
X48783563Y-72700800D01*
X48886069Y-72453937D01*
X48886302Y-72186639D01*
X48877468Y-72165258D01*
X50929271Y-72165258D01*
X51031346Y-72412298D01*
X51220189Y-72601472D01*
X51467052Y-72703978D01*
X51734350Y-72704211D01*
X51981390Y-72602136D01*
X52075000Y-72508690D01*
X52075000Y-72519755D01*
X52109254Y-72602452D01*
X52172548Y-72665746D01*
X52255244Y-72700000D01*
X52818750Y-72700000D01*
X52875000Y-72643750D01*
X52875000Y-72350000D01*
X52925000Y-72350000D01*
X52925000Y-72643750D01*
X52981250Y-72700000D01*
X53544756Y-72700000D01*
X53627452Y-72665746D01*
X53690746Y-72602452D01*
X53725000Y-72519755D01*
X53725000Y-72406250D01*
X53668750Y-72350000D01*
X52925000Y-72350000D01*
X52875000Y-72350000D01*
X52855000Y-72350000D01*
X52855000Y-72300000D01*
X52875000Y-72300000D01*
X52875000Y-72280000D01*
X52925000Y-72280000D01*
X52925000Y-72300000D01*
X53668750Y-72300000D01*
X53725000Y-72243750D01*
X53725000Y-72130245D01*
X53705681Y-72083605D01*
X53733896Y-72065450D01*
X53809017Y-71955507D01*
X53835445Y-71825000D01*
X53835445Y-71525000D01*
X53815229Y-71417561D01*
X54328758Y-71417561D01*
X54328572Y-71630553D01*
X54422899Y-71858841D01*
X54422899Y-73320697D01*
X54258822Y-73484487D01*
X54156316Y-73731350D01*
X54156083Y-73998648D01*
X54258158Y-74245688D01*
X54447001Y-74434862D01*
X54693864Y-74537368D01*
X54961162Y-74537601D01*
X55208202Y-74435526D01*
X55397376Y-74246683D01*
X55499882Y-73999820D01*
X55500115Y-73732522D01*
X55398040Y-73485482D01*
X55233299Y-73320452D01*
X55233299Y-72128332D01*
X55380691Y-72067431D01*
X55569865Y-71878588D01*
X55672371Y-71631725D01*
X55672604Y-71364427D01*
X55570529Y-71117387D01*
X55381686Y-70928213D01*
X55134823Y-70825707D01*
X54901641Y-70825504D01*
X54801979Y-70725841D01*
X54670523Y-70638005D01*
X54515459Y-70607161D01*
X53709506Y-70607161D01*
X53725000Y-70569755D01*
X53725000Y-70456250D01*
X53668750Y-70400000D01*
X52925000Y-70400000D01*
X52925000Y-70420000D01*
X52875000Y-70420000D01*
X52875000Y-70400000D01*
X52131250Y-70400000D01*
X52075000Y-70456250D01*
X52075000Y-70569755D01*
X52094319Y-70616395D01*
X52066104Y-70634550D01*
X51990983Y-70744493D01*
X51964555Y-70875000D01*
X51964555Y-71175000D01*
X51980497Y-71259725D01*
X51970537Y-71257744D01*
X51815473Y-71288589D01*
X51708018Y-71360388D01*
X51468224Y-71360179D01*
X51221184Y-71462254D01*
X51032010Y-71651097D01*
X50929504Y-71897960D01*
X50929271Y-72165258D01*
X48877468Y-72165258D01*
X48784227Y-71939599D01*
X48595384Y-71750425D01*
X48348521Y-71647919D01*
X48081223Y-71647686D01*
X47834183Y-71749761D01*
X47669153Y-71914502D01*
X47417321Y-71914502D01*
X47435445Y-71825000D01*
X47435445Y-71525000D01*
X47412504Y-71403080D01*
X47340450Y-71291104D01*
X47305374Y-71267137D01*
X47325000Y-71219755D01*
X47325000Y-71106250D01*
X47268750Y-71050000D01*
X46525000Y-71050000D01*
X46525000Y-71070000D01*
X46475000Y-71070000D01*
X46475000Y-71050000D01*
X45731250Y-71050000D01*
X45675000Y-71106250D01*
X45675000Y-71219755D01*
X45694319Y-71266395D01*
X45666104Y-71284550D01*
X45664949Y-71286240D01*
X45601400Y-71298881D01*
X45592537Y-71300644D01*
X45461080Y-71388480D01*
X45461078Y-71388483D01*
X45283279Y-71566281D01*
X45195443Y-71697737D01*
X45195443Y-71697738D01*
X45164599Y-71852801D01*
X42488500Y-71852801D01*
X42488500Y-70483063D01*
X43627984Y-70483063D01*
X43730059Y-70730103D01*
X43918902Y-70919277D01*
X44165765Y-71021783D01*
X44433063Y-71022016D01*
X44680103Y-70919941D01*
X44845133Y-70755200D01*
X45657172Y-70755200D01*
X45659550Y-70758896D01*
X45694626Y-70782863D01*
X45675000Y-70830245D01*
X45675000Y-70943750D01*
X45731250Y-71000000D01*
X46475000Y-71000000D01*
X46475000Y-70980000D01*
X46525000Y-70980000D01*
X46525000Y-71000000D01*
X47268750Y-71000000D01*
X47325000Y-70943750D01*
X47325000Y-70830245D01*
X47305681Y-70783605D01*
X47333896Y-70765450D01*
X47409017Y-70655507D01*
X47435445Y-70525000D01*
X47435445Y-70225000D01*
X47412504Y-70103080D01*
X47378478Y-70050202D01*
X47409017Y-70005507D01*
X47435445Y-69875000D01*
X47435445Y-69680551D01*
X47690560Y-69680773D01*
X47937600Y-69578698D01*
X48126774Y-69389855D01*
X48164555Y-69298868D01*
X48164555Y-71200000D01*
X48187496Y-71321920D01*
X48259550Y-71433896D01*
X48369493Y-71509017D01*
X48500000Y-71535445D01*
X50900000Y-71535445D01*
X51021920Y-71512504D01*
X51133896Y-71440450D01*
X51209017Y-71330507D01*
X51235445Y-71200000D01*
X51235445Y-69806250D01*
X52075000Y-69806250D01*
X52075000Y-69919755D01*
X52109254Y-70002452D01*
X52156802Y-70050000D01*
X52109254Y-70097548D01*
X52075000Y-70180245D01*
X52075000Y-70293750D01*
X52131250Y-70350000D01*
X52875000Y-70350000D01*
X52875000Y-70056250D01*
X52868750Y-70050000D01*
X52875000Y-70043750D01*
X52875000Y-69750000D01*
X52925000Y-69750000D01*
X52925000Y-70043750D01*
X52931250Y-70050000D01*
X52925000Y-70056250D01*
X52925000Y-70350000D01*
X53668750Y-70350000D01*
X53725000Y-70293750D01*
X53725000Y-70180245D01*
X53690746Y-70097548D01*
X53643198Y-70050000D01*
X53690746Y-70002452D01*
X53725000Y-69919755D01*
X53725000Y-69806250D01*
X53668750Y-69750000D01*
X52925000Y-69750000D01*
X52875000Y-69750000D01*
X52131250Y-69750000D01*
X52075000Y-69806250D01*
X51235445Y-69806250D01*
X51235445Y-69156250D01*
X52075000Y-69156250D01*
X52075000Y-69269755D01*
X52109254Y-69352452D01*
X52156802Y-69400000D01*
X52109254Y-69447548D01*
X52075000Y-69530245D01*
X52075000Y-69643750D01*
X52131250Y-69700000D01*
X52875000Y-69700000D01*
X52875000Y-69406250D01*
X52868750Y-69400000D01*
X52875000Y-69393750D01*
X52875000Y-69100000D01*
X52925000Y-69100000D01*
X52925000Y-69393750D01*
X52931250Y-69400000D01*
X52925000Y-69406250D01*
X52925000Y-69700000D01*
X53668750Y-69700000D01*
X53725000Y-69643750D01*
X53725000Y-69530245D01*
X53690746Y-69447548D01*
X53643198Y-69400000D01*
X53690746Y-69352452D01*
X53725000Y-69269755D01*
X53725000Y-69156250D01*
X53668750Y-69100000D01*
X52925000Y-69100000D01*
X52875000Y-69100000D01*
X52131250Y-69100000D01*
X52075000Y-69156250D01*
X51235445Y-69156250D01*
X51235445Y-68900000D01*
X51212504Y-68778080D01*
X51140450Y-68666104D01*
X51030507Y-68590983D01*
X50900000Y-68564555D01*
X48500000Y-68564555D01*
X48378080Y-68587496D01*
X48266104Y-68659550D01*
X48190983Y-68769493D01*
X48189223Y-68778185D01*
X48127438Y-68628654D01*
X47938595Y-68439480D01*
X47691732Y-68336974D01*
X47435445Y-68336751D01*
X47435445Y-68275000D01*
X47412504Y-68153080D01*
X47378478Y-68100202D01*
X47409017Y-68055507D01*
X47435445Y-67925000D01*
X47435445Y-67625000D01*
X51964555Y-67625000D01*
X51964555Y-67925000D01*
X51987496Y-68046920D01*
X52021522Y-68099798D01*
X51990983Y-68144493D01*
X51964555Y-68275000D01*
X51964555Y-68575000D01*
X51987496Y-68696920D01*
X52059550Y-68808896D01*
X52094626Y-68832863D01*
X52075000Y-68880245D01*
X52075000Y-68993750D01*
X52131250Y-69050000D01*
X52875000Y-69050000D01*
X52875000Y-69030000D01*
X52925000Y-69030000D01*
X52925000Y-69050000D01*
X53668750Y-69050000D01*
X53725000Y-68993750D01*
X53725000Y-68880245D01*
X53705681Y-68833605D01*
X53733896Y-68815450D01*
X53743293Y-68801697D01*
X53755064Y-68799356D01*
X53886520Y-68711520D01*
X54067840Y-68530200D01*
X54133210Y-68530200D01*
X54297000Y-68694277D01*
X54543863Y-68796783D01*
X54811161Y-68797016D01*
X55058201Y-68694941D01*
X55247375Y-68506098D01*
X55349881Y-68259235D01*
X55350114Y-67991937D01*
X55248039Y-67744897D01*
X55059196Y-67555723D01*
X54812333Y-67453217D01*
X54545035Y-67452984D01*
X54297995Y-67555059D01*
X54132965Y-67719800D01*
X54117839Y-67719800D01*
X53886520Y-67488480D01*
X53755064Y-67400644D01*
X53745345Y-67398711D01*
X53740450Y-67391104D01*
X53630507Y-67315983D01*
X53500000Y-67289555D01*
X52300000Y-67289555D01*
X52178080Y-67312496D01*
X52066104Y-67384550D01*
X51990983Y-67494493D01*
X51964555Y-67625000D01*
X47435445Y-67625000D01*
X47412504Y-67503080D01*
X47340450Y-67391104D01*
X47230507Y-67315983D01*
X47100000Y-67289555D01*
X45900000Y-67289555D01*
X45778080Y-67312496D01*
X45666104Y-67384550D01*
X45590983Y-67494493D01*
X45564555Y-67625000D01*
X45564555Y-67925000D01*
X45587496Y-68046920D01*
X45621522Y-68099798D01*
X45590983Y-68144493D01*
X45564555Y-68275000D01*
X45564555Y-68575000D01*
X45587496Y-68696920D01*
X45621522Y-68749798D01*
X45590983Y-68794493D01*
X45564555Y-68925000D01*
X45564555Y-69225000D01*
X45587496Y-69346920D01*
X45621522Y-69399798D01*
X45590983Y-69444493D01*
X45564555Y-69575000D01*
X45564555Y-69875000D01*
X45577689Y-69944800D01*
X44844888Y-69944800D01*
X44681098Y-69780723D01*
X44434235Y-69678217D01*
X44166937Y-69677984D01*
X43919897Y-69780059D01*
X43730723Y-69968902D01*
X43628217Y-70215765D01*
X43627984Y-70483063D01*
X42488500Y-70483063D01*
X42488500Y-66578416D01*
X42547882Y-66279883D01*
X42700890Y-66050890D01*
X42929883Y-65897882D01*
X43228416Y-65838500D01*
X56171584Y-65838500D01*
X56470117Y-65897882D01*
X56470117Y-65897882D01*
G37*
X56470117Y-65897882D02*
X56699110Y-66050890D01*
X56852118Y-66279883D01*
X56913647Y-66589208D01*
X56911500Y-66600000D01*
X56911500Y-89521584D01*
X56852118Y-89820117D01*
X56699110Y-90049110D01*
X56470117Y-90202118D01*
X56171584Y-90261500D01*
X43228416Y-90261500D01*
X42929883Y-90202118D01*
X42700890Y-90049110D01*
X42547882Y-89820117D01*
X42488500Y-89521584D01*
X42488500Y-88826902D01*
X44641000Y-88826902D01*
X44641000Y-88873098D01*
X44730746Y-89324282D01*
X44986321Y-89706777D01*
X45368816Y-89962352D01*
X45820000Y-90052098D01*
X46271184Y-89962352D01*
X46653679Y-89706777D01*
X46909254Y-89324282D01*
X46999000Y-88873098D01*
X46999000Y-88826902D01*
X47181000Y-88826902D01*
X47181000Y-88873098D01*
X47270746Y-89324282D01*
X47526321Y-89706777D01*
X47908816Y-89962352D01*
X48360000Y-90052098D01*
X48811184Y-89962352D01*
X49193679Y-89706777D01*
X49449254Y-89324282D01*
X49539000Y-88873098D01*
X49539000Y-88826902D01*
X49721000Y-88826902D01*
X49721000Y-88873098D01*
X49810746Y-89324282D01*
X50066321Y-89706777D01*
X50448816Y-89962352D01*
X50900000Y-90052098D01*
X51351184Y-89962352D01*
X51733679Y-89706777D01*
X51989254Y-89324282D01*
X52079000Y-88873098D01*
X52079000Y-88826902D01*
X52261000Y-88826902D01*
X52261000Y-88873098D01*
X52350746Y-89324282D01*
X52606321Y-89706777D01*
X52988816Y-89962352D01*
X53440000Y-90052098D01*
X53891184Y-89962352D01*
X54273679Y-89706777D01*
X54529254Y-89324282D01*
X54619000Y-88873098D01*
X54619000Y-88826902D01*
X54529254Y-88375718D01*
X54273679Y-87993223D01*
X53891184Y-87737648D01*
X53440000Y-87647902D01*
X52988816Y-87737648D01*
X52606321Y-87993223D01*
X52350746Y-88375718D01*
X52261000Y-88826902D01*
X52079000Y-88826902D01*
X51989254Y-88375718D01*
X51733679Y-87993223D01*
X51351184Y-87737648D01*
X50900000Y-87647902D01*
X50448816Y-87737648D01*
X50066321Y-87993223D01*
X49810746Y-88375718D01*
X49721000Y-88826902D01*
X49539000Y-88826902D01*
X49449254Y-88375718D01*
X49193679Y-87993223D01*
X48811184Y-87737648D01*
X48360000Y-87647902D01*
X47908816Y-87737648D01*
X47526321Y-87993223D01*
X47270746Y-88375718D01*
X47181000Y-88826902D01*
X46999000Y-88826902D01*
X46909254Y-88375718D01*
X46653679Y-87993223D01*
X46271184Y-87737648D01*
X45820000Y-87647902D01*
X45368816Y-87737648D01*
X44986321Y-87993223D01*
X44730746Y-88375718D01*
X44641000Y-88826902D01*
X42488500Y-88826902D01*
X42488500Y-86391250D01*
X44745000Y-86391250D01*
X44745000Y-87204755D01*
X44779254Y-87287452D01*
X44842548Y-87350746D01*
X44925244Y-87385000D01*
X45738750Y-87385000D01*
X45795000Y-87328750D01*
X45795000Y-86335000D01*
X45845000Y-86335000D01*
X45845000Y-87328750D01*
X45901250Y-87385000D01*
X46714756Y-87385000D01*
X46797452Y-87350746D01*
X46860746Y-87287452D01*
X46895000Y-87204755D01*
X46895000Y-86391250D01*
X46838750Y-86335000D01*
X45845000Y-86335000D01*
X45795000Y-86335000D01*
X44801250Y-86335000D01*
X44745000Y-86391250D01*
X42488500Y-86391250D01*
X42488500Y-86286902D01*
X47181000Y-86286902D01*
X47181000Y-86333098D01*
X47270746Y-86784282D01*
X47526321Y-87166777D01*
X47908816Y-87422352D01*
X48360000Y-87512098D01*
X48811184Y-87422352D01*
X49193679Y-87166777D01*
X49449254Y-86784282D01*
X49539000Y-86333098D01*
X49539000Y-86286902D01*
X49721000Y-86286902D01*
X49721000Y-86333098D01*
X49810746Y-86784282D01*
X50066321Y-87166777D01*
X50448816Y-87422352D01*
X50900000Y-87512098D01*
X51351184Y-87422352D01*
X51733679Y-87166777D01*
X51989254Y-86784282D01*
X52079000Y-86333098D01*
X52079000Y-86286902D01*
X52023802Y-86009401D01*
X52056193Y-86022851D01*
X52313478Y-86023075D01*
X52261000Y-86286902D01*
X52261000Y-86333098D01*
X52350746Y-86784282D01*
X52606321Y-87166777D01*
X52988816Y-87422352D01*
X53440000Y-87512098D01*
X53891184Y-87422352D01*
X54273679Y-87166777D01*
X54529254Y-86784282D01*
X54619000Y-86333098D01*
X54619000Y-86286902D01*
X54529254Y-85835718D01*
X54273679Y-85453223D01*
X53891184Y-85197648D01*
X53440000Y-85107902D01*
X52988816Y-85197648D01*
X52862388Y-85282124D01*
X52862414Y-85252122D01*
X53336520Y-84778016D01*
X53424356Y-84646560D01*
X53455200Y-84491496D01*
X53455200Y-80246250D01*
X54375000Y-80246250D01*
X54375000Y-81059756D01*
X54409254Y-81142452D01*
X54472548Y-81205746D01*
X54555245Y-81240000D01*
X55368750Y-81240000D01*
X55425000Y-81183750D01*
X55425000Y-80190000D01*
X55475000Y-80190000D01*
X55475000Y-81183750D01*
X55531250Y-81240000D01*
X56344755Y-81240000D01*
X56427452Y-81205746D01*
X56490746Y-81142452D01*
X56525000Y-81059756D01*
X56525000Y-80246250D01*
X56468750Y-80190000D01*
X55475000Y-80190000D01*
X55425000Y-80190000D01*
X54431250Y-80190000D01*
X54375000Y-80246250D01*
X53455200Y-80246250D01*
X53455200Y-79854762D01*
X53546920Y-79837504D01*
X53658896Y-79765450D01*
X53734017Y-79655507D01*
X53760445Y-79525000D01*
X53760445Y-79270244D01*
X54375000Y-79270244D01*
X54375000Y-80083750D01*
X54431250Y-80140000D01*
X55425000Y-80140000D01*
X55425000Y-79146250D01*
X55475000Y-79146250D01*
X55475000Y-80140000D01*
X56468750Y-80140000D01*
X56525000Y-80083750D01*
X56525000Y-79270244D01*
X56490746Y-79187548D01*
X56427452Y-79124254D01*
X56344755Y-79090000D01*
X55531250Y-79090000D01*
X55475000Y-79146250D01*
X55425000Y-79146250D01*
X55368750Y-79090000D01*
X54555245Y-79090000D01*
X54472548Y-79124254D01*
X54409254Y-79187548D01*
X54375000Y-79270244D01*
X53760445Y-79270244D01*
X53760445Y-78325000D01*
X53737504Y-78203080D01*
X53665450Y-78091104D01*
X53555507Y-78015983D01*
X53425000Y-77989555D01*
X52675000Y-77989555D01*
X52553080Y-78012496D01*
X52441104Y-78084550D01*
X52365983Y-78194493D01*
X52339555Y-78325000D01*
X52339555Y-78519800D01*
X51967839Y-78519800D01*
X51955200Y-78507160D01*
X51955200Y-77106250D01*
X52450000Y-77106250D01*
X52450000Y-77669755D01*
X52484254Y-77752452D01*
X52547548Y-77815746D01*
X52630244Y-77850000D01*
X52968750Y-77850000D01*
X53025000Y-77793750D01*
X53025000Y-77050000D01*
X53075000Y-77050000D01*
X53075000Y-77793750D01*
X53131250Y-77850000D01*
X53469756Y-77850000D01*
X53552452Y-77815746D01*
X53615746Y-77752452D01*
X53650000Y-77669755D01*
X53650000Y-77625000D01*
X54247902Y-77625000D01*
X54337648Y-78076184D01*
X54593223Y-78458679D01*
X54975718Y-78714254D01*
X55426902Y-78804000D01*
X55473098Y-78804000D01*
X55924282Y-78714254D01*
X56306777Y-78458679D01*
X56562352Y-78076184D01*
X56652098Y-77625000D01*
X56562352Y-77173816D01*
X56306777Y-76791321D01*
X55924282Y-76535746D01*
X55473098Y-76446000D01*
X55426902Y-76446000D01*
X54975718Y-76535746D01*
X54593223Y-76791321D01*
X54337648Y-77173816D01*
X54247902Y-77625000D01*
X53650000Y-77625000D01*
X53650000Y-77106250D01*
X53593750Y-77050000D01*
X53075000Y-77050000D01*
X53025000Y-77050000D01*
X52506250Y-77050000D01*
X52450000Y-77106250D01*
X51955200Y-77106250D01*
X51955200Y-76885445D01*
X52050000Y-76885445D01*
X52171920Y-76862504D01*
X52283896Y-76790450D01*
X52359017Y-76680507D01*
X52385445Y-76550000D01*
X52385445Y-76380245D01*
X52450000Y-76380245D01*
X52450000Y-76943750D01*
X52506250Y-77000000D01*
X53025000Y-77000000D01*
X53025000Y-76256250D01*
X53075000Y-76256250D01*
X53075000Y-77000000D01*
X53593750Y-77000000D01*
X53650000Y-76943750D01*
X53650000Y-76380245D01*
X53615746Y-76297548D01*
X53552452Y-76234254D01*
X53469756Y-76200000D01*
X53131250Y-76200000D01*
X53075000Y-76256250D01*
X53025000Y-76256250D01*
X52968750Y-76200000D01*
X52630244Y-76200000D01*
X52547548Y-76234254D01*
X52484254Y-76297548D01*
X52450000Y-76380245D01*
X52385445Y-76380245D01*
X52385445Y-74550000D01*
X52362504Y-74428080D01*
X52290450Y-74316104D01*
X52180507Y-74240983D01*
X52050000Y-74214555D01*
X51050000Y-74214555D01*
X50928080Y-74237496D01*
X50816104Y-74309550D01*
X50740983Y-74419493D01*
X50714555Y-74550000D01*
X50714555Y-76550000D01*
X50737496Y-76671920D01*
X50809550Y-76783896D01*
X50919493Y-76859017D01*
X51050000Y-76885445D01*
X51144800Y-76885445D01*
X51144800Y-79214555D01*
X51050000Y-79214555D01*
X50928080Y-79237496D01*
X50816104Y-79309550D01*
X50740983Y-79419493D01*
X50714555Y-79550000D01*
X50714555Y-81550000D01*
X50737496Y-81671920D01*
X50809550Y-81783896D01*
X50919493Y-81859017D01*
X51050000Y-81885445D01*
X52050000Y-81885445D01*
X52171920Y-81862504D01*
X52283896Y-81790450D01*
X52359017Y-81680507D01*
X52385445Y-81550000D01*
X52385445Y-79682584D01*
X52434550Y-79758896D01*
X52544493Y-79834017D01*
X52644800Y-79854329D01*
X52644800Y-84323656D01*
X52289202Y-84679254D01*
X52057365Y-84679052D01*
X51810325Y-84781127D01*
X51621151Y-84969970D01*
X51518645Y-85216833D01*
X51518564Y-85309488D01*
X51351184Y-85197648D01*
X50900000Y-85107902D01*
X50448816Y-85197648D01*
X50066321Y-85453223D01*
X49810746Y-85835718D01*
X49721000Y-86286902D01*
X49539000Y-86286902D01*
X49449254Y-85835718D01*
X49193679Y-85453223D01*
X48811184Y-85197648D01*
X48360000Y-85107902D01*
X47908816Y-85197648D01*
X47526321Y-85453223D01*
X47270746Y-85835718D01*
X47181000Y-86286902D01*
X42488500Y-86286902D01*
X42488500Y-85415245D01*
X44745000Y-85415245D01*
X44745000Y-86228750D01*
X44801250Y-86285000D01*
X45795000Y-86285000D01*
X45795000Y-85291250D01*
X45845000Y-85291250D01*
X45845000Y-86285000D01*
X46838750Y-86285000D01*
X46895000Y-86228750D01*
X46895000Y-85415245D01*
X46860746Y-85332548D01*
X46797452Y-85269254D01*
X46714756Y-85235000D01*
X45901250Y-85235000D01*
X45845000Y-85291250D01*
X45795000Y-85291250D01*
X45738750Y-85235000D01*
X44925244Y-85235000D01*
X44842548Y-85269254D01*
X44779254Y-85332548D01*
X44745000Y-85415245D01*
X42488500Y-85415245D01*
X42488500Y-71852801D01*
X45164599Y-71852801D01*
X45164599Y-81469799D01*
X45195443Y-81624863D01*
X45283279Y-81756319D01*
X46028186Y-82501225D01*
X46027984Y-82733063D01*
X46130059Y-82980103D01*
X46318902Y-83169277D01*
X46565765Y-83271783D01*
X46833063Y-83272016D01*
X47080103Y-83169941D01*
X47269277Y-82981098D01*
X47371783Y-82734235D01*
X47372016Y-82466937D01*
X47269941Y-82219897D01*
X47081098Y-82030723D01*
X46834235Y-81928217D01*
X46601053Y-81928014D01*
X45974999Y-81301959D01*
X45974999Y-80631250D01*
X47125000Y-80631250D01*
X47125000Y-81594756D01*
X47159254Y-81677452D01*
X47222548Y-81740746D01*
X47305245Y-81775000D01*
X47768750Y-81775000D01*
X47825000Y-81718750D01*
X47825000Y-80575000D01*
X47875000Y-80575000D01*
X47875000Y-81718750D01*
X47931250Y-81775000D01*
X48394755Y-81775000D01*
X48477452Y-81740746D01*
X48540746Y-81677452D01*
X48575000Y-81594756D01*
X48575000Y-80631250D01*
X48518750Y-80575000D01*
X47875000Y-80575000D01*
X47825000Y-80575000D01*
X47181250Y-80575000D01*
X47125000Y-80631250D01*
X45974999Y-80631250D01*
X45974999Y-79505244D01*
X47125000Y-79505244D01*
X47125000Y-80468750D01*
X47181250Y-80525000D01*
X47825000Y-80525000D01*
X47825000Y-79381250D01*
X47875000Y-79381250D01*
X47875000Y-80525000D01*
X48518750Y-80525000D01*
X48575000Y-80468750D01*
X48575000Y-79505244D01*
X48540746Y-79422548D01*
X48477452Y-79359254D01*
X48394755Y-79325000D01*
X47931250Y-79325000D01*
X47875000Y-79381250D01*
X47825000Y-79381250D01*
X47768750Y-79325000D01*
X47305245Y-79325000D01*
X47222548Y-79359254D01*
X47159254Y-79422548D01*
X47125000Y-79505244D01*
X45974999Y-79505244D01*
X45974999Y-75631250D01*
X47125000Y-75631250D01*
X47125000Y-76594756D01*
X47159254Y-76677452D01*
X47222548Y-76740746D01*
X47305245Y-76775000D01*
X47768750Y-76775000D01*
X47825000Y-76718750D01*
X47825000Y-75575000D01*
X47875000Y-75575000D01*
X47875000Y-76718750D01*
X47931250Y-76775000D01*
X48394755Y-76775000D01*
X48477452Y-76740746D01*
X48540746Y-76677452D01*
X48575000Y-76594756D01*
X48575000Y-75631250D01*
X48518750Y-75575000D01*
X47875000Y-75575000D01*
X47825000Y-75575000D01*
X47181250Y-75575000D01*
X47125000Y-75631250D01*
X45974999Y-75631250D01*
X45974999Y-74505244D01*
X47125000Y-74505244D01*
X47125000Y-75468750D01*
X47181250Y-75525000D01*
X47825000Y-75525000D01*
X47825000Y-74381250D01*
X47875000Y-74381250D01*
X47875000Y-75525000D01*
X48518750Y-75525000D01*
X48575000Y-75468750D01*
X48575000Y-74505244D01*
X48540746Y-74422548D01*
X48477452Y-74359254D01*
X48394755Y-74325000D01*
X47931250Y-74325000D01*
X47875000Y-74381250D01*
X47825000Y-74381250D01*
X47768750Y-74325000D01*
X47305245Y-74325000D01*
X47222548Y-74359254D01*
X47159254Y-74422548D01*
X47125000Y-74505244D01*
X45974999Y-74505244D01*
X45974999Y-72810445D01*
X47100000Y-72810445D01*
X47221920Y-72787504D01*
X47319207Y-72724902D01*
X47669398Y-72724902D01*
X47833188Y-72888979D01*
X48080051Y-72991485D01*
X48347349Y-72991718D01*
X48594389Y-72889643D01*
X48783563Y-72700800D01*
X48886069Y-72453937D01*
X48886302Y-72186639D01*
X48877468Y-72165258D01*
X50929271Y-72165258D01*
X51031346Y-72412298D01*
X51220189Y-72601472D01*
X51467052Y-72703978D01*
X51734350Y-72704211D01*
X51981390Y-72602136D01*
X52075000Y-72508690D01*
X52075000Y-72519755D01*
X52109254Y-72602452D01*
X52172548Y-72665746D01*
X52255244Y-72700000D01*
X52818750Y-72700000D01*
X52875000Y-72643750D01*
X52875000Y-72350000D01*
X52925000Y-72350000D01*
X52925000Y-72643750D01*
X52981250Y-72700000D01*
X53544756Y-72700000D01*
X53627452Y-72665746D01*
X53690746Y-72602452D01*
X53725000Y-72519755D01*
X53725000Y-72406250D01*
X53668750Y-72350000D01*
X52925000Y-72350000D01*
X52875000Y-72350000D01*
X52855000Y-72350000D01*
X52855000Y-72300000D01*
X52875000Y-72300000D01*
X52875000Y-72280000D01*
X52925000Y-72280000D01*
X52925000Y-72300000D01*
X53668750Y-72300000D01*
X53725000Y-72243750D01*
X53725000Y-72130245D01*
X53705681Y-72083605D01*
X53733896Y-72065450D01*
X53809017Y-71955507D01*
X53835445Y-71825000D01*
X53835445Y-71525000D01*
X53815229Y-71417561D01*
X54328758Y-71417561D01*
X54328572Y-71630553D01*
X54422899Y-71858841D01*
X54422899Y-73320697D01*
X54258822Y-73484487D01*
X54156316Y-73731350D01*
X54156083Y-73998648D01*
X54258158Y-74245688D01*
X54447001Y-74434862D01*
X54693864Y-74537368D01*
X54961162Y-74537601D01*
X55208202Y-74435526D01*
X55397376Y-74246683D01*
X55499882Y-73999820D01*
X55500115Y-73732522D01*
X55398040Y-73485482D01*
X55233299Y-73320452D01*
X55233299Y-72128332D01*
X55380691Y-72067431D01*
X55569865Y-71878588D01*
X55672371Y-71631725D01*
X55672604Y-71364427D01*
X55570529Y-71117387D01*
X55381686Y-70928213D01*
X55134823Y-70825707D01*
X54901641Y-70825504D01*
X54801979Y-70725841D01*
X54670523Y-70638005D01*
X54515459Y-70607161D01*
X53709506Y-70607161D01*
X53725000Y-70569755D01*
X53725000Y-70456250D01*
X53668750Y-70400000D01*
X52925000Y-70400000D01*
X52925000Y-70420000D01*
X52875000Y-70420000D01*
X52875000Y-70400000D01*
X52131250Y-70400000D01*
X52075000Y-70456250D01*
X52075000Y-70569755D01*
X52094319Y-70616395D01*
X52066104Y-70634550D01*
X51990983Y-70744493D01*
X51964555Y-70875000D01*
X51964555Y-71175000D01*
X51980497Y-71259725D01*
X51970537Y-71257744D01*
X51815473Y-71288589D01*
X51708018Y-71360388D01*
X51468224Y-71360179D01*
X51221184Y-71462254D01*
X51032010Y-71651097D01*
X50929504Y-71897960D01*
X50929271Y-72165258D01*
X48877468Y-72165258D01*
X48784227Y-71939599D01*
X48595384Y-71750425D01*
X48348521Y-71647919D01*
X48081223Y-71647686D01*
X47834183Y-71749761D01*
X47669153Y-71914502D01*
X47417321Y-71914502D01*
X47435445Y-71825000D01*
X47435445Y-71525000D01*
X47412504Y-71403080D01*
X47340450Y-71291104D01*
X47305374Y-71267137D01*
X47325000Y-71219755D01*
X47325000Y-71106250D01*
X47268750Y-71050000D01*
X46525000Y-71050000D01*
X46525000Y-71070000D01*
X46475000Y-71070000D01*
X46475000Y-71050000D01*
X45731250Y-71050000D01*
X45675000Y-71106250D01*
X45675000Y-71219755D01*
X45694319Y-71266395D01*
X45666104Y-71284550D01*
X45664949Y-71286240D01*
X45601400Y-71298881D01*
X45592537Y-71300644D01*
X45461080Y-71388480D01*
X45461078Y-71388483D01*
X45283279Y-71566281D01*
X45195443Y-71697737D01*
X45195443Y-71697738D01*
X45164599Y-71852801D01*
X42488500Y-71852801D01*
X42488500Y-70483063D01*
X43627984Y-70483063D01*
X43730059Y-70730103D01*
X43918902Y-70919277D01*
X44165765Y-71021783D01*
X44433063Y-71022016D01*
X44680103Y-70919941D01*
X44845133Y-70755200D01*
X45657172Y-70755200D01*
X45659550Y-70758896D01*
X45694626Y-70782863D01*
X45675000Y-70830245D01*
X45675000Y-70943750D01*
X45731250Y-71000000D01*
X46475000Y-71000000D01*
X46475000Y-70980000D01*
X46525000Y-70980000D01*
X46525000Y-71000000D01*
X47268750Y-71000000D01*
X47325000Y-70943750D01*
X47325000Y-70830245D01*
X47305681Y-70783605D01*
X47333896Y-70765450D01*
X47409017Y-70655507D01*
X47435445Y-70525000D01*
X47435445Y-70225000D01*
X47412504Y-70103080D01*
X47378478Y-70050202D01*
X47409017Y-70005507D01*
X47435445Y-69875000D01*
X47435445Y-69680551D01*
X47690560Y-69680773D01*
X47937600Y-69578698D01*
X48126774Y-69389855D01*
X48164555Y-69298868D01*
X48164555Y-71200000D01*
X48187496Y-71321920D01*
X48259550Y-71433896D01*
X48369493Y-71509017D01*
X48500000Y-71535445D01*
X50900000Y-71535445D01*
X51021920Y-71512504D01*
X51133896Y-71440450D01*
X51209017Y-71330507D01*
X51235445Y-71200000D01*
X51235445Y-69806250D01*
X52075000Y-69806250D01*
X52075000Y-69919755D01*
X52109254Y-70002452D01*
X52156802Y-70050000D01*
X52109254Y-70097548D01*
X52075000Y-70180245D01*
X52075000Y-70293750D01*
X52131250Y-70350000D01*
X52875000Y-70350000D01*
X52875000Y-70056250D01*
X52868750Y-70050000D01*
X52875000Y-70043750D01*
X52875000Y-69750000D01*
X52925000Y-69750000D01*
X52925000Y-70043750D01*
X52931250Y-70050000D01*
X52925000Y-70056250D01*
X52925000Y-70350000D01*
X53668750Y-70350000D01*
X53725000Y-70293750D01*
X53725000Y-70180245D01*
X53690746Y-70097548D01*
X53643198Y-70050000D01*
X53690746Y-70002452D01*
X53725000Y-69919755D01*
X53725000Y-69806250D01*
X53668750Y-69750000D01*
X52925000Y-69750000D01*
X52875000Y-69750000D01*
X52131250Y-69750000D01*
X52075000Y-69806250D01*
X51235445Y-69806250D01*
X51235445Y-69156250D01*
X52075000Y-69156250D01*
X52075000Y-69269755D01*
X52109254Y-69352452D01*
X52156802Y-69400000D01*
X52109254Y-69447548D01*
X52075000Y-69530245D01*
X52075000Y-69643750D01*
X52131250Y-69700000D01*
X52875000Y-69700000D01*
X52875000Y-69406250D01*
X52868750Y-69400000D01*
X52875000Y-69393750D01*
X52875000Y-69100000D01*
X52925000Y-69100000D01*
X52925000Y-69393750D01*
X52931250Y-69400000D01*
X52925000Y-69406250D01*
X52925000Y-69700000D01*
X53668750Y-69700000D01*
X53725000Y-69643750D01*
X53725000Y-69530245D01*
X53690746Y-69447548D01*
X53643198Y-69400000D01*
X53690746Y-69352452D01*
X53725000Y-69269755D01*
X53725000Y-69156250D01*
X53668750Y-69100000D01*
X52925000Y-69100000D01*
X52875000Y-69100000D01*
X52131250Y-69100000D01*
X52075000Y-69156250D01*
X51235445Y-69156250D01*
X51235445Y-68900000D01*
X51212504Y-68778080D01*
X51140450Y-68666104D01*
X51030507Y-68590983D01*
X50900000Y-68564555D01*
X48500000Y-68564555D01*
X48378080Y-68587496D01*
X48266104Y-68659550D01*
X48190983Y-68769493D01*
X48189223Y-68778185D01*
X48127438Y-68628654D01*
X47938595Y-68439480D01*
X47691732Y-68336974D01*
X47435445Y-68336751D01*
X47435445Y-68275000D01*
X47412504Y-68153080D01*
X47378478Y-68100202D01*
X47409017Y-68055507D01*
X47435445Y-67925000D01*
X47435445Y-67625000D01*
X51964555Y-67625000D01*
X51964555Y-67925000D01*
X51987496Y-68046920D01*
X52021522Y-68099798D01*
X51990983Y-68144493D01*
X51964555Y-68275000D01*
X51964555Y-68575000D01*
X51987496Y-68696920D01*
X52059550Y-68808896D01*
X52094626Y-68832863D01*
X52075000Y-68880245D01*
X52075000Y-68993750D01*
X52131250Y-69050000D01*
X52875000Y-69050000D01*
X52875000Y-69030000D01*
X52925000Y-69030000D01*
X52925000Y-69050000D01*
X53668750Y-69050000D01*
X53725000Y-68993750D01*
X53725000Y-68880245D01*
X53705681Y-68833605D01*
X53733896Y-68815450D01*
X53743293Y-68801697D01*
X53755064Y-68799356D01*
X53886520Y-68711520D01*
X54067840Y-68530200D01*
X54133210Y-68530200D01*
X54297000Y-68694277D01*
X54543863Y-68796783D01*
X54811161Y-68797016D01*
X55058201Y-68694941D01*
X55247375Y-68506098D01*
X55349881Y-68259235D01*
X55350114Y-67991937D01*
X55248039Y-67744897D01*
X55059196Y-67555723D01*
X54812333Y-67453217D01*
X54545035Y-67452984D01*
X54297995Y-67555059D01*
X54132965Y-67719800D01*
X54117839Y-67719800D01*
X53886520Y-67488480D01*
X53755064Y-67400644D01*
X53745345Y-67398711D01*
X53740450Y-67391104D01*
X53630507Y-67315983D01*
X53500000Y-67289555D01*
X52300000Y-67289555D01*
X52178080Y-67312496D01*
X52066104Y-67384550D01*
X51990983Y-67494493D01*
X51964555Y-67625000D01*
X47435445Y-67625000D01*
X47412504Y-67503080D01*
X47340450Y-67391104D01*
X47230507Y-67315983D01*
X47100000Y-67289555D01*
X45900000Y-67289555D01*
X45778080Y-67312496D01*
X45666104Y-67384550D01*
X45590983Y-67494493D01*
X45564555Y-67625000D01*
X45564555Y-67925000D01*
X45587496Y-68046920D01*
X45621522Y-68099798D01*
X45590983Y-68144493D01*
X45564555Y-68275000D01*
X45564555Y-68575000D01*
X45587496Y-68696920D01*
X45621522Y-68749798D01*
X45590983Y-68794493D01*
X45564555Y-68925000D01*
X45564555Y-69225000D01*
X45587496Y-69346920D01*
X45621522Y-69399798D01*
X45590983Y-69444493D01*
X45564555Y-69575000D01*
X45564555Y-69875000D01*
X45577689Y-69944800D01*
X44844888Y-69944800D01*
X44681098Y-69780723D01*
X44434235Y-69678217D01*
X44166937Y-69677984D01*
X43919897Y-69780059D01*
X43730723Y-69968902D01*
X43628217Y-70215765D01*
X43627984Y-70483063D01*
X42488500Y-70483063D01*
X42488500Y-66578416D01*
X42547882Y-66279883D01*
X42700890Y-66050890D01*
X42929883Y-65897882D01*
X43228416Y-65838500D01*
X56171584Y-65838500D01*
X56470117Y-65897882D01*
G36*
X53625000Y-68500000D02*
X52375000Y-68500000D01*
X52375000Y-67700000D01*
X53625000Y-67700000D01*
X53625000Y-68500000D01*
X53625000Y-68500000D01*
G37*
X53625000Y-68500000D02*
X52375000Y-68500000D01*
X52375000Y-67700000D01*
X53625000Y-67700000D01*
X53625000Y-68500000D01*
G36*
X47286599Y-68989203D02*
X47286599Y-69209786D01*
X47036893Y-69800000D01*
X45961599Y-69800000D01*
X45961599Y-68350000D01*
X47035484Y-68350000D01*
X47286599Y-68989203D01*
X47286599Y-68989203D01*
G37*
X47286599Y-68989203D02*
X47286599Y-69209786D01*
X47036893Y-69800000D01*
X45961599Y-69800000D01*
X45961599Y-68350000D01*
X47035484Y-68350000D01*
X47286599Y-68989203D01*
M02*
