M48
;DRILL file {KiCad 4.0.7} date Wednesday, 11 October 2017 'PMt' 16:39:03
;FORMAT={-:-/ absolute / inch / decimal}
FMAT,2
INCH,TZ
T1C0.012
T2C0.013
T3C0.039
%
G90
G05
M72
T1
X1.935Y-2.69
X1.935Y-2.8268
X1.9803Y-2.6909
X1.9803Y-2.8268
X2.126Y-3.3455
X2.2244Y-2.6929
T2
X1.7441Y-2.7697
X1.8386Y-3.252
X1.8723Y-2.7169
X1.8982Y-2.8472
X2.0315Y-2.8359
X2.0547Y-3.3603
X2.1527Y-2.6821
X2.1586Y-2.9081
X2.1654Y-2.8149
T3
X1.8039Y-3.398
X1.8039Y-3.498
X1.9039Y-3.398
X1.9039Y-3.498
X2.0039Y-3.398
X2.0039Y-3.498
X2.1039Y-3.398
X2.1039Y-3.498
X2.1831Y-3.0561
X2.1831Y-3.1561
T0
M30
