%TF.GenerationSoftware,KiCad,Pcbnew,4.0.7*%
%TF.CreationDate,2017-10-11T16:39:00+02:00*%
%TF.ProjectId,ESP12_pcb,45535031325F7063622E6B696361645F,rev?*%
%TF.FileFunction,Legend,Top*%
%FSLAX46Y46*%
G04 Gerber Fmt 4.6, Leading zero omitted, Abs format (unit mm)*
G04 Created by KiCad (PCBNEW 4.0.7) date Wednesday, 11 October 2017 'PMt' 16:39:00*
%MOMM*%
%LPD*%
G01*
G04 APERTURE LIST*
%ADD10C,0.127000*%
%ADD11C,0.150000*%
%ADD12C,0.120000*%
%ADD13C,0.100000*%
%ADD14R,1.300000X1.000000*%
%ADD15R,0.850000X1.300000*%
%ADD16R,1.300000X0.850000*%
%ADD17R,1.800000X1.800000*%
%ADD18O,1.800000X1.800000*%
%ADD19R,1.000000X0.900000*%
%ADD20R,1.000000X1.300000*%
%ADD21C,1.600000*%
%ADD22R,4.100000X1.850000*%
%ADD23R,2.500000X1.600000*%
G04 APERTURE END LIST*
D10*
X55221429Y-89650000D02*
X55821429Y-89450000D01*
X55221429Y-89250000D01*
X55764286Y-88707143D02*
X55792857Y-88735714D01*
X55821429Y-88821428D01*
X55821429Y-88878571D01*
X55792857Y-88964286D01*
X55735714Y-89021428D01*
X55678571Y-89050000D01*
X55564286Y-89078571D01*
X55478571Y-89078571D01*
X55364286Y-89050000D01*
X55307143Y-89021428D01*
X55250000Y-88964286D01*
X55221429Y-88878571D01*
X55221429Y-88821428D01*
X55250000Y-88735714D01*
X55278571Y-88707143D01*
X55764286Y-88107143D02*
X55792857Y-88135714D01*
X55821429Y-88221428D01*
X55821429Y-88278571D01*
X55792857Y-88364286D01*
X55735714Y-88421428D01*
X55678571Y-88450000D01*
X55564286Y-88478571D01*
X55478571Y-88478571D01*
X55364286Y-88450000D01*
X55307143Y-88421428D01*
X55250000Y-88364286D01*
X55221429Y-88278571D01*
X55221429Y-88221428D01*
X55250000Y-88135714D01*
X55278571Y-88107143D01*
X43500000Y-86807142D02*
X43471429Y-86864285D01*
X43471429Y-86949999D01*
X43500000Y-87035714D01*
X43557143Y-87092856D01*
X43614286Y-87121428D01*
X43728571Y-87149999D01*
X43814286Y-87149999D01*
X43928571Y-87121428D01*
X43985714Y-87092856D01*
X44042857Y-87035714D01*
X44071429Y-86949999D01*
X44071429Y-86892856D01*
X44042857Y-86807142D01*
X44014286Y-86778571D01*
X43814286Y-86778571D01*
X43814286Y-86892856D01*
X44071429Y-86521428D02*
X43471429Y-86521428D01*
X44071429Y-86178571D01*
X43471429Y-86178571D01*
X44071429Y-85892857D02*
X43471429Y-85892857D01*
X43471429Y-85750000D01*
X43500000Y-85664285D01*
X43557143Y-85607143D01*
X43614286Y-85578571D01*
X43728571Y-85550000D01*
X43814286Y-85550000D01*
X43928571Y-85578571D01*
X43985714Y-85607143D01*
X44042857Y-85664285D01*
X44071429Y-85750000D01*
X44071429Y-85892857D01*
D11*
X55600000Y-72200000D02*
X54600000Y-72200000D01*
X54600000Y-70850000D02*
X55600000Y-70850000D01*
X54600000Y-82400000D02*
X54600000Y-83100000D01*
X53400000Y-83100000D02*
X53400000Y-82400000D01*
X54725000Y-74775000D02*
X55425000Y-74775000D01*
X55425000Y-75975000D02*
X54725000Y-75975000D01*
X54725000Y-73550000D02*
X55425000Y-73550000D01*
X55425000Y-74750000D02*
X54725000Y-74750000D01*
X44700000Y-76250000D02*
X44000000Y-76250000D01*
X44000000Y-75050000D02*
X44700000Y-75050000D01*
D12*
X56840000Y-78895000D02*
X56840000Y-76235000D01*
X56840000Y-76235000D02*
X54060000Y-76235000D01*
X54060000Y-76235000D02*
X54060000Y-78895000D01*
X54060000Y-78895000D02*
X56840000Y-78895000D01*
X56840000Y-80165000D02*
X56840000Y-81555000D01*
X56840000Y-81555000D02*
X55450000Y-81555000D01*
X51715000Y-77320000D02*
X51715000Y-78250000D01*
X51715000Y-80480000D02*
X51715000Y-79550000D01*
X51715000Y-80480000D02*
X53875000Y-80480000D01*
X51715000Y-77320000D02*
X53175000Y-77320000D01*
D11*
X49900000Y-72825000D02*
X50900000Y-72825000D01*
X50900000Y-74175000D02*
X49900000Y-74175000D01*
X55575000Y-73550000D02*
X54575000Y-73550000D01*
X54575000Y-72200000D02*
X55575000Y-72200000D01*
X44800000Y-70225000D02*
X43800000Y-70225000D01*
X43800000Y-68875000D02*
X44800000Y-68875000D01*
X43800000Y-72075000D02*
X44800000Y-72075000D01*
X44800000Y-73425000D02*
X43800000Y-73425000D01*
X43800000Y-70475000D02*
X44800000Y-70475000D01*
X44800000Y-71825000D02*
X43800000Y-71825000D01*
X44800000Y-75025000D02*
X43800000Y-75025000D01*
X43800000Y-73675000D02*
X44800000Y-73675000D01*
X47987944Y-83386326D02*
X47987944Y-82386326D01*
X49337944Y-82386326D02*
X49337944Y-83386326D01*
X52062944Y-83411326D02*
X52062944Y-82411326D01*
X53412944Y-82411326D02*
X53412944Y-83411326D01*
X49325000Y-83375000D02*
X49325000Y-82375000D01*
X50675000Y-82375000D02*
X50675000Y-83375000D01*
X50725000Y-83450000D02*
X50725000Y-82450000D01*
X52075000Y-82450000D02*
X52075000Y-83450000D01*
X43800000Y-67275000D02*
X44800000Y-67275000D01*
X44800000Y-68625000D02*
X43800000Y-68625000D01*
D13*
X55900000Y-69000000D02*
X55900000Y-67600000D01*
X51900000Y-69000000D02*
X51900000Y-67600000D01*
X47275000Y-77550000D02*
X47275000Y-78350000D01*
X47775000Y-77950000D02*
X46775000Y-77950000D01*
X47275000Y-81850000D02*
X48075000Y-81050000D01*
X47275000Y-76650000D02*
X48075000Y-77450000D01*
X48075000Y-78850000D02*
X48075000Y-77450000D01*
X48075000Y-79650000D02*
X48075000Y-81050000D01*
X42775000Y-76650000D02*
X47275000Y-76650000D01*
X42775000Y-78850000D02*
X42775000Y-76650000D01*
X42775000Y-81850000D02*
X42775000Y-79650000D01*
X47275000Y-81850000D02*
X42775000Y-81850000D01*
%LPC*%
D14*
X54000000Y-71525000D03*
X56200000Y-71525000D03*
D15*
X54000000Y-81800000D03*
X54000000Y-83700000D03*
D16*
X54125000Y-75375000D03*
X56025000Y-75375000D03*
X54125000Y-74150000D03*
X56025000Y-74150000D03*
X45300000Y-75650000D03*
X43400000Y-75650000D03*
D17*
X55450000Y-80165000D03*
D18*
X55450000Y-77625000D03*
D19*
X53475000Y-79850000D03*
X53475000Y-77950000D03*
X51475000Y-78900000D03*
D14*
X51500000Y-73500000D03*
X49300000Y-73500000D03*
X53975000Y-72875000D03*
X56175000Y-72875000D03*
X43200000Y-69550000D03*
X45400000Y-69550000D03*
X45400000Y-72750000D03*
X43200000Y-72750000D03*
X45400000Y-71150000D03*
X43200000Y-71150000D03*
X43200000Y-74350000D03*
X45400000Y-74350000D03*
D20*
X48662944Y-81786326D03*
X48662944Y-83986326D03*
X52737944Y-81811326D03*
X52737944Y-84011326D03*
X50000000Y-81775000D03*
X50000000Y-83975000D03*
X51400000Y-81850000D03*
X51400000Y-84050000D03*
D21*
X49700000Y-78050000D03*
X43475000Y-83725000D03*
X45825000Y-83750000D03*
D17*
X45820000Y-86310000D03*
D18*
X45820000Y-88850000D03*
X48360000Y-86310000D03*
X48360000Y-88850000D03*
X50900000Y-86310000D03*
X50900000Y-88850000D03*
X53440000Y-86310000D03*
X53440000Y-88850000D03*
D14*
X45400000Y-67950000D03*
X43200000Y-67950000D03*
D22*
X53900000Y-69925000D03*
X53900000Y-66675000D03*
D23*
X47275000Y-79250000D03*
X43675000Y-79250000D03*
M02*
